<?xml version="1.0" standalone="no"?>
<!DOCTYPE svg PUBLIC "-//W3C//DTD SVG 1.1//EN" "http://www.w3.org/Graphics/SVG/1.1/DTD/svg11.dtd" >
<svg xmlns="http://www.w3.org/2000/svg" xmlns:xlink="http://www.w3.org/1999/xlink" version="1.1">
<metadata>
Created by FontForge 20170731 at Thu Jun 10 16:22:20 2021
 By Aleksey,,,
Copyright 2018 IBM Corp. All rights reserved.
</metadata>
<defs>
<font id="IBMPlexSans-Light" horiz-adv-x="600" >
  <font-face 
    font-family="IBM Plex Sans Light"
    font-weight="300"
    font-stretch="normal"
    units-per-em="1000"
    panose-1="2 11 4 3 5 2 3 0 2 3"
    ascent="780"
    descent="-220"
    x-height="512"
    cap-height="698"
    bbox="-248 -232 1210 1108"
    underline-thickness="43"
    underline-position="-193"
    unicode-range="U+000D-FB02"
  />
<missing-glyph horiz-adv-x="472" 
d="M32 0v780h408v-780h-408zM75 43h322v694h-322v-694z" />
    <glyph glyph-name="fi" unicode="fi" horiz-adv-x="546" 
d="M117 462h-88v50h88v143q0 39 19.5 62t60.5 23h90v-50h-113v-178h278v-512h-57v462h-221v-462h-57v462zM424 651q-21 0 -30 10t-9 26v10q0 16 9 26t30 10q20 0 29.5 -10t9.5 -26v-10q0 -16 -9.5 -26t-29.5 -10z" />
    <glyph glyph-name=".notdef" horiz-adv-x="472" 
d="M32 0v780h408v-780h-408zM75 43h322v694h-322v-694z" />
    <glyph glyph-name=".null" horiz-adv-x="0" 
 />
    <glyph glyph-name=".null" horiz-adv-x="0" 
 />
    <glyph glyph-name="uni000D" unicode="&#xd;" horiz-adv-x="236" 
 />
    <glyph glyph-name="space" unicode=" " horiz-adv-x="236" 
 />
    <glyph glyph-name="exclam" unicode="!" horiz-adv-x="272" 
d="M121 181l-16 283v234h62v-234l-17 -283h-29zM136 -9q-25 0 -36.5 12.5t-11.5 32.5v11q0 20 11.5 32.5t36.5 12.5q24 0 36 -12.5t12 -32.5v-11q0 -20 -12 -32.5t-36 -12.5z" />
    <glyph glyph-name="quotedbl" unicode="&#x22;" horiz-adv-x="400" 
d="M90 472v268h52v-268h-52zM258 472v268h52v-268h-52z" />
    <glyph glyph-name="numbersign" unicode="#" horiz-adv-x="713" 
d="M416 211h-166l-37 -211h-47l36 211h-136v44h144l32 188h-137v44h145l36 211h47l-36 -211h166l36 211h48l-37 -211h137v-44h-145l-31 -188h137v-44h-145l-36 -211h-48zM423 255l32 188h-166l-32 -188h166z" />
    <glyph glyph-name="dollar" unicode="$" horiz-adv-x="578" 
d="M270 -82v82q-79 4 -132 36t-90 81l43 37q34 -44 76.5 -71t102.5 -32v286l-12 2q-53 9 -89 25.5t-59 40t-33 53.5t-10 65q0 41 14.5 72.5t41.5 53.5t64.5 34t82.5 15v82h44v-81q69 -5 117.5 -32.5t80.5 -73.5l-44 -33q-26 37 -63.5 59.5t-90.5 27.5v-263l17 -3
q53 -9 89 -26t58.5 -41t32 -54t9.5 -66q0 -88 -55.5 -137.5t-150.5 -56.5v-82h-44zM463 191q0 64 -36.5 96t-105.5 42l-7 1v-279q70 6 109.5 42t39.5 98zM124 526q0 -31 9.5 -53t27 -38t42.5 -26t57 -16l10 -2v256q-68 -5 -107 -35t-39 -86z" />
    <glyph glyph-name="percent" unicode="%" horiz-adv-x="908" 
d="M185 0l484 698h56l-484 -698h-56zM221 319q-69 0 -110.5 48t-41.5 147q0 100 41.5 148t110.5 48t110.5 -48t41.5 -148q0 -99 -41.5 -147t-110.5 -48zM221 357q45 0 72.5 32t27.5 101v49q0 69 -27.5 101t-72.5 32t-72.5 -32t-27.5 -101v-49q0 -69 27.5 -101t72.5 -32z
M687 -12q-69 0 -110.5 48t-41.5 147q0 100 41.5 148t110.5 48t110.5 -48t41.5 -148q0 -99 -41.5 -147t-110.5 -48zM687 26q45 0 72.5 32t27.5 101v49q0 69 -27.5 101t-72.5 32t-72.5 -32t-27.5 -101v-49q0 -69 27.5 -101t72.5 -32z" />
    <glyph glyph-name="ampersand" unicode="&#x26;" horiz-adv-x="687" 
d="M492 95q-13 -19 -32 -38t-45.5 -34.5t-60 -25t-74.5 -9.5q-50 0 -88.5 14t-65.5 39t-41 59.5t-14 74.5t13 70.5t34 54t48.5 42t57.5 33.5q-40 44 -63 84t-23 88q0 35 12.5 65t35.5 51.5t55.5 34t72.5 12.5q37 0 67.5 -11t52 -30.5t33.5 -46t12 -58.5q0 -35 -13.5 -63
t-36.5 -51.5t-55 -43.5t-69 -39l181 -188q16 39 23.5 85.5t9.5 96.5h125v-50h-78q-9 -95 -44 -170l135 -141h-74zM311 662q-53 0 -84.5 -31t-31.5 -76v-14q0 -35 22 -69.5t56 -71.5q30 15 57.5 31.5t48 35.5t32.5 39.5t12 44.5v13q0 23 -9 41.5t-24.5 31t-36 19t-42.5 6.5z
M131 169q0 -60 42 -95t111 -35q61 0 104 24t71 67l-204 212q-25 -13 -47.5 -27t-39.5 -32t-27 -41.5t-10 -55.5v-17z" />
    <glyph glyph-name="quotesingle" unicode="'" horiz-adv-x="232" 
d="M90 472v268h52v-268h-52z" />
    <glyph glyph-name="parenleft" unicode="(" horiz-adv-x="334" 
d="M92 312q0 74 14.5 141t39.5 124.5t58 104t70 78.5h56q-40 -36 -73.5 -83t-58 -101.5t-38.5 -113.5t-14 -118v-66q0 -59 14 -118t39 -113.5t58.5 -102t72.5 -81.5h-56q-36 31 -69 77.5t-58 104t-40 125t-15 142.5z" />
    <glyph glyph-name="parenright" unicode=")" horiz-adv-x="334" 
d="M242 312q0 -75 -15 -142.5t-40 -125t-58 -104t-69 -77.5h-56q39 34 72.5 81.5t58.5 102t39 113.5t14 118v66q0 59 -14 118t-38.5 113.5t-58 101.5t-73.5 83h56q37 -32 70 -78.5t58 -104t39.5 -124.5t14.5 -141z" />
    <glyph glyph-name="asterisk" unicode="*" horiz-adv-x="416" 
d="M122 407l-40 29l92 121l-145 41l15 49l143 -51l-4 151h50l-4 -151l142 51l16 -49l-145 -41l92 -121l-40 -29l-86 125z" />
    <glyph glyph-name="plus" unicode="+" 
d="M273 63v218h-208v49h208v218h54v-218h208v-49h-208v-218h-54z" />
    <glyph glyph-name="comma" unicode="," horiz-adv-x="260" 
d="M130 92q25 0 36.5 -13t11.5 -33v-13q0 -42 -23.5 -89.5t-62.5 -81.5h-48q33 34 50.5 66t23.5 65q-20 2 -28 13.5t-8 27.5v12q0 20 11.5 33t36.5 13z" />
    <glyph glyph-name="hyphen" unicode="-" horiz-adv-x="397" 
d="M74 274v61h249v-61h-249z" />
    <glyph glyph-name="period" unicode="." horiz-adv-x="260" 
d="M130 -9q-25 0 -36.5 12.5t-11.5 32.5v11q0 20 11.5 32.5t36.5 12.5q24 0 36 -12.5t12 -32.5v-11q0 -20 -12 -32.5t-36 -12.5z" />
    <glyph glyph-name="slash" unicode="/" horiz-adv-x="356" 
d="M11 -151l252 891h51l-252 -891h-51z" />
    <glyph glyph-name="zero" unicode="0" 
d="M300 -12q-236 0 -236 361t236 361t236 -361t-236 -361zM300 40q88 0 130.5 70t42.5 192v94q0 122 -42.5 192t-130.5 70q-89 0 -131 -70t-42 -192v-94q0 -122 42 -192t131 -70z" />
    <glyph glyph-name="one" unicode="1" 
d="M90 0v53h204v601h-5l-192 -171l-34 38l199 177h92v-645h192v-53h-456z" />
    <glyph glyph-name="two" unicode="2" 
d="M528 0h-448v61l244 234q49 48 80 98.5t31 103.5v19q0 62 -36 101t-108 39q-70 0 -107 -35t-54 -91l-54 20q10 32 27 61t43.5 51t62.5 35t84 13q49 0 87.5 -14.5t65 -40.5t40 -62.5t13.5 -81.5q0 -38 -10 -71.5t-28 -64t-44 -60t-57 -58.5l-215 -204h383v-53z" />
    <glyph glyph-name="three" unicode="3" 
d="M268 392q72 0 112.5 35.5t40.5 92.5v13q0 59 -39 91t-100 32t-97.5 -24.5t-58.5 -66.5l-45 32q12 22 30 42.5t42.5 36.5t56.5 25t73 9q43 0 80 -12t64 -34.5t42.5 -55t15.5 -73.5q0 -71 -39 -111t-97 -54v-4q31 -5 58 -18.5t47.5 -35.5t32.5 -53t12 -70q0 -45 -16 -82.5
t-45.5 -63.5t-71 -40.5t-92.5 -14.5q-84 0 -136 32.5t-85 81.5l45 34q29 -45 69.5 -69.5t105.5 -24.5q76 0 119 37.5t43 103.5v16q0 66 -42 103.5t-120 37.5h-88v52h83z" />
    <glyph glyph-name="four" unicode="4" 
d="M389 0v146h-347v53l318 499h86v-502h108v-50h-108v-146h-57zM98 196h291v451h-3z" />
    <glyph glyph-name="five" unicode="5" 
d="M491 645h-312l-22 -292l6 -1q26 37 61 55.5t91 18.5q46 0 84 -14.5t65 -42t41.5 -67t14.5 -89.5q0 -51 -15.5 -92.5t-44.5 -71t-70.5 -45.5t-93.5 -16q-41 0 -74 8.5t-59 24t-46.5 36.5t-36.5 45l45 34q29 -45 67.5 -69.5t103.5 -24.5q78 0 119.5 42.5t41.5 115.5v17
q0 73 -40.5 115.5t-117.5 42.5q-27 0 -48 -4.5t-37.5 -13t-30 -20t-26.5 -26.5l-52 8l25 379h361v-53z" />
    <glyph glyph-name="six" unicode="6" 
d="M301 -12q-56 0 -98 18.5t-70.5 52t-43 81t-14.5 104.5q0 81 22.5 150.5t58.5 126.5t82.5 101.5t94.5 75.5h79q-58 -40 -103 -80t-79 -84.5t-56.5 -95.5t-35.5 -112l4 -1q26 47 68.5 74.5t105.5 27.5q46 0 84.5 -15t66 -42.5t42.5 -67t15 -88.5q0 -51 -16 -92.5t-45 -71
t-70 -46t-92 -16.5zM300 40q76 0 119 43.5t43 116.5v17q0 73 -42.5 116t-119.5 43q-78 0 -120.5 -43t-42.5 -116v-16q0 -74 43 -117.5t120 -43.5z" />
    <glyph glyph-name="seven" unicode="7" 
d="M180 0l280 646h-334v-144h-54v196h449v-53l-277 -645h-64z" />
    <glyph glyph-name="eight" unicode="8" 
d="M300 -12q-57 0 -101 15t-74.5 41t-46 62.5t-15.5 79.5q0 73 40 117.5t107 59.5v7q-57 16 -90.5 59t-33.5 106q0 80 56.5 127.5t157.5 47.5t157.5 -47.5t56.5 -127.5q0 -63 -33.5 -106t-90.5 -59v-7q67 -15 107 -59.5t40 -117.5q0 -43 -15.5 -79.5t-46 -62.5t-74.5 -41
t-101 -15zM300 40q81 0 127 37.5t46 101.5v23q0 65 -46 102t-127 37t-127 -37t-46 -102v-23q0 -64 46 -101.5t127 -37.5zM300 392q72 0 112 32.5t40 91.5v18q0 58 -40 91t-112 33t-112 -33t-40 -91v-18q0 -59 40 -91.5t112 -32.5z" />
    <glyph glyph-name="nine" unicode="9" 
d="M525 454q0 -81 -22.5 -150.5t-58.5 -126.5t-82.5 -101.5t-94.5 -75.5h-78q58 40 103 80t78.5 84.5t56 95t35.5 112.5l-4 1q-26 -47 -68.5 -74.5t-105.5 -27.5q-46 0 -84.5 15t-66 42.5t-42.5 67t-15 88.5q0 51 16 92.5t45 71t70.5 46t92.5 16.5q55 0 97 -18.5t70.5 -52
t43 -81t14.5 -104.5zM301 322q77 0 119.5 43t42.5 116v16q0 74 -43 117.5t-119 43.5q-77 0 -120 -43.5t-43 -116.5v-17q0 -73 42.5 -116t120.5 -43z" />
    <glyph glyph-name="colon" unicode=":" horiz-adv-x="280" 
d="M140 -9q-25 0 -36.5 12.5t-11.5 32.5v11q0 20 11.5 32.5t36.5 12.5q24 0 36 -12.5t12 -32.5v-11q0 -20 -12 -32.5t-36 -12.5zM140 420q-25 0 -36.5 12.5t-11.5 32.5v11q0 20 11.5 32.5t36.5 12.5q24 0 36 -12.5t12 -32.5v-11q0 -20 -12 -32.5t-36 -12.5z" />
    <glyph glyph-name="semicolon" unicode=";" horiz-adv-x="280" 
d="M140 92q25 0 36.5 -13t11.5 -33v-13q0 -42 -23.5 -89.5t-62.5 -81.5h-48q33 34 50.5 66t23.5 65q-20 2 -28 13.5t-8 27.5v12q0 20 11.5 33t36.5 13zM140 420q-25 0 -36.5 12.5t-11.5 32.5v11q0 20 11.5 32.5t36.5 12.5q24 0 36 -12.5t12 -32.5v-11q0 -20 -12 -32.5
t-36 -12.5z" />
    <glyph glyph-name="less" unicode="&#x3c;" 
d="M88 260v56l424 252v-60l-369 -217v-6l369 -217v-60z" />
    <glyph glyph-name="equal" unicode="=" 
d="M65 377v49h470v-49h-470zM65 186v49h470v-49h-470z" />
    <glyph glyph-name="greater" unicode="&#x3e;" 
d="M88 68l369 217v6l-369 217v60l424 -252v-56l-424 -252v60z" />
    <glyph glyph-name="question" unicode="?" horiz-adv-x="469" 
d="M186 196v167q88 3 136.5 43t48.5 107v19q0 57 -36 91.5t-99 34.5q-65 0 -102.5 -34t-52.5 -91l-53 19q10 34 27.5 63t43 50t60.5 33t79 12q91 0 143 -50t52 -135q0 -46 -15 -81.5t-41.5 -61t-61 -40.5t-73.5 -21v-125h-56zM214 -9q-24 0 -35.5 12t-11.5 33v11
q0 21 11.5 33t35.5 12q25 0 36.5 -12t11.5 -33v-11q0 -21 -11.5 -33t-36.5 -12z" />
    <glyph glyph-name="at" unicode="@" horiz-adv-x="887" 
d="M678 -121h-234q-83 0 -152 28.5t-119 82.5t-78 130.5t-28 172.5q0 94 28 170.5t79 131t121.5 84.5t155.5 30q72 0 139 -22.5t118 -70t81.5 -119.5t30.5 -171q0 -53 -9 -99.5t-28.5 -81.5t-50.5 -55.5t-74 -20.5q-44 0 -68.5 23t-29.5 60h-3q-18 -35 -48.5 -59t-80.5 -24
q-37 0 -68.5 13.5t-55 41t-36.5 68.5t-13 96t13 96.5t36.5 69.5t55 41.5t68.5 13.5q50 0 79 -23t43 -54h4v66h50v-315q0 -37 16 -53.5t46 -16.5q50 0 77.5 52t27.5 143v46q0 70 -24.5 127.5t-68 98.5t-102 63t-126.5 22q-73 0 -134.5 -26t-105.5 -72t-69 -108.5t-25 -135.5
v-56q0 -76 24.5 -139.5t68 -109t104 -70.5t132.5 -25h233v-44zM437 117q54 0 85.5 28.5t31.5 78.5v133q0 46 -31.5 75t-85.5 29q-62 0 -92 -37.5t-30 -103.5v-64q0 -63 30 -101t92 -38z" />
    <glyph glyph-name="A" unicode="A" horiz-adv-x="625" 
d="M536 0l-76 217h-297l-76 -217h-60l247 698h77l248 -698h-63zM313 641h-4l-131 -372h266z" />
    <glyph glyph-name="B" unicode="B" horiz-adv-x="638" 
d="M99 698h273q82 0 128.5 -46.5t46.5 -129.5q0 -36 -9.5 -63t-24.5 -45t-34.5 -29t-38.5 -15v-4q24 -3 48 -14.5t43 -32t31 -51t12 -71.5q0 -43 -12.5 -79t-36 -62.5t-56 -41t-72.5 -14.5h-298v698zM159 53h222q63 0 96 34.5t33 89.5v37q0 54 -33 88.5t-96 34.5h-222v-284z
M159 389h207q57 0 87 30.5t30 78.5v38q0 48 -30 78.5t-87 30.5h-207v-256z" />
    <glyph glyph-name="C" unicode="C" horiz-adv-x="617" 
d="M335 -12q-130 0 -201 90.5t-71 268.5q0 177 71 270t201 93q84 0 141.5 -40t89.5 -109l-49 -29q-23 57 -69.5 90.5t-112.5 33.5q-98 0 -153 -70t-55 -200v-79q0 -129 55 -197t153 -68q70 0 117 35.5t70 95.5l49 -29q-31 -72 -91 -114t-145 -42z" />
    <glyph glyph-name="D" unicode="D" horiz-adv-x="666" 
d="M99 698h222q135 0 208.5 -87t73.5 -262t-73.5 -262t-208.5 -87h-222v698zM322 53q103 0 160 66.5t57 183.5v92q0 117 -57 183.5t-160 66.5h-163v-592h163z" />
    <glyph glyph-name="E" unicode="E" horiz-adv-x="574" 
d="M99 0v698h408v-53h-348v-264h331v-53h-331v-275h348v-53h-408z" />
    <glyph glyph-name="F" unicode="F" horiz-adv-x="550" 
d="M99 0v698h399v-53h-339v-264h316v-53h-316v-328h-60z" />
    <glyph glyph-name="G" unicode="G" horiz-adv-x="684" 
d="M553 107h-3q-19 -54 -71.5 -86.5t-133.5 -32.5q-65 0 -117 23t-88.5 69t-56.5 113t-20 156q0 88 20 155.5t57 113t90 69t119 23.5q90 0 151 -41t93 -108l-49 -29q-26 58 -76 91t-119 33q-51 0 -92 -18t-70 -52t-44.5 -83t-15.5 -111v-85q0 -126 60.5 -195.5t166.5 -69.5
q40 0 75.5 10.5t62.5 31.5t42.5 53t15.5 75v84h-163v52h222v-348h-56v107z" />
    <glyph glyph-name="H" unicode="H" horiz-adv-x="701" 
d="M542 328h-383v-328h-60v698h60v-317h383v317h60v-698h-60v328z" />
    <glyph glyph-name="I" unicode="I" horiz-adv-x="390" 
d="M63 0v50h102v598h-102v50h264v-50h-102v-598h102v-50h-264z" />
    <glyph glyph-name="J" unicode="J" horiz-adv-x="493" 
d="M399 698v-516q0 -93 -51.5 -143.5t-137.5 -50.5q-74 0 -122 40t-62 106l53 13q12 -46 44.5 -76t88.5 -30q63 0 95 38t32 112v454h-242v53h302z" />
    <glyph glyph-name="K" unicode="K" horiz-adv-x="610" 
d="M272 360l-113 -125v-235h-60v698h60v-393h2l112 129l230 264h73l-263 -297l276 -401h-74z" />
    <glyph glyph-name="L" unicode="L" horiz-adv-x="491" 
d="M99 0v698h60v-645h308v-53h-368z" />
    <glyph glyph-name="M" unicode="M" horiz-adv-x="804" 
d="M647 621h-4l-241 -427l-241 427h-4v-621h-58v698h82l221 -393h3l221 393h79v-698h-58v621z" />
    <glyph glyph-name="N" unicode="N" horiz-adv-x="701" 
d="M160 616h-3v-616h-58v698h75l367 -616h3v616h58v-698h-75z" />
    <glyph glyph-name="O" unicode="O" horiz-adv-x="697" 
d="M349 -12q-134 0 -210 91.5t-76 269.5t76 269.5t210 91.5q133 0 209 -92t76 -269t-76 -269t-209 -92zM349 42q50 0 90.5 17.5t69.5 51.5t45 83t16 111v88q0 62 -16 111t-45 82.5t-69.5 51.5t-90.5 18t-91 -18t-70 -51.5t-45 -82.5t-16 -111v-88q0 -62 16 -111t45 -83
t70 -51.5t91 -17.5z" />
    <glyph glyph-name="P" unicode="P" horiz-adv-x="601" 
d="M99 0v698h274q91 0 139 -52.5t48 -142.5q0 -91 -48 -143.5t-139 -52.5h-214v-307h-60zM159 360h214q60 0 91.5 33.5t31.5 85.5v48q0 51 -31.5 84.5t-91.5 33.5h-214v-285z" />
    <glyph glyph-name="Q" unicode="Q" horiz-adv-x="697" 
d="M488 -157h-101q-31 0 -46.5 17t-15.5 44v85q-124 8 -193 99t-69 261q0 178 76 269.5t210 91.5q133 0 209 -92t76 -269q0 -167 -66.5 -257.5t-185.5 -101.5v-96h106v-51zM349 42q50 0 90.5 17.5t69.5 51.5t45 83t16 111v88q0 62 -16 111t-45 82.5t-69.5 51.5t-90.5 18
t-91 -18t-70 -51.5t-45 -82.5t-16 -111v-88q0 -62 16 -111t45 -83t70 -51.5t91 -17.5z" />
    <glyph glyph-name="R" unicode="R" horiz-adv-x="636" 
d="M159 0h-60v698h274q90 0 138.5 -51t48.5 -143q0 -81 -39.5 -131t-114.5 -60l172 -313h-67l-167 309h-185v-309zM373 360q60 0 91.5 33.5t31.5 85.5v48q0 51 -31.5 84.5t-91.5 33.5h-214v-285h214z" />
    <glyph glyph-name="S" unicode="S" horiz-adv-x="568" 
d="M284 -12q-86 0 -143.5 32.5t-98.5 86.5l45 37q37 -49 83.5 -76t115.5 -27q81 0 124.5 38.5t43.5 107.5q0 64 -37 94t-104 44l-62 13q-100 20 -145 67t-45 120q0 46 16 80.5t45.5 57.5t71 35t91.5 12q78 0 132 -28t89 -79l-45 -33q-29 42 -72.5 64.5t-106.5 22.5
q-75 0 -118.5 -32.5t-43.5 -97.5q0 -62 39 -91t104 -42l62 -13q104 -23 146 -71t42 -120q0 -96 -61 -149t-168 -53z" />
    <glyph glyph-name="T" unicode="T" horiz-adv-x="568" 
d="M314 645v-645h-60v645h-234v53h528v-53h-234z" />
    <glyph glyph-name="U" unicode="U" horiz-adv-x="668" 
d="M153 698v-431q0 -58 9 -100.5t30 -70t56 -41t86 -13.5t85.5 13.5t56 41t30.5 70t9 100.5v431h60v-418q0 -77 -13 -132t-41.5 -90.5t-75 -52.5t-113.5 -17t-113 17t-74 52.5t-40 90.5t-12 132v418h60z" />
    <glyph glyph-name="V" unicode="V" horiz-adv-x="594" 
d="M258 0l-234 698h65l206 -637h4l208 637h63l-236 -698h-76z" />
    <glyph glyph-name="W" unicode="W" horiz-adv-x="884" 
d="M200 0l-176 698h64l149 -624h3l165 624h73l163 -624h3l154 624h62l-182 -698h-70l-167 631h-2l-169 -631h-70z" />
    <glyph glyph-name="X" unicode="X" horiz-adv-x="592" 
d="M566 0h-72l-198 309h-2l-199 -309h-69l231 355l-224 343h71l191 -295h2l193 295h69l-226 -340z" />
    <glyph glyph-name="Y" unicode="Y" horiz-adv-x="575" 
d="M257 0v283l-241 415h68l202 -352h3l202 352h68l-242 -412v-286h-60z" />
    <glyph glyph-name="Z" unicode="Z" horiz-adv-x="570" 
d="M537 0h-500v55l419 590h-397v53h462v-55l-420 -590h436v-53z" />
    <glyph glyph-name="bracketleft" unicode="[" horiz-adv-x="311" 
d="M99 -138v898h148v-45h-98v-808h98v-45h-148z" />
    <glyph glyph-name="backslash" unicode="\" horiz-adv-x="356" 
d="M289 -151l-249 891h52l249 -891h-52z" />
    <glyph glyph-name="bracketright" unicode="]" horiz-adv-x="311" 
d="M212 760v-898h-148v45h98v808h-98v45h148z" />
    <glyph glyph-name="asciicircum" unicode="^" 
d="M499 306l-197 338h-4l-197 -338l-44 24l212 368h62l212 -368z" />
    <glyph glyph-name="underscore" unicode="_" horiz-adv-x="567" 
d="M30 -156v50h507v-50h-507z" />
    <glyph glyph-name="grave" unicode="`" 
d="M193 742l52 26l95 -164l-38 -18z" />
    <glyph glyph-name="a" unicode="a" horiz-adv-x="527" 
d="M445 0q-33 0 -48 17t-17 46v18h-5q-17 -43 -56 -68t-99 -25q-81 0 -125 39.5t-44 111.5q0 68 48.5 108t159.5 40h118v60q0 127 -131 127q-51 0 -85 -21.5t-55 -61.5l-36 30q21 45 64.5 74t113.5 29q90 0 138 -45t48 -126v-303h69v-50h-58zM228 37q31 0 58 8t47.5 22.5
t32 35t11.5 46.5v95h-120q-77 0 -111.5 -24.5t-34.5 -67.5v-24q0 -45 32 -68t85 -23z" />
    <glyph glyph-name="b" unicode="b" horiz-adv-x="574" 
d="M93 740h57v-310h3q19 43 58 68.5t98 25.5q99 0 155 -70t56 -198t-56 -198t-155 -70q-59 0 -97 25.5t-59 68.5h-3v-82h-57v740zM296 39q77 0 120 49t43 132v72q0 83 -43 132t-120 49q-30 0 -56.5 -8.5t-46.5 -23.5t-31.5 -36t-11.5 -46v-203q0 -27 11.5 -48.5t31.5 -37
t46.5 -23.5t56.5 -8z" />
    <glyph glyph-name="c" unicode="c" horiz-adv-x="496" 
d="M273 -12q-106 0 -163.5 70t-57.5 198t57.5 198t163.5 70q71 0 115 -31t67 -82l-48 -24q-18 42 -50.5 64t-83.5 22q-78 0 -119 -50t-41 -131v-72q0 -81 41 -131t119 -50q53 0 89 23t58 66l42 -28q-25 -51 -71.5 -81.5t-117.5 -30.5z" />
    <glyph glyph-name="d" unicode="d" horiz-adv-x="574" 
d="M424 82h-3q-20 -43 -58.5 -68.5t-97.5 -25.5q-99 0 -155 70t-56 198t56 198t155 70q59 0 98 -25.5t58 -68.5h3v310h57v-740h-57v82zM278 39q30 0 56.5 8t46.5 23.5t31.5 37t11.5 48.5v203q0 25 -11.5 46t-31.5 36t-46.5 23.5t-56.5 8.5q-77 0 -120 -49t-43 -132v-72
q0 -83 43 -132t120 -49z" />
    <glyph glyph-name="e" unicode="e" horiz-adv-x="543" 
d="M276 -12q-51 0 -92.5 18t-71 52.5t-45 84.5t-15.5 113t15.5 112.5t45 84t70.5 53t92 18.5q49 0 89 -18.5t68 -51.5t43.5 -79.5t15.5 -102.5v-27h-379v-25q0 -40 11.5 -73.5t33 -57.5t52.5 -37.5t70 -13.5q112 0 155 103l42 -28q-24 -57 -75.5 -91t-124.5 -34zM275 476
q-37 0 -67 -13.5t-51.5 -37.5t-33 -57.5t-11.5 -73.5v-5h317v8q0 40 -11 73.5t-31.5 56.5t-49 36t-62.5 13z" />
    <glyph glyph-name="f" unicode="f" horiz-adv-x="309" 
d="M117 462h-88v50h88v143q0 39 19.5 62t60.5 23h90v-50h-113v-178h113v-50h-113v-462h-57v462z" />
    <glyph glyph-name="g" unicode="g" horiz-adv-x="529" 
d="M513 -60q0 -78 -62.5 -115t-183.5 -37q-117 0 -169 34t-52 94q0 44 23 70t65 38v8q-48 19 -48 70q0 38 25 58t62 30v4q-45 20 -70 60t-25 96q0 39 13 71t37.5 55t59 35.5t76.5 12.5q59 0 103 -25v25q0 23 11 37.5t36 14.5h88v-50h-104v-49q26 -23 40 -55.5t14 -71.5
t-13.5 -71t-38 -55.5t-59 -36t-76.5 -12.5q-14 0 -27 2l-26 4q-33 -9 -54.5 -24.5t-21.5 -41.5q0 -46 82 -46h119q93 0 134.5 -34.5t41.5 -94.5zM458 -64q0 37 -26.5 58.5t-94.5 21.5h-166q-33 -11 -52 -33t-19 -55q0 -40 33 -66.5t100 -26.5h64q75 0 118 24.5t43 76.5z
M265 221q59 0 92.5 29.5t33.5 83.5v32q0 53 -33.5 82.5t-92.5 29.5q-60 0 -93 -29.5t-33 -82.5v-32q0 -54 33.5 -83.5t92.5 -29.5z" />
    <glyph glyph-name="h" unicode="h" horiz-adv-x="563" 
d="M93 740h57v-309h3q17 40 53 66.5t98 26.5q82 0 127.5 -50.5t45.5 -144.5v-329h-57v319q0 78 -33.5 116t-97.5 38q-27 0 -52 -7t-44.5 -21t-31 -35.5t-11.5 -49.5v-360h-57v740z" />
    <glyph glyph-name="i" unicode="i" horiz-adv-x="243" 
d="M121 651q-20 0 -29.5 10t-9.5 26v10q0 16 9.5 26t29.5 10t29.5 -10t9.5 -26v-10q0 -16 -9.5 -26t-29.5 -10zM93 512h57v-512h-57v512z" />
    <glyph glyph-name="j" unicode="j" horiz-adv-x="243" 
d="M93 512h57v-627q0 -39 -19 -62t-61 -23h-62v50h85v662zM121 651q-20 0 -29.5 10t-9.5 26v10q0 16 9.5 26t29.5 10t29.5 -10t9.5 -26v-10q0 -16 -9.5 -26t-29.5 -10z" />
    <glyph glyph-name="k" unicode="k" horiz-adv-x="513" 
d="M93 740h57v-489h3l80 85l170 176h70l-201 -208l223 -304h-70l-194 268l-81 -82v-186h-57v740z" />
    <glyph glyph-name="l" unicode="l" horiz-adv-x="264" 
d="M156 0q-31 0 -47 17t-16 45v678h57v-690h79v-50h-73z" />
    <glyph glyph-name="m" unicode="m" horiz-adv-x="876" 
d="M93 0v512h57v-81h3q8 19 20 35.5t29 29.5t40.5 20.5t55.5 7.5q55 0 97 -26t61 -82h3q14 45 53.5 76.5t107.5 31.5q82 0 126 -50.5t44 -144.5v-329h-57v319q0 154 -129 154q-27 0 -51 -7t-42.5 -21.5t-29.5 -36t-11 -49.5v-359h-57v319q0 154 -128 154q-26 0 -50.5 -7
t-43.5 -21t-30 -35.5t-11 -49.5v-360h-57z" />
    <glyph glyph-name="n" unicode="n" horiz-adv-x="563" 
d="M93 0v512h57v-81h3q17 40 53 66.5t98 26.5q82 0 127.5 -50.5t45.5 -144.5v-329h-57v319q0 78 -33.5 116t-97.5 38q-27 0 -52 -7t-44.5 -21t-31 -35.5t-11.5 -49.5v-360h-57z" />
    <glyph glyph-name="o" unicode="o" horiz-adv-x="550" 
d="M275 -12q-51 0 -92 18t-70 52.5t-45 84.5t-16 113t16 112.5t45 84t70 53t92 18.5t92 -18.5t70 -53t45 -84t16 -112.5t-16 -113t-45 -84.5t-70 -52.5t-92 -18zM275 39q75 0 118.5 47t43.5 138v64q0 90 -43.5 137.5t-118.5 47.5t-118.5 -47t-43.5 -138v-64
q0 -90 43.5 -137.5t118.5 -47.5z" />
    <glyph glyph-name="p" unicode="p" horiz-adv-x="574" 
d="M93 512h57v-82h3q19 43 58 68.5t98 25.5q99 0 155 -70t56 -198t-56 -198t-155 -70q-59 0 -97 25.5t-59 68.5h-3v-282h-57v712zM296 39q77 0 120 49t43 132v72q0 83 -43 132t-120 49q-30 0 -56.5 -8.5t-46.5 -23.5t-31.5 -36t-11.5 -46v-203q0 -27 11.5 -48.5t31.5 -37
t46.5 -23.5t56.5 -8z" />
    <glyph glyph-name="q" unicode="q" horiz-adv-x="574" 
d="M424 82h-3q-20 -43 -58.5 -68.5t-97.5 -25.5q-99 0 -155 70t-56 198t56 198t155 70q59 0 98 -25.5t58 -68.5h3v82h57v-712h-57v282zM278 39q30 0 56.5 8t46.5 23.5t31.5 37t11.5 48.5v203q0 25 -11.5 46t-31.5 36t-46.5 23.5t-56.5 8.5q-77 0 -120 -49t-43 -132v-72
q0 -83 43 -132t120 -49z" />
    <glyph glyph-name="r" unicode="r" horiz-adv-x="357" 
d="M93 0v512h57v-92h4q15 36 51 64t102 28h34v-56h-45q-64 0 -105 -28t-41 -78v-350h-57z" />
    <glyph glyph-name="s" unicode="s" horiz-adv-x="477" 
d="M238 -12q-67 0 -114.5 25t-82.5 73l42 33q32 -42 70 -62t89 -20q59 0 91 25t32 72q0 41 -24.5 64.5t-80.5 31.5l-42 7q-35 5 -64 15t-49.5 27t-32 41.5t-11.5 59.5q0 36 13.5 63t36.5 45t55 27t69 9q64 0 105 -22t70 -57l-38 -35q-20 24 -53.5 44.5t-86.5 20.5
q-55 0 -85.5 -24t-30.5 -68q0 -45 27.5 -65t82.5 -29l41 -6q78 -12 115.5 -46.5t37.5 -96.5q0 -72 -48.5 -112t-133.5 -40z" />
    <glyph glyph-name="t" unicode="t" horiz-adv-x="335" 
d="M181 0q-31 0 -47 17t-16 46v399h-89v50h58q21 0 28.5 8.5t7.5 30.5v104h52v-143h116v-50h-116v-412h108v-50h-102z" />
    <glyph glyph-name="u" unicode="u" horiz-adv-x="563" 
d="M413 81h-4q-7 -18 -19 -35t-30 -29.5t-42.5 -20.5t-57.5 -8q-82 0 -128 50.5t-46 144.5v329h57v-318q0 -79 34 -117t98 -38q27 0 51.5 7t44 21t31 35.5t11.5 50.5v359h57v-512h-57v81z" />
    <glyph glyph-name="v" unicode="v" horiz-adv-x="476" 
d="M21 512h60l157 -451h4l156 451h58l-185 -512h-65z" />
    <glyph glyph-name="w" unicode="w" horiz-adv-x="752" 
d="M33 512h56l123 -461h2l136 461h53l137 -461h2l122 461h55l-144 -512h-70l-129 431h-2l-128 -431h-69z" />
    <glyph glyph-name="x" unicode="x" horiz-adv-x="493" 
d="M26 0l190 258l-183 254h67l146 -209h3l149 209h64l-182 -250l187 -262h-67l-151 216h-2l-157 -216h-64z" />
    <glyph glyph-name="y" unicode="y" horiz-adv-x="479" 
d="M399 512h58l-237 -656q-12 -32 -29 -44t-56 -12h-58v50h86l49 135l-190 527h60l157 -451h4z" />
    <glyph glyph-name="z" unicode="z" horiz-adv-x="446" 
d="M31 0v49l310 413h-301v50h369v-45l-314 -417h322v-50h-386z" />
    <glyph glyph-name="braceleft" unicode="{" horiz-adv-x="332" 
d="M179 -138q-29 0 -44 17t-15 43v269q0 44 -26.5 65.5t-70.5 21.5v66q44 0 70.5 21.5t26.5 65.5v269q0 26 15 43t44 17h90v-45h-99v-278q0 -48 -26.5 -80.5t-69.5 -37.5v-16q43 -5 69.5 -37.5t26.5 -80.5v-278h99v-45h-90z" />
    <glyph glyph-name="bar" unicode="|" horiz-adv-x="285" 
d="M118 -138v898h49v-898h-49z" />
    <glyph glyph-name="braceright" unicode="}" horiz-adv-x="332" 
d="M153 760q29 0 44 -17t15 -43v-269q0 -44 26.5 -65.5t70.5 -21.5v-66q-44 0 -70.5 -21.5t-26.5 -65.5v-269q0 -26 -15 -43t-44 -17h-90v45h99v278q0 48 26.5 80.5t70.5 37.5v16q-44 5 -70.5 37.5t-26.5 80.5v278h-99v45h90z" />
    <glyph glyph-name="asciitilde" unicode="~" 
d="M421 245q-34 0 -62 9.5t-67 27.5q-35 16 -61 25.5t-55 9.5q-26 0 -45.5 -8.5t-42.5 -27.5l-25 32q22 25 48.5 38.5t67.5 13.5q34 0 62 -9.5t67 -27.5q35 -16 61 -25.5t55 -9.5q26 0 45.5 8.5t42.5 27.5l25 -32q-22 -25 -48.5 -38.5t-67.5 -13.5z" />
    <glyph glyph-name="uni00A0" unicode="&#xa0;" horiz-adv-x="236" 
 />
    <glyph glyph-name="exclamdown" unicode="&#xa1;" horiz-adv-x="272" 
d="M104 -185v234l17 282h29l16 -282v-234h-62zM136 420q-25 0 -36.5 12.5t-11.5 32.5v11q0 20 11.5 32.5t36.5 12.5q24 0 36 -12.5t12 -32.5v-11q0 -20 -12 -32.5t-36 -12.5z" />
    <glyph glyph-name="cent" unicode="&#xa2;" horiz-adv-x="497" 
d="M242 -114v104q-91 10 -140.5 79t-49.5 187t49.5 187t140.5 79v104h50v-103q61 -3 101 -33.5t62 -78.5l-46 -23q-18 38 -46.5 60t-71.5 25v-434q46 3 78 26t52 62l42 -28q-23 -48 -65.5 -77.5t-105.5 -32.5v-103h-50zM113 220q0 -73 33.5 -121.5t96.5 -56.5v429
q-63 -9 -96.5 -57t-33.5 -122v-72z" />
    <glyph glyph-name="sterling" unicode="&#xa3;" horiz-adv-x="589" 
d="M82 0v71q42 23 62 65.5t20 93.5q0 18 -2.5 34.5t-5.5 31.5h-92v50h78q-13 38 -25 75t-12 82q0 47 15.5 85t44.5 65t69.5 42t91.5 15q72 0 123 -29.5t85 -86.5l-46 -32q-28 47 -68 71t-96 24q-72 0 -115 -40.5t-43 -118.5q0 -43 12 -79.5t24 -72.5h217v-50h-204
q3 -14 5 -28.5t2 -31.5q0 -58 -23 -105.5t-59 -73.5v-3h380v-54h-438z" />
    <glyph glyph-name="currency" unicode="&#xa4;" horiz-adv-x="602" 
d="M301 123q-88 0 -141 51l-105 -106l-35 35l108 108q-16 27 -24.5 61.5t-8.5 76.5t8.5 76.5t24.5 61.5l-108 108l35 35l105 -106q53 51 141 51t141 -51l105 106l35 -35l-108 -108q16 -27 24.5 -61.5t8.5 -76.5t-8.5 -76.5t-24.5 -61.5l108 -108l-35 -35l-105 106
q-53 -51 -141 -51zM301 171q67 0 106 38.5t39 111.5v56q0 73 -39 111.5t-106 38.5t-106 -38.5t-39 -111.5v-56q0 -73 39 -111.5t106 -38.5z" />
    <glyph glyph-name="yen" unicode="&#xa5;" horiz-adv-x="595" 
d="M327 154v-154h-59v154h-185v48h185v113h-185v48h156l-200 335h68l191 -329h4l188 329h66l-200 -335h156v-48h-185v-113h185v-48h-185z" />
    <glyph glyph-name="brokenbar" unicode="&#xa6;" horiz-adv-x="285" 
d="M118 404v356h49v-356h-49zM118 -138v356h49v-356h-49z" />
    <glyph glyph-name="section" unicode="&#xa7;" horiz-adv-x="578" 
d="M442 261q0 49 -30 77.5t-93 46.5l-64 19q-10 2 -19 5.5t-18 7.5q-38 -21 -60 -51t-22 -72q0 -49 30 -77.5t92 -46.5l64 -18q10 -3 19 -6.5t18 -7.5q38 22 60.5 51.5t22.5 71.5zM462 -3q0 -36 -14 -64.5t-39 -48t-59.5 -29.5t-75.5 -10q-50 0 -90.5 14.5t-71.5 41.5l33 40
q24 -20 55.5 -33t74.5 -13q62 0 96.5 26.5t34.5 74.5q0 46 -31.5 70.5t-80.5 39.5l-65 20q-75 23 -112 60t-37 95q0 51 29 88t80 57v6q-34 22 -54 53t-20 74q0 36 14 64t39 47.5t59.5 29.5t75.5 10q100 0 162 -56l-33 -40q-24 21 -55.5 33.5t-74.5 12.5q-62 0 -96.5 -26.5
t-34.5 -74.5q0 -46 31.5 -70t80.5 -39l64 -20q76 -24 113.5 -61t37.5 -94q0 -52 -29.5 -89t-80.5 -57v-5q35 -22 54.5 -53.5t19.5 -73.5z" />
    <glyph glyph-name="dieresis" unicode="&#xa8;" 
d="M208 627q-21 0 -30 10t-9 26v10q0 16 9 26t30 10q20 0 29.5 -10t9.5 -26v-10q0 -16 -9.5 -26t-29.5 -10zM392 627q-20 0 -29.5 10t-9.5 26v10q0 16 9.5 26t29.5 10q21 0 30 -10t9 -26v-10q0 -16 -9 -26t-30 -10z" />
    <glyph glyph-name="copyright" unicode="&#xa9;" horiz-adv-x="748" 
d="M374 -11q-71 0 -131 25t-104 72t-69 113.5t-25 149.5t25 149.5t69 113.5t104 72t131 25q70 0 130.5 -25t104.5 -72t69 -113.5t25 -149.5t-25 -149.5t-69 -113.5t-104.5 -72t-130.5 -25zM374 32q62 0 113.5 22t88 61t57 92t20.5 115v54q0 62 -20.5 115t-57 92t-88 61
t-113.5 22t-113.5 -22t-88 -61t-57 -92t-20.5 -115v-54q0 -62 20.5 -115t57 -92t88 -61t113.5 -22zM377 153q-74 0 -116 51.5t-42 143.5t42 143.5t117 51.5q50 0 82 -23.5t47 -61.5l-41 -21q-11 29 -32.5 45t-55.5 16q-50 0 -77.5 -33.5t-27.5 -93.5v-47q0 -60 27.5 -93
t77.5 -33q35 0 57.5 17t37.5 46l40 -23q-17 -37 -51 -61t-85 -24z" />
    <glyph glyph-name="ordfeminine" unicode="&#xaa;" horiz-adv-x="381" 
d="M308 356q-44 0 -44 40v11h-4q-11 -22 -37.5 -39.5t-73.5 -17.5q-53 0 -81 26t-28 68q0 100 140 100h81v39q0 42 -21.5 62t-62.5 20q-34 0 -58.5 -14t-35.5 -40l-32 24q14 28 45.5 48.5t82.5 20.5q60 0 94 -30.5t34 -87.5v-189h41v-41h-40zM158 387q20 0 38.5 5t33 14
t23 22.5t8.5 31.5v49h-82q-92 0 -92 -55v-11q0 -28 18.5 -42t52.5 -14z" />
    <glyph glyph-name="guillemotleft" unicode="&#xab;" horiz-adv-x="497" 
d="M230 90l-195 171v54l195 171l18 -39l-156 -159l156 -159zM428 90l-195 171v54l195 171l18 -39l-156 -159l156 -159z" />
    <glyph glyph-name="logicalnot" unicode="&#xac;" 
d="M478 88v193h-413v49h464v-242h-51z" />
    <glyph glyph-name="uni00AD" unicode="&#xad;" horiz-adv-x="397" 
d="M74 274v61h249v-61h-249z" />
    <glyph glyph-name="registered" unicode="&#xae;" horiz-adv-x="472" 
d="M236 298q-42 0 -78 15.5t-62.5 43t-42 65t-15.5 82.5t15.5 82.5t42 65t62.5 43t78 15.5t78 -15.5t62.5 -43t42 -65t15.5 -82.5t-15.5 -82.5t-42 -65t-62.5 -43t-78 -15.5zM236 329q36 0 66 13t52 35.5t34 52.5t12 63v22q0 33 -12 63t-34 52.5t-52 35.5t-66 13t-66 -13
t-52 -35.5t-34 -52.5t-12 -63v-22q0 -33 12 -63t34 -52.5t52 -35.5t66 -13zM196 396h-31v211h86q30 0 47 -16.5t17 -46.5q0 -26 -12 -40.5t-30 -19.5l50 -88h-34l-47 85h-46v-85zM250 506q32 0 32 29v16q0 30 -32 30h-54v-75h54z" />
    <glyph glyph-name="macron" unicode="&#xaf;" 
d="M164 694h272v-49h-272v49z" />
    <glyph glyph-name="degree" unicode="&#xb0;" horiz-adv-x="466" 
d="M233 370q-36 0 -66 13t-52.5 36t-35 54t-12.5 67t12.5 67t35 54t52.5 36t66 13t66 -13t52.5 -36t35 -54t12.5 -67t-12.5 -67t-35 -54t-52.5 -36t-66 -13zM233 416q27 0 48 10t36 26.5t23 39t8 48.5q0 25 -8 48t-23 39.5t-36 26.5t-48 10t-48 -10t-36 -26.5t-23 -39.5
t-8 -48q0 -26 8 -48.5t23 -39t36 -26.5t48 -10z" />
    <glyph glyph-name="plusminus" unicode="&#xb1;" 
d="M273 137v213h-208v49h208v213h54v-213h208v-49h-208v-213h-54zM65 0v49h470v-49h-470z" />
    <glyph glyph-name="twosuperior" unicode="&#xb2;" horiz-adv-x="346" 
d="M307 329h-266v43l133 108q35 29 53 55.5t18 54.5v8q0 30 -19.5 49t-57.5 19q-39 0 -60 -18.5t-32 -47.5l-39 14q12 36 44 63t90 27q60 0 91.5 -30.5t31.5 -76.5q0 -42 -25 -75.5t-70 -68.5l-109 -87h217v-37z" />
    <glyph glyph-name="threesuperior" unicode="&#xb3;" horiz-adv-x="346" 
d="M157 539q45 0 65 17t20 46v5q0 28 -20 44t-56 16q-33 0 -54 -12t-36 -34l-32 25q17 24 46.5 41t76.5 17q56 0 89.5 -25t33.5 -70q0 -36 -21.5 -57t-53.5 -28v-3q36 -6 59 -28.5t23 -61.5q0 -49 -36.5 -78.5t-99.5 -29.5q-51 0 -81.5 18.5t-48.5 43.5l34 25q16 -22 37 -36
t59 -14q43 0 65.5 19t22.5 52v6q0 32 -21 48.5t-66 16.5h-48v37h43z" />
    <glyph glyph-name="acute" unicode="&#xb4;" 
d="M297 586l-37 18l95 164l52 -26z" />
    <glyph glyph-name="mu" unicode="&#xb5;" horiz-adv-x="570" 
d="M93 -200v712h57v-318q0 -79 34 -117t98 -38q27 0 51.5 7t44 21t31 36t11.5 51v358h57v-512h-57v81h-3q-7 -18 -19 -35t-30 -29.5t-42.5 -20.5t-56.5 -8q-91 0 -122 67h-3l6 -100v-155h-57z" />
    <glyph glyph-name="paragraph" unicode="&#xb6;" horiz-adv-x="628" 
d="M248 312q-41 0 -76.5 14.5t-62 40t-42 61t-15.5 77.5t15.5 77t42 61t62 40.5t76.5 14.5h292v-48h-68v-799h-53v799h-118v-799h-53v461z" />
    <glyph glyph-name="periodcentered" unicode="&#xb7;" horiz-adv-x="316" 
d="M158 255q-25 0 -36.5 12.5t-11.5 32.5v11q0 20 11.5 32.5t36.5 12.5q24 0 36 -12.5t12 -32.5v-11q0 -20 -12 -32.5t-36 -12.5z" />
    <glyph glyph-name="cedilla" unicode="&#xb8;" 
d="M311 -205q-36 0 -59 11.5t-33 25.5l28 31q10 -12 25.5 -20t38.5 -8q22 0 36 9.5t14 29.5q0 16 -13 27t-52 16l-31 3l19 93h38l-17 -79l2 -2q20 5 36 5q29 0 48.5 -16.5t19.5 -47.5q0 -37 -29 -57.5t-71 -20.5z" />
    <glyph glyph-name="onesuperior" unicode="&#xb9;" horiz-adv-x="364" 
d="M57 329v37h117v295h-5l-104 -95l-26 27l112 105h69v-332h106v-37h-269z" />
    <glyph glyph-name="ordmasculine" unicode="&#xba;" horiz-adv-x="386" 
d="M193 350q-70 0 -109 47.5t-39 129.5t39 129.5t109 47.5t109 -47.5t39 -129.5t-39 -129.5t-109 -47.5zM193 389q49 0 74 32t25 80v52q0 48 -25 80t-74 32t-74 -32t-25 -80v-52q0 -48 25 -80t74 -32z" />
    <glyph glyph-name="guillemotright" unicode="&#xbb;" horiz-adv-x="497" 
d="M51 129l156 159l-156 159l18 39l195 -171v-54l-195 -171zM249 129l156 159l-156 159l18 39l195 -171v-54l-195 -171z" />
    <glyph glyph-name="onequarter" unicode="&#xbc;" horiz-adv-x="851" 
d="M57 329v37h117v295h-5l-104 -95l-26 27l112 105h69v-332h106v-37h-269zM184 0l471 698h49l-471 -698h-49zM723 0v79h-198v39l180 251h62v-254h60v-36h-60v-79h-44zM723 327h-3l-154 -212h157v212z" />
    <glyph glyph-name="onehalf" unicode="&#xbd;" horiz-adv-x="865" 
d="M57 329v37h117v295h-5l-104 -95l-26 27l112 105h69v-332h106v-37h-269zM184 0l471 698h49l-471 -698h-49zM826 0h-266v43l133 108q35 29 53 56t18 54v8q0 30 -19.5 49t-57.5 19q-39 0 -60 -18.5t-32 -47.5l-39 14q12 36 44 63t90 27q60 0 91.5 -30.5t31.5 -76.5
q0 -42 -25 -75.5t-70 -68.5l-109 -87h217v-37z" />
    <glyph glyph-name="threequarters" unicode="&#xbe;" horiz-adv-x="829" 
d="M157 539q45 0 65 17t20 46v5q0 28 -20 44t-56 16q-33 0 -54 -12t-36 -34l-32 25q17 24 46.5 41t76.5 17q56 0 89.5 -25t33.5 -70q0 -36 -21.5 -57t-53.5 -28v-3q36 -6 59 -28.5t23 -61.5q0 -49 -36.5 -78.5t-99.5 -29.5q-51 0 -81.5 18.5t-48.5 43.5l34 25q16 -22 37 -36
t59 -14q43 0 65.5 19t22.5 52v6q0 32 -21 48.5t-66 16.5h-48v37h43zM162 0l471 698h49l-471 -698h-49zM701 0v79h-198v39l180 251h62v-254h60v-36h-60v-79h-44zM701 327h-3l-154 -212h157v212z" />
    <glyph glyph-name="questiondown" unicode="&#xbf;" horiz-adv-x="463" 
d="M231 -198q-91 0 -143 50t-52 135q0 46 15 81.5t41.5 60.5t61 40t73.5 21v126h55v-167q-88 -3 -136 -43t-48 -107v-19q0 -57 36 -91.5t99 -34.5q64 0 102 34t52 91l53 -19q-9 -34 -26.5 -63t-43 -50t-60.5 -33t-79 -12zM256 420q-25 0 -36.5 12.5t-11.5 32.5v11
q0 20 11.5 32.5t36.5 12.5q24 0 36 -12.5t12 -32.5v-11q0 -20 -12 -32.5t-36 -12.5z" />
    <glyph glyph-name="Agrave" unicode="&#xc0;" horiz-adv-x="625" 
d="M536 0l-76 217h-297l-76 -217h-60l247 698h77l248 -698h-63zM313 641h-4l-131 -372h266zM206 916l52 26l95 -164l-38 -18z" />
    <glyph glyph-name="Aacute" unicode="&#xc1;" horiz-adv-x="625" 
d="M536 0l-76 217h-297l-76 -217h-60l247 698h77l248 -698h-63zM313 641h-4l-131 -372h266zM310 760l-37 18l95 164l52 -26z" />
    <glyph glyph-name="Acircumflex" unicode="&#xc2;" horiz-adv-x="625" 
d="M536 0l-76 217h-297l-76 -217h-60l247 698h77l248 -698h-63zM313 641h-4l-131 -372h266zM348 930l118 -139l-32 -23l-121 120l-121 -120l-32 23l118 139h70z" />
    <glyph glyph-name="Atilde" unicode="&#xc3;" horiz-adv-x="625" 
d="M536 0l-76 217h-297l-76 -217h-60l247 698h77l248 -698h-63zM313 641h-4l-131 -372h266zM385 792q-23 0 -41 8.5t-38 19.5q-23 13 -38.5 18.5t-29.5 5.5q-17 0 -31 -7.5t-30 -21.5l-25 29q16 20 38 34t51 14q23 0 41 -8.5t38 -19.5q23 -13 38.5 -18.5t29.5 -5.5
q17 0 31 7.5t30 21.5l25 -29q-16 -20 -38 -34t-51 -14z" />
    <glyph glyph-name="Adieresis" unicode="&#xc4;" horiz-adv-x="625" 
d="M536 0l-76 217h-297l-76 -217h-60l247 698h77l248 -698h-63zM313 641h-4l-131 -372h266zM221 800q-21 0 -30.5 10.5t-9.5 26.5v10q0 16 9.5 26.5t30.5 10.5q20 0 29.5 -10.5t9.5 -26.5v-10q0 -16 -9.5 -26.5t-29.5 -10.5zM405 800q-20 0 -29.5 10.5t-9.5 26.5v10
q0 16 9.5 26.5t29.5 10.5q21 0 30.5 -10.5t9.5 -26.5v-10q0 -16 -9.5 -26.5t-30.5 -10.5z" />
    <glyph glyph-name="Aring" unicode="&#xc5;" horiz-adv-x="625" 
d="M536 0l-76 217h-297l-76 -217h-60l247 698h77l248 -698h-63zM313 641h-4l-131 -372h266zM313 755q-46 0 -76 29.5t-30 76.5q0 46 30 75.5t76 29.5t76 -29.5t30 -75.5q0 -47 -30 -76.5t-76 -29.5zM313 792q29 0 46 16t17 44v17q0 29 -17 44.5t-46 15.5t-46 -15.5
t-17 -44.5v-17q0 -28 17 -44t46 -16z" />
    <glyph glyph-name="AE" unicode="&#xc6;" horiz-adv-x="888" 
d="M413 216h-235l-113 -216h-62l367 698h452v-53h-349v-264h332v-53h-332v-275h349v-53h-409v216zM401 645l-198 -376h210v376h-12z" />
    <glyph glyph-name="Ccedilla" unicode="&#xc7;" horiz-adv-x="617" 
d="M335 656q-98 0 -153 -70t-55 -200v-79q0 -129 55 -197t153 -68q70 0 117 35.5t70 95.5l49 -29q-29 -68 -84.5 -109.5t-133.5 -45.5l-12 -55l2 -2q20 5 36 5q29 0 48.5 -16.5t19.5 -47.5q0 -37 -29 -57.5t-71 -20.5q-36 0 -59 11.5t-33 25.5l28 31q10 -12 25.5 -20
t38.5 -8q22 0 36.5 9.5t14.5 29.5q0 16 -13.5 27t-52.5 16l-31 3l14 69q-120 6 -186 96t-66 262q0 177 71 270t201 93q84 0 141.5 -40t89.5 -109l-49 -29q-23 57 -69.5 90.5t-112.5 33.5z" />
    <glyph glyph-name="Egrave" unicode="&#xc8;" horiz-adv-x="574" 
d="M99 0v698h408v-53h-348v-264h331v-53h-331v-275h348v-53h-408zM195 916l52 26l95 -164l-38 -18z" />
    <glyph glyph-name="Eacute" unicode="&#xc9;" horiz-adv-x="574" 
d="M99 0v698h408v-53h-348v-264h331v-53h-331v-275h348v-53h-408zM299 760l-37 18l95 164l52 -26z" />
    <glyph glyph-name="Ecircumflex" unicode="&#xca;" horiz-adv-x="574" 
d="M99 0v698h408v-53h-348v-264h331v-53h-331v-275h348v-53h-408zM337 930l118 -139l-32 -23l-121 120l-121 -120l-32 23l118 139h70z" />
    <glyph glyph-name="Edieresis" unicode="&#xcb;" horiz-adv-x="574" 
d="M99 0v698h408v-53h-348v-264h331v-53h-331v-275h348v-53h-408zM210 800q-21 0 -30.5 10.5t-9.5 26.5v10q0 16 9.5 26.5t30.5 10.5q20 0 29.5 -10.5t9.5 -26.5v-10q0 -16 -9.5 -26.5t-29.5 -10.5zM394 800q-20 0 -29.5 10.5t-9.5 26.5v10q0 16 9.5 26.5t29.5 10.5
q21 0 30.5 -10.5t9.5 -26.5v-10q0 -16 -9.5 -26.5t-30.5 -10.5z" />
    <glyph glyph-name="Igrave" unicode="&#xcc;" horiz-adv-x="390" 
d="M63 0v50h102v598h-102v50h264v-50h-102v-598h102v-50h-264zM88 916l52 26l95 -164l-38 -18z" />
    <glyph glyph-name="Iacute" unicode="&#xcd;" horiz-adv-x="390" 
d="M63 0v50h102v598h-102v50h264v-50h-102v-598h102v-50h-264zM192 760l-37 18l95 164l52 -26z" />
    <glyph glyph-name="Icircumflex" unicode="&#xce;" horiz-adv-x="390" 
d="M63 0v50h102v598h-102v50h264v-50h-102v-598h102v-50h-264zM230 930l118 -139l-32 -23l-121 120l-121 -120l-32 23l118 139h70z" />
    <glyph glyph-name="Idieresis" unicode="&#xcf;" horiz-adv-x="390" 
d="M63 0v50h102v598h-102v50h264v-50h-102v-598h102v-50h-264zM103 800q-21 0 -30.5 10.5t-9.5 26.5v10q0 16 9.5 26.5t30.5 10.5q20 0 29.5 -10.5t9.5 -26.5v-10q0 -16 -9.5 -26.5t-29.5 -10.5zM287 800q-20 0 -29.5 10.5t-9.5 26.5v10q0 16 9.5 26.5t29.5 10.5
q21 0 30.5 -10.5t9.5 -26.5v-10q0 -16 -9.5 -26.5t-30.5 -10.5z" />
    <glyph glyph-name="Eth" unicode="&#xd0;" horiz-adv-x="669" 
d="M102 346h-81v46h81v306h222q135 0 208.5 -87t73.5 -262t-73.5 -262t-208.5 -87h-222v346zM325 53q103 0 160 66.5t57 183.5v92q0 117 -57 183.5t-160 66.5h-163v-253h150v-46h-150v-293h163z" />
    <glyph glyph-name="Ntilde" unicode="&#xd1;" horiz-adv-x="701" 
d="M160 616h-3v-616h-58v698h75l367 -616h3v616h58v-698h-75zM422 792q-23 0 -41 8.5t-38 19.5q-23 13 -38.5 18.5t-29.5 5.5q-17 0 -31 -7.5t-30 -21.5l-25 29q16 20 38 34t51 14q23 0 41 -8.5t38 -19.5q23 -13 38.5 -18.5t29.5 -5.5q17 0 31 7.5t30 21.5l25 -29
q-16 -20 -38 -34t-51 -14z" />
    <glyph glyph-name="Ograve" unicode="&#xd2;" horiz-adv-x="697" 
d="M349 -12q-134 0 -210 91.5t-76 269.5t76 269.5t210 91.5q133 0 209 -92t76 -269t-76 -269t-209 -92zM349 42q50 0 90.5 17.5t69.5 51.5t45 83t16 111v88q0 62 -16 111t-45 82.5t-69.5 51.5t-90.5 18t-91 -18t-70 -51.5t-45 -82.5t-16 -111v-88q0 -62 16 -111t45 -83
t70 -51.5t91 -17.5zM242 916l52 26l95 -164l-38 -18z" />
    <glyph glyph-name="Oacute" unicode="&#xd3;" horiz-adv-x="697" 
d="M349 -12q-134 0 -210 91.5t-76 269.5t76 269.5t210 91.5q133 0 209 -92t76 -269t-76 -269t-209 -92zM349 42q50 0 90.5 17.5t69.5 51.5t45 83t16 111v88q0 62 -16 111t-45 82.5t-69.5 51.5t-90.5 18t-91 -18t-70 -51.5t-45 -82.5t-16 -111v-88q0 -62 16 -111t45 -83
t70 -51.5t91 -17.5zM346 760l-37 18l95 164l52 -26z" />
    <glyph glyph-name="Ocircumflex" unicode="&#xd4;" horiz-adv-x="697" 
d="M349 -12q-134 0 -210 91.5t-76 269.5t76 269.5t210 91.5q133 0 209 -92t76 -269t-76 -269t-209 -92zM349 42q50 0 90.5 17.5t69.5 51.5t45 83t16 111v88q0 62 -16 111t-45 82.5t-69.5 51.5t-90.5 18t-91 -18t-70 -51.5t-45 -82.5t-16 -111v-88q0 -62 16 -111t45 -83
t70 -51.5t91 -17.5zM384 930l118 -139l-32 -23l-121 120l-121 -120l-32 23l118 139h70z" />
    <glyph glyph-name="Otilde" unicode="&#xd5;" horiz-adv-x="697" 
d="M349 -12q-134 0 -210 91.5t-76 269.5t76 269.5t210 91.5q133 0 209 -92t76 -269t-76 -269t-209 -92zM349 42q50 0 90.5 17.5t69.5 51.5t45 83t16 111v88q0 62 -16 111t-45 82.5t-69.5 51.5t-90.5 18t-91 -18t-70 -51.5t-45 -82.5t-16 -111v-88q0 -62 16 -111t45 -83
t70 -51.5t91 -17.5zM421 792q-23 0 -41 8.5t-38 19.5q-23 13 -38.5 18.5t-29.5 5.5q-17 0 -31 -7.5t-30 -21.5l-25 29q16 20 38 34t51 14q23 0 41 -8.5t38 -19.5q23 -13 38.5 -18.5t29.5 -5.5q17 0 31 7.5t30 21.5l25 -29q-16 -20 -38 -34t-51 -14z" />
    <glyph glyph-name="Odieresis" unicode="&#xd6;" horiz-adv-x="697" 
d="M349 -12q-134 0 -210 91.5t-76 269.5t76 269.5t210 91.5q133 0 209 -92t76 -269t-76 -269t-209 -92zM349 42q50 0 90.5 17.5t69.5 51.5t45 83t16 111v88q0 62 -16 111t-45 82.5t-69.5 51.5t-90.5 18t-91 -18t-70 -51.5t-45 -82.5t-16 -111v-88q0 -62 16 -111t45 -83
t70 -51.5t91 -17.5zM257 800q-21 0 -30.5 10.5t-9.5 26.5v10q0 16 9.5 26.5t30.5 10.5q20 0 29.5 -10.5t9.5 -26.5v-10q0 -16 -9.5 -26.5t-29.5 -10.5zM441 800q-20 0 -29.5 10.5t-9.5 26.5v10q0 16 9.5 26.5t29.5 10.5q21 0 30.5 -10.5t9.5 -26.5v-10q0 -16 -9.5 -26.5
t-30.5 -10.5z" />
    <glyph glyph-name="multiply" unicode="&#xd7;" 
d="M300 270l-168 -170l-35 35l168 170l-168 170l35 35l168 -170l168 170l35 -35l-168 -170l168 -170l-35 -35z" />
    <glyph glyph-name="Oslash" unicode="&#xd8;" horiz-adv-x="697" 
d="M349 -12q-109 0 -179 62l-62 -90l-42 27l69 98q-72 93 -72 264q0 178 76 269.5t210 91.5q106 0 178 -61l62 89l42 -27l-69 -98q72 -93 72 -264q0 -177 -76 -269t-209 -92zM127 305q0 -52 11 -94.5t31 -74.5l325 466q-56 54 -145 54q-50 0 -91 -18t-70 -51.5t-45 -82.5
t-16 -111v-88zM570 393q0 104 -42 169l-325 -466q55 -54 146 -54q50 0 90.5 17.5t69.5 51.5t45 83t16 111v88z" />
    <glyph glyph-name="Ugrave" unicode="&#xd9;" horiz-adv-x="668" 
d="M153 698v-431q0 -58 9 -100.5t30 -70t56 -41t86 -13.5t85.5 13.5t56 41t30.5 70t9 100.5v431h60v-418q0 -77 -13 -132t-41.5 -90.5t-75 -52.5t-113.5 -17t-113 17t-74 52.5t-40 90.5t-12 132v418h60zM225 916l52 26l95 -164l-38 -18z" />
    <glyph glyph-name="Uacute" unicode="&#xda;" horiz-adv-x="668" 
d="M153 698v-431q0 -58 9 -100.5t30 -70t56 -41t86 -13.5t85.5 13.5t56 41t30.5 70t9 100.5v431h60v-418q0 -77 -13 -132t-41.5 -90.5t-75 -52.5t-113.5 -17t-113 17t-74 52.5t-40 90.5t-12 132v418h60zM329 760l-37 18l95 164l52 -26z" />
    <glyph glyph-name="Ucircumflex" unicode="&#xdb;" horiz-adv-x="668" 
d="M153 698v-431q0 -58 9 -100.5t30 -70t56 -41t86 -13.5t85.5 13.5t56 41t30.5 70t9 100.5v431h60v-418q0 -77 -13 -132t-41.5 -90.5t-75 -52.5t-113.5 -17t-113 17t-74 52.5t-40 90.5t-12 132v418h60zM367 930l118 -139l-32 -23l-121 120l-121 -120l-32 23l118 139h70z
" />
    <glyph glyph-name="Udieresis" unicode="&#xdc;" horiz-adv-x="668" 
d="M153 698v-431q0 -58 9 -100.5t30 -70t56 -41t86 -13.5t85.5 13.5t56 41t30.5 70t9 100.5v431h60v-418q0 -77 -13 -132t-41.5 -90.5t-75 -52.5t-113.5 -17t-113 17t-74 52.5t-40 90.5t-12 132v418h60zM240 800q-21 0 -30.5 10.5t-9.5 26.5v10q0 16 9.5 26.5t30.5 10.5
q20 0 29.5 -10.5t9.5 -26.5v-10q0 -16 -9.5 -26.5t-29.5 -10.5zM424 800q-20 0 -29.5 10.5t-9.5 26.5v10q0 16 9.5 26.5t29.5 10.5q21 0 30.5 -10.5t9.5 -26.5v-10q0 -16 -9.5 -26.5t-30.5 -10.5z" />
    <glyph glyph-name="Yacute" unicode="&#xdd;" horiz-adv-x="575" 
d="M257 0v283l-241 415h68l202 -352h3l202 352h68l-242 -412v-286h-60zM285 760l-37 18l95 164l52 -26z" />
    <glyph glyph-name="Thorn" unicode="&#xde;" horiz-adv-x="601" 
d="M99 0v698h60v-149h214q91 0 139 -52.5t48 -142.5t-48 -142.5t-139 -52.5h-214v-159h-60zM159 212h214q60 0 91.5 33.5t31.5 85.5v46q0 52 -31.5 85.5t-91.5 33.5h-214v-284z" />
    <glyph glyph-name="germandbls" unicode="&#xdf;" horiz-adv-x="642" 
d="M606 140q0 -72 -46 -112t-127 -40q-62 0 -106.5 21.5t-76.5 66.5l40 33q30 -38 64.5 -55t81.5 -17q56 0 85.5 25t29.5 72q0 40 -19.5 62t-65.5 33l-36 8q-30 7 -55 17t-43 26t-28.5 39.5t-10.5 56.5q0 69 51.5 104t136.5 36v9q0 88 -38 133t-114 45t-113.5 -45
t-37.5 -133v-525h-57v462h-88v50h88v9q0 52 14 95t40.5 73t65 46.5t88.5 16.5q49 0 88 -16.5t65.5 -46.5t40.5 -73t14 -95v-50h-35q-70 0 -112 -21.5t-42 -70.5q0 -42 22.5 -61t67.5 -30l35 -8q67 -17 100 -48.5t33 -91.5z" />
    <glyph glyph-name="agrave" unicode="&#xe0;" horiz-adv-x="527" 
d="M445 0q-33 0 -48 17t-17 46v18h-5q-17 -43 -56 -68t-99 -25q-81 0 -125 39.5t-44 111.5q0 68 48.5 108t159.5 40h118v60q0 127 -131 127q-51 0 -85 -21.5t-55 -61.5l-36 30q21 45 64.5 74t113.5 29q90 0 138 -45t48 -126v-303h69v-50h-58zM228 37q31 0 58 8t47.5 22.5
t32 35t11.5 46.5v95h-120q-77 0 -111.5 -24.5t-34.5 -67.5v-24q0 -45 32 -68t85 -23zM145 742l52 26l95 -164l-38 -18z" />
    <glyph glyph-name="aacute" unicode="&#xe1;" horiz-adv-x="527" 
d="M445 0q-33 0 -48 17t-17 46v18h-5q-17 -43 -56 -68t-99 -25q-81 0 -125 39.5t-44 111.5q0 68 48.5 108t159.5 40h118v60q0 127 -131 127q-51 0 -85 -21.5t-55 -61.5l-36 30q21 45 64.5 74t113.5 29q90 0 138 -45t48 -126v-303h69v-50h-58zM228 37q31 0 58 8t47.5 22.5
t32 35t11.5 46.5v95h-120q-77 0 -111.5 -24.5t-34.5 -67.5v-24q0 -45 32 -68t85 -23zM249 586l-37 18l95 164l52 -26z" />
    <glyph glyph-name="acircumflex" unicode="&#xe2;" horiz-adv-x="527" 
d="M445 0q-33 0 -48 17t-17 46v18h-5q-17 -43 -56 -68t-99 -25q-81 0 -125 39.5t-44 111.5q0 68 48.5 108t159.5 40h118v60q0 127 -131 127q-51 0 -85 -21.5t-55 -61.5l-36 30q21 45 64.5 74t113.5 29q90 0 138 -45t48 -126v-303h69v-50h-58zM228 37q31 0 58 8t47.5 22.5
t32 35t11.5 46.5v95h-120q-77 0 -111.5 -24.5t-34.5 -67.5v-24q0 -45 32 -68t85 -23zM287 756l118 -139l-32 -23l-121 121l-121 -121l-32 23l118 139h70z" />
    <glyph glyph-name="atilde" unicode="&#xe3;" horiz-adv-x="527" 
d="M445 0q-33 0 -48 17t-17 46v18h-5q-17 -43 -56 -68t-99 -25q-81 0 -125 39.5t-44 111.5q0 68 48.5 108t159.5 40h118v60q0 127 -131 127q-51 0 -85 -21.5t-55 -61.5l-36 30q21 45 64.5 74t113.5 29q90 0 138 -45t48 -126v-303h69v-50h-58zM228 37q31 0 58 8t47.5 22.5
t32 35t11.5 46.5v95h-120q-77 0 -111.5 -24.5t-34.5 -67.5v-24q0 -45 32 -68t85 -23zM324 618q-23 0 -41 8t-38 20q-23 14 -38.5 19.5t-29.5 5.5q-17 0 -31 -8t-30 -22l-25 29q16 20 38 34t51 14q23 0 41 -8t38 -20q23 -14 38.5 -19.5t29.5 -5.5q17 0 31 8t30 22l25 -29
q-16 -20 -38 -34t-51 -14z" />
    <glyph glyph-name="adieresis" unicode="&#xe4;" horiz-adv-x="527" 
d="M445 0q-33 0 -48 17t-17 46v18h-5q-17 -43 -56 -68t-99 -25q-81 0 -125 39.5t-44 111.5q0 68 48.5 108t159.5 40h118v60q0 127 -131 127q-51 0 -85 -21.5t-55 -61.5l-36 30q21 45 64.5 74t113.5 29q90 0 138 -45t48 -126v-303h69v-50h-58zM228 37q31 0 58 8t47.5 22.5
t32 35t11.5 46.5v95h-120q-77 0 -111.5 -24.5t-34.5 -67.5v-24q0 -45 32 -68t85 -23zM160 627q-21 0 -30 10t-9 26v10q0 16 9 26t30 10q20 0 29.5 -10t9.5 -26v-10q0 -16 -9.5 -26t-29.5 -10zM344 627q-20 0 -29.5 10t-9.5 26v10q0 16 9.5 26t29.5 10q21 0 30 -10t9 -26v-10
q0 -16 -9 -26t-30 -10z" />
    <glyph glyph-name="aring" unicode="&#xe5;" horiz-adv-x="527" 
d="M445 0q-33 0 -48 17t-17 46v18h-5q-17 -43 -56 -68t-99 -25q-81 0 -125 39.5t-44 111.5q0 68 48.5 108t159.5 40h118v60q0 127 -131 127q-51 0 -85 -21.5t-55 -61.5l-36 30q21 45 64.5 74t113.5 29q90 0 138 -45t48 -126v-303h69v-50h-58zM228 37q31 0 58 8t47.5 22.5
t32 35t11.5 46.5v95h-120q-77 0 -111.5 -24.5t-34.5 -67.5v-24q0 -45 32 -68t85 -23zM252 581q-46 0 -76 29.5t-30 76.5q0 46 30 75.5t76 29.5t76 -29.5t30 -75.5q0 -47 -30 -76.5t-76 -29.5zM252 618q29 0 46 16t17 44v17q0 29 -17 44.5t-46 15.5t-46 -15.5t-17 -44.5v-17
q0 -28 17 -44t46 -16z" />
    <glyph glyph-name="ae" unicode="&#xe6;" horiz-adv-x="863" 
d="M255 245q-77 -1 -111.5 -25.5t-34.5 -67.5v-24q0 -45 31.5 -68t85.5 -23q31 0 58 8t47 22.5t32 35t12 46.5v96h-120zM749 289v8q0 40 -11 73.5t-31.5 56.5t-49 36t-62.5 13q-37 0 -67 -13.5t-51.5 -37.5t-33 -57.5t-11.5 -73.5v-5h317zM599 38q111 0 155 102l42 -27
q-24 -57 -74.5 -91t-119.5 -34q-39 0 -71 10.5t-56.5 27.5t-41 39t-23.5 46h-4q-5 -23 -20 -45.5t-39.5 -39.5t-57 -27.5t-72.5 -10.5q-78 0 -123 39.5t-45 109.5t49 111t159 41h118v58q0 64 -33 96t-96 32q-53 0 -86.5 -21t-55.5 -63l-36 30q21 44 64.5 73.5t114.5 29.5
q41 0 70 -11t48.5 -28.5t29.5 -39.5t14 -44h4q7 23 23.5 45t40.5 39.5t55 28t68 10.5q48 0 87 -18.5t66.5 -51.5t42.5 -79.5t15 -102.5v-27h-379v-25q0 -40 11.5 -73.5t33 -57.5t52.5 -37.5t70 -13.5z" />
    <glyph glyph-name="ccedilla" unicode="&#xe7;" horiz-adv-x="496" 
d="M273 524q71 0 115 -31t67 -81l-48 -25q-18 42 -50.5 64t-83.5 22q-78 0 -119 -50t-41 -131v-72q0 -81 41 -131t119 -50q53 0 89 23t58 66l42 -28q-23 -48 -65.5 -78t-106.5 -33l-12 -55l2 -2q20 5 36 5q29 0 48.5 -16.5t19.5 -47.5q0 -37 -29 -57.5t-71 -20.5
q-36 0 -59 11.5t-33 25.5l28 31q10 -12 25.5 -20t38.5 -8q22 0 36.5 9.5t14.5 29.5q0 16 -13.5 27t-52.5 16l-31 3l14 69q-97 7 -148.5 76.5t-51.5 190.5q0 128 57.5 198t163.5 70z" />
    <glyph glyph-name="egrave" unicode="&#xe8;" horiz-adv-x="543" 
d="M276 -12q-51 0 -92.5 18t-71 52.5t-45 84.5t-15.5 113t15.5 112.5t45 84t70.5 53t92 18.5q49 0 89 -18.5t68 -51.5t43.5 -79.5t15.5 -102.5v-27h-379v-25q0 -40 11.5 -73.5t33 -57.5t52.5 -37.5t70 -13.5q112 0 155 103l42 -28q-24 -57 -75.5 -91t-124.5 -34zM275 476
q-37 0 -67 -13.5t-51.5 -37.5t-33 -57.5t-11.5 -73.5v-5h317v8q0 40 -11 73.5t-31.5 56.5t-49 36t-62.5 13zM169 742l52 26l95 -164l-38 -18z" />
    <glyph glyph-name="eacute" unicode="&#xe9;" horiz-adv-x="543" 
d="M276 -12q-51 0 -92.5 18t-71 52.5t-45 84.5t-15.5 113t15.5 112.5t45 84t70.5 53t92 18.5q49 0 89 -18.5t68 -51.5t43.5 -79.5t15.5 -102.5v-27h-379v-25q0 -40 11.5 -73.5t33 -57.5t52.5 -37.5t70 -13.5q112 0 155 103l42 -28q-24 -57 -75.5 -91t-124.5 -34zM275 476
q-37 0 -67 -13.5t-51.5 -37.5t-33 -57.5t-11.5 -73.5v-5h317v8q0 40 -11 73.5t-31.5 56.5t-49 36t-62.5 13zM273 586l-37 18l95 164l52 -26z" />
    <glyph glyph-name="ecircumflex" unicode="&#xea;" horiz-adv-x="543" 
d="M276 -12q-51 0 -92.5 18t-71 52.5t-45 84.5t-15.5 113t15.5 112.5t45 84t70.5 53t92 18.5q49 0 89 -18.5t68 -51.5t43.5 -79.5t15.5 -102.5v-27h-379v-25q0 -40 11.5 -73.5t33 -57.5t52.5 -37.5t70 -13.5q112 0 155 103l42 -28q-24 -57 -75.5 -91t-124.5 -34zM275 476
q-37 0 -67 -13.5t-51.5 -37.5t-33 -57.5t-11.5 -73.5v-5h317v8q0 40 -11 73.5t-31.5 56.5t-49 36t-62.5 13zM311 756l118 -139l-32 -23l-121 121l-121 -121l-32 23l118 139h70z" />
    <glyph glyph-name="edieresis" unicode="&#xeb;" horiz-adv-x="543" 
d="M276 -12q-51 0 -92.5 18t-71 52.5t-45 84.5t-15.5 113t15.5 112.5t45 84t70.5 53t92 18.5q49 0 89 -18.5t68 -51.5t43.5 -79.5t15.5 -102.5v-27h-379v-25q0 -40 11.5 -73.5t33 -57.5t52.5 -37.5t70 -13.5q112 0 155 103l42 -28q-24 -57 -75.5 -91t-124.5 -34zM275 476
q-37 0 -67 -13.5t-51.5 -37.5t-33 -57.5t-11.5 -73.5v-5h317v8q0 40 -11 73.5t-31.5 56.5t-49 36t-62.5 13zM184 627q-21 0 -30 10t-9 26v10q0 16 9 26t30 10q20 0 29.5 -10t9.5 -26v-10q0 -16 -9.5 -26t-29.5 -10zM368 627q-20 0 -29.5 10t-9.5 26v10q0 16 9.5 26t29.5 10
q21 0 30 -10t9 -26v-10q0 -16 -9 -26t-30 -10z" />
    <glyph glyph-name="igrave" unicode="&#xec;" horiz-adv-x="243" 
d="M93 0v512h57v-512h-57zM15 742l52 26l95 -164l-38 -18z" />
    <glyph glyph-name="iacute" unicode="&#xed;" horiz-adv-x="243" 
d="M93 0v512h57v-512h-57zM119 586l-37 18l95 164l52 -26z" />
    <glyph glyph-name="icircumflex" unicode="&#xee;" horiz-adv-x="243" 
d="M93 0v512h57v-512h-57zM157 756l118 -139l-32 -23l-121 121l-121 -121l-32 23l118 139h70z" />
    <glyph glyph-name="idieresis" unicode="&#xef;" horiz-adv-x="243" 
d="M93 0v512h57v-512h-57zM30 627q-21 0 -30 10t-9 26v10q0 16 9 26t30 10q20 0 29.5 -10t9.5 -26v-10q0 -16 -9.5 -26t-29.5 -10zM214 627q-20 0 -29.5 10t-9.5 26v10q0 16 9.5 26t29.5 10q21 0 30 -10t9 -26v-10q0 -16 -9 -26t-30 -10z" />
    <glyph glyph-name="eth" unicode="&#xf0;" horiz-adv-x="551" 
d="M413 722l-90 -64q33 -32 64 -73.5t55 -91.5t38.5 -108t14.5 -123q0 -67 -16.5 -118.5t-45.5 -85.5t-69.5 -52t-89.5 -18q-51 0 -92 18.5t-70 52t-44.5 81.5t-15.5 107q0 58 15.5 105t44.5 80.5t70 51.5t92 18q50 0 86.5 -22t56.5 -66l4 2q-18 63 -55 115.5t-84 97.5
l-90 -65l-23 31l84 60q-28 23 -60 45t-64 40h89q20 -12 37 -24.5t38 -31.5l96 69zM274 37q36 0 65 12.5t50.5 35.5t33 56t11.5 74v60q0 41 -11.5 74t-32.5 56t-50.5 35.5t-65.5 12.5q-71 0 -115.5 -48t-44.5 -130v-60q0 -41 11.5 -74t32.5 -56t50.5 -35.5t65.5 -12.5z" />
    <glyph glyph-name="ntilde" unicode="&#xf1;" horiz-adv-x="563" 
d="M93 0v512h57v-81h3q17 40 53 66.5t98 26.5q82 0 127.5 -50.5t45.5 -144.5v-329h-57v319q0 78 -33.5 116t-97.5 38q-27 0 -52 -7t-44.5 -21t-31 -35.5t-11.5 -49.5v-360h-57zM359 618q-23 0 -41 8t-38 20q-23 14 -38.5 19.5t-29.5 5.5q-17 0 -31 -8t-30 -22l-25 29
q16 20 38 34t51 14q23 0 41 -8t38 -20q23 -14 38.5 -19.5t29.5 -5.5q17 0 31 8t30 22l25 -29q-16 -20 -38 -34t-51 -14z" />
    <glyph glyph-name="ograve" unicode="&#xf2;" horiz-adv-x="550" 
d="M275 -12q-51 0 -92 18t-70 52.5t-45 84.5t-16 113t16 112.5t45 84t70 53t92 18.5t92 -18.5t70 -53t45 -84t16 -112.5t-16 -113t-45 -84.5t-70 -52.5t-92 -18zM275 39q75 0 118.5 47t43.5 138v64q0 90 -43.5 137.5t-118.5 47.5t-118.5 -47t-43.5 -138v-64
q0 -90 43.5 -137.5t118.5 -47.5zM169 742l52 26l95 -164l-38 -18z" />
    <glyph glyph-name="oacute" unicode="&#xf3;" horiz-adv-x="550" 
d="M275 -12q-51 0 -92 18t-70 52.5t-45 84.5t-16 113t16 112.5t45 84t70 53t92 18.5t92 -18.5t70 -53t45 -84t16 -112.5t-16 -113t-45 -84.5t-70 -52.5t-92 -18zM275 39q75 0 118.5 47t43.5 138v64q0 90 -43.5 137.5t-118.5 47.5t-118.5 -47t-43.5 -138v-64
q0 -90 43.5 -137.5t118.5 -47.5zM273 586l-37 18l95 164l52 -26z" />
    <glyph glyph-name="ocircumflex" unicode="&#xf4;" horiz-adv-x="550" 
d="M275 -12q-51 0 -92 18t-70 52.5t-45 84.5t-16 113t16 112.5t45 84t70 53t92 18.5t92 -18.5t70 -53t45 -84t16 -112.5t-16 -113t-45 -84.5t-70 -52.5t-92 -18zM275 39q75 0 118.5 47t43.5 138v64q0 90 -43.5 137.5t-118.5 47.5t-118.5 -47t-43.5 -138v-64
q0 -90 43.5 -137.5t118.5 -47.5zM311 756l118 -139l-32 -23l-121 121l-121 -121l-32 23l118 139h70z" />
    <glyph glyph-name="otilde" unicode="&#xf5;" horiz-adv-x="550" 
d="M275 -12q-51 0 -92 18t-70 52.5t-45 84.5t-16 113t16 112.5t45 84t70 53t92 18.5t92 -18.5t70 -53t45 -84t16 -112.5t-16 -113t-45 -84.5t-70 -52.5t-92 -18zM275 39q75 0 118.5 47t43.5 138v64q0 90 -43.5 137.5t-118.5 47.5t-118.5 -47t-43.5 -138v-64
q0 -90 43.5 -137.5t118.5 -47.5zM348 618q-23 0 -41 8t-38 20q-23 14 -38.5 19.5t-29.5 5.5q-17 0 -31 -8t-30 -22l-25 29q16 20 38 34t51 14q23 0 41 -8t38 -20q23 -14 38.5 -19.5t29.5 -5.5q17 0 31 8t30 22l25 -29q-16 -20 -38 -34t-51 -14z" />
    <glyph glyph-name="odieresis" unicode="&#xf6;" horiz-adv-x="550" 
d="M275 -12q-51 0 -92 18t-70 52.5t-45 84.5t-16 113t16 112.5t45 84t70 53t92 18.5t92 -18.5t70 -53t45 -84t16 -112.5t-16 -113t-45 -84.5t-70 -52.5t-92 -18zM275 39q75 0 118.5 47t43.5 138v64q0 90 -43.5 137.5t-118.5 47.5t-118.5 -47t-43.5 -138v-64
q0 -90 43.5 -137.5t118.5 -47.5zM184 627q-21 0 -30 10t-9 26v10q0 16 9 26t30 10q20 0 29.5 -10t9.5 -26v-10q0 -16 -9.5 -26t-29.5 -10zM368 627q-20 0 -29.5 10t-9.5 26v10q0 16 9.5 26t29.5 10q21 0 30 -10t9 -26v-10q0 -16 -9 -26t-30 -10z" />
    <glyph glyph-name="divide" unicode="&#xf7;" 
d="M65 281v49h470v-49h-470zM300 63q-28 0 -39.5 11.5t-11.5 28.5v17q0 17 11.5 28t39.5 11t39.5 -11t11.5 -28v-17q0 -17 -11.5 -28.5t-39.5 -11.5zM300 451q-28 0 -39.5 11.5t-11.5 28.5v16q0 17 11.5 28.5t39.5 11.5t39.5 -11.5t11.5 -28.5v-16q0 -17 -11.5 -28.5
t-39.5 -11.5z" />
    <glyph glyph-name="oslash" unicode="&#xf8;" horiz-adv-x="556" 
d="M36 -10l68 84q-23 34 -36 79.5t-13 102.5q0 63 16 112.5t45 84t70 53t92 18.5q87 0 146 -54l65 81l32 -25l-70 -87q24 -34 37 -80t13 -103q0 -63 -16 -113t-45 -84.5t-70 -52.5t-92 -18q-89 0 -147 55l-62 -78zM278 39q75 0 118.5 47t43.5 138v64q0 66 -24 108l-252 -313
q42 -44 114 -44zM116 224q0 -63 23 -107l252 313q-41 43 -113 43q-75 0 -118.5 -47t-43.5 -138v-64z" />
    <glyph glyph-name="ugrave" unicode="&#xf9;" horiz-adv-x="563" 
d="M413 81h-4q-7 -18 -19 -35t-30 -29.5t-42.5 -20.5t-57.5 -8q-82 0 -128 50.5t-46 144.5v329h57v-318q0 -79 34 -117t98 -38q27 0 51.5 7t44 21t31 35.5t11.5 50.5v359h57v-512h-57v81zM172 742l52 26l95 -164l-38 -18z" />
    <glyph glyph-name="uacute" unicode="&#xfa;" horiz-adv-x="563" 
d="M413 81h-4q-7 -18 -19 -35t-30 -29.5t-42.5 -20.5t-57.5 -8q-82 0 -128 50.5t-46 144.5v329h57v-318q0 -79 34 -117t98 -38q27 0 51.5 7t44 21t31 35.5t11.5 50.5v359h57v-512h-57v81zM276 586l-37 18l95 164l52 -26z" />
    <glyph glyph-name="ucircumflex" unicode="&#xfb;" horiz-adv-x="563" 
d="M413 81h-4q-7 -18 -19 -35t-30 -29.5t-42.5 -20.5t-57.5 -8q-82 0 -128 50.5t-46 144.5v329h57v-318q0 -79 34 -117t98 -38q27 0 51.5 7t44 21t31 35.5t11.5 50.5v359h57v-512h-57v81zM314 756l118 -139l-32 -23l-121 121l-121 -121l-32 23l118 139h70z" />
    <glyph glyph-name="udieresis" unicode="&#xfc;" horiz-adv-x="563" 
d="M413 81h-4q-7 -18 -19 -35t-30 -29.5t-42.5 -20.5t-57.5 -8q-82 0 -128 50.5t-46 144.5v329h57v-318q0 -79 34 -117t98 -38q27 0 51.5 7t44 21t31 35.5t11.5 50.5v359h57v-512h-57v81zM187 627q-21 0 -30 10t-9 26v10q0 16 9 26t30 10q20 0 29.5 -10t9.5 -26v-10
q0 -16 -9.5 -26t-29.5 -10zM371 627q-20 0 -29.5 10t-9.5 26v10q0 16 9.5 26t29.5 10q21 0 30 -10t9 -26v-10q0 -16 -9 -26t-30 -10z" />
    <glyph glyph-name="yacute" unicode="&#xfd;" horiz-adv-x="479" 
d="M399 512h58l-237 -656q-12 -32 -29 -44t-56 -12h-58v50h86l49 135l-190 527h60l157 -451h4zM238 586l-37 18l95 164l52 -26z" />
    <glyph glyph-name="thorn" unicode="&#xfe;" horiz-adv-x="574" 
d="M93 740h57v-310h3q19 43 58 68.5t98 25.5q99 0 155 -70t56 -198t-56 -198t-155 -70q-59 0 -97 25.5t-59 68.5h-3v-282h-57v940zM296 39q77 0 120 49t43 132v72q0 83 -43 132t-120 49q-30 0 -56.5 -8.5t-46.5 -23.5t-31.5 -36t-11.5 -46v-203q0 -27 11.5 -48.5t31.5 -37
t46.5 -23.5t56.5 -8z" />
    <glyph glyph-name="ydieresis" unicode="&#xff;" horiz-adv-x="479" 
d="M399 512h58l-237 -656q-12 -32 -29 -44t-56 -12h-58v50h86l49 135l-190 527h60l157 -451h4zM149 627q-21 0 -30 10t-9 26v10q0 16 9 26t30 10q20 0 29.5 -10t9.5 -26v-10q0 -16 -9.5 -26t-29.5 -10zM333 627q-20 0 -29.5 10t-9.5 26v10q0 16 9.5 26t29.5 10q21 0 30 -10
t9 -26v-10q0 -16 -9 -26t-30 -10z" />
    <glyph glyph-name="Amacron" unicode="&#x100;" horiz-adv-x="625" 
d="M536 0l-76 217h-297l-76 -217h-60l247 698h77l248 -698h-63zM313 641h-4l-131 -372h266zM177 868h272v-49h-272v49z" />
    <glyph glyph-name="amacron" unicode="&#x101;" horiz-adv-x="527" 
d="M445 0q-33 0 -48 17t-17 46v18h-5q-17 -43 -56 -68t-99 -25q-81 0 -125 39.5t-44 111.5q0 68 48.5 108t159.5 40h118v60q0 127 -131 127q-51 0 -85 -21.5t-55 -61.5l-36 30q21 45 64.5 74t113.5 29q90 0 138 -45t48 -126v-303h69v-50h-58zM228 37q31 0 58 8t47.5 22.5
t32 35t11.5 46.5v95h-120q-77 0 -111.5 -24.5t-34.5 -67.5v-24q0 -45 32 -68t85 -23zM116 694h272v-49h-272v49z" />
    <glyph glyph-name="Abreve" unicode="&#x102;" horiz-adv-x="625" 
d="M536 0l-76 217h-297l-76 -217h-60l247 698h77l248 -698h-63zM313 641h-4l-131 -372h266zM313 774q-35 0 -58 10.5t-39 27.5t-27 39t-20 45l33 16l19 -31q19 -32 37.5 -46.5t54.5 -14.5t54.5 14.5t37.5 46.5l19 31l33 -16q-9 -23 -20 -45t-27 -39t-39.5 -27.5t-57.5 -10.5
z" />
    <glyph glyph-name="abreve" unicode="&#x103;" horiz-adv-x="527" 
d="M445 0q-33 0 -48 17t-17 46v18h-5q-17 -43 -56 -68t-99 -25q-81 0 -125 39.5t-44 111.5q0 68 48.5 108t159.5 40h118v60q0 127 -131 127q-51 0 -85 -21.5t-55 -61.5l-36 30q21 45 64.5 74t113.5 29q90 0 138 -45t48 -126v-303h69v-50h-58zM228 37q31 0 58 8t47.5 22.5
t32 35t11.5 46.5v95h-120q-77 0 -111.5 -24.5t-34.5 -67.5v-24q0 -45 32 -68t85 -23zM252 600q-35 0 -58 10.5t-39 27.5t-27 39t-20 45l33 16l19 -31q19 -32 37.5 -46.5t54.5 -14.5t54.5 14.5t37.5 46.5l19 31l33 -16q-9 -23 -20 -45t-27 -39t-39.5 -27.5t-57.5 -10.5z" />
    <glyph glyph-name="Aogonek" unicode="&#x104;" horiz-adv-x="625" 
d="M274 698h77l248 -698q-30 -25 -50 -43t-31.5 -32.5t-16.5 -27t-5 -24.5q0 -20 11.5 -29t30.5 -9q18 0 31.5 6.5t21.5 17.5l30 -28q-10 -15 -30.5 -25.5t-52.5 -10.5q-38 0 -63.5 18t-25.5 55q0 35 27 66.5t77 63.5l-1 2h-16l-76 217h-297l-76 -217h-60zM313 641h-4
l-131 -372h267z" />
    <glyph glyph-name="aogonek" unicode="&#x105;" horiz-adv-x="527" 
d="M521 -169q-9 -15 -30 -25.5t-53 -10.5q-37 0 -63 17t-26 54q0 35 27.5 66.5t79.5 65.5l-1 2h-12q-29 0 -46 18.5t-17 47.5v15h-5q-17 -43 -56 -68t-99 -25q-81 0 -125 39.5t-44 111.5q0 68 48.5 108t159.5 40h118v60q0 126 -131 126q-51 0 -85 -21t-55 -61l-36 30
q21 45 64.5 74t113.5 29q90 0 138 -45t48 -126v-303h69v-50q-31 -25 -51.5 -43.5t-33 -33t-17.5 -26.5t-5 -24q0 -20 12 -29t30 -9t31.5 6.5t21.5 17.5zM228 37q31 0 58 8t47.5 22.5t32 35t11.5 46.5v95h-120q-77 0 -111.5 -24.5t-34.5 -67.5v-24q0 -45 32 -68t85 -23z" />
    <glyph glyph-name="Cacute" unicode="&#x106;" horiz-adv-x="617" 
d="M335 -12q-130 0 -201 90.5t-71 268.5q0 177 71 270t201 93q84 0 141.5 -40t89.5 -109l-49 -29q-23 57 -69.5 90.5t-112.5 33.5q-98 0 -153 -70t-55 -200v-79q0 -129 55 -197t153 -68q70 0 117 35.5t70 95.5l49 -29q-31 -72 -91 -114t-145 -42zM331 760l-37 18l95 164
l52 -26z" />
    <glyph glyph-name="cacute" unicode="&#x107;" horiz-adv-x="496" 
d="M273 -12q-106 0 -163.5 70t-57.5 198t57.5 198t163.5 70q71 0 115 -31t67 -82l-48 -24q-18 42 -50.5 64t-83.5 22q-78 0 -119 -50t-41 -131v-72q0 -81 41 -131t119 -50q53 0 89 23t58 66l42 -28q-25 -51 -71.5 -81.5t-117.5 -30.5zM271 586l-37 18l95 164l52 -26z" />
    <glyph glyph-name="Ccircumflex" unicode="&#x108;" horiz-adv-x="617" 
d="M335 -12q-130 0 -201 90.5t-71 268.5q0 177 71 270t201 93q84 0 141.5 -40t89.5 -109l-49 -29q-23 57 -69.5 90.5t-112.5 33.5q-98 0 -153 -70t-55 -200v-79q0 -129 55 -197t153 -68q70 0 117 35.5t70 95.5l49 -29q-31 -72 -91 -114t-145 -42zM369 930l118 -139l-32 -23
l-121 120l-121 -120l-32 23l118 139h70z" />
    <glyph glyph-name="ccircumflex" unicode="&#x109;" horiz-adv-x="496" 
d="M273 -12q-106 0 -163.5 70t-57.5 198t57.5 198t163.5 70q71 0 115 -31t67 -82l-48 -24q-18 42 -50.5 64t-83.5 22q-78 0 -119 -50t-41 -131v-72q0 -81 41 -131t119 -50q53 0 89 23t58 66l42 -28q-25 -51 -71.5 -81.5t-117.5 -30.5zM309 756l118 -139l-32 -23l-121 121
l-121 -121l-32 23l118 139h70z" />
    <glyph glyph-name="Cdotaccent" unicode="&#x10a;" horiz-adv-x="617" 
d="M335 -12q-130 0 -201 90.5t-71 268.5q0 177 71 270t201 93q84 0 141.5 -40t89.5 -109l-49 -29q-23 57 -69.5 90.5t-112.5 33.5q-98 0 -153 -70t-55 -200v-79q0 -129 55 -197t153 -68q70 0 117 35.5t70 95.5l49 -29q-31 -72 -91 -114t-145 -42zM334 796q-23 0 -33 11.5
t-10 29.5v11q0 18 10 29.5t33 11.5t33 -11.5t10 -29.5v-11q0 -18 -10 -29.5t-33 -11.5z" />
    <glyph glyph-name="cdotaccent" unicode="&#x10b;" horiz-adv-x="496" 
d="M273 -12q-106 0 -163.5 70t-57.5 198t57.5 198t163.5 70q71 0 115 -31t67 -82l-48 -24q-18 42 -50.5 64t-83.5 22q-78 0 -119 -50t-41 -131v-72q0 -81 41 -131t119 -50q53 0 89 23t58 66l42 -28q-25 -51 -71.5 -81.5t-117.5 -30.5zM274 626q-20 0 -30 10t-10 26v10
q0 16 10 26t30 10t30 -10t10 -26v-10q0 -16 -10 -26t-30 -10z" />
    <glyph glyph-name="Ccaron" unicode="&#x10c;" horiz-adv-x="617" 
d="M335 -12q-130 0 -201 90.5t-71 268.5q0 177 71 270t201 93q84 0 141.5 -40t89.5 -109l-49 -29q-23 57 -69.5 90.5t-112.5 33.5q-98 0 -153 -70t-55 -200v-79q0 -129 55 -197t153 -68q70 0 117 35.5t70 95.5l49 -29q-31 -72 -91 -114t-145 -42zM299 774l-118 140l32 23
l121 -121l121 121l32 -23l-118 -140h-70z" />
    <glyph glyph-name="ccaron" unicode="&#x10d;" horiz-adv-x="496" 
d="M273 -12q-106 0 -163.5 70t-57.5 198t57.5 198t163.5 70q71 0 115 -31t67 -82l-48 -24q-18 42 -50.5 64t-83.5 22q-78 0 -119 -50t-41 -131v-72q0 -81 41 -131t119 -50q53 0 89 23t58 66l42 -28q-25 -51 -71.5 -81.5t-117.5 -30.5zM239 601l-118 139l32 23l121 -121
l121 121l32 -23l-118 -139h-70z" />
    <glyph glyph-name="Dcaron" unicode="&#x10e;" horiz-adv-x="666" 
d="M99 698h222q135 0 208.5 -87t73.5 -262t-73.5 -262t-208.5 -87h-222v698zM322 53q103 0 160 66.5t57 183.5v92q0 117 -57 183.5t-160 66.5h-163v-592h163zM269 774l-118 140l32 23l121 -121l121 121l32 -23l-118 -140h-70z" />
    <glyph glyph-name="dcaron" unicode="&#x10f;" horiz-adv-x="574" 
d="M424 82h-3q-20 -43 -58.5 -68.5t-97.5 -25.5q-99 0 -155 70t-56 198t56 198t155 70q59 0 98 -25.5t58 -68.5h3v310h57v-740h-57v82zM278 39q30 0 56.5 8t46.5 23.5t31.5 37t11.5 48.5v203q0 25 -11.5 46t-31.5 36t-46.5 23.5t-56.5 8.5q-77 0 -120 -49t-43 -132v-72
q0 -83 43 -132t120 -49zM591 559h-39l14 181h66z" />
    <glyph glyph-name="Dcroat" unicode="&#x110;" horiz-adv-x="669" 
d="M102 346h-81v46h81v306h222q135 0 208.5 -87t73.5 -262t-73.5 -262t-208.5 -87h-222v346zM325 53q103 0 160 66.5t57 183.5v92q0 117 -57 183.5t-160 66.5h-163v-253h150v-46h-150v-293h163z" />
    <glyph glyph-name="dcroat" unicode="&#x111;" horiz-adv-x="577" 
d="M424 82h-3q-20 -43 -58.5 -68.5t-97.5 -25.5q-99 0 -155 70t-56 198t56 198t155 70q59 0 98 -25.5t58 -68.5h3v186h-155v45h155v79h57v-79h65v-45h-65v-616h-57v82zM278 39q30 0 56.5 8t46.5 23.5t31.5 37t11.5 48.5v203q0 25 -11.5 46t-31.5 36t-46.5 23.5t-56.5 8.5
q-77 0 -120 -49t-43 -132v-72q0 -83 43 -132t120 -49z" />
    <glyph glyph-name="Emacron" unicode="&#x112;" horiz-adv-x="574" 
d="M99 0v698h408v-53h-348v-264h331v-53h-331v-275h348v-53h-408zM166 868h272v-49h-272v49z" />
    <glyph glyph-name="emacron" unicode="&#x113;" horiz-adv-x="543" 
d="M276 -12q-51 0 -92.5 18t-71 52.5t-45 84.5t-15.5 113t15.5 112.5t45 84t70.5 53t92 18.5q49 0 89 -18.5t68 -51.5t43.5 -79.5t15.5 -102.5v-27h-379v-25q0 -40 11.5 -73.5t33 -57.5t52.5 -37.5t70 -13.5q112 0 155 103l42 -28q-24 -57 -75.5 -91t-124.5 -34zM275 476
q-37 0 -67 -13.5t-51.5 -37.5t-33 -57.5t-11.5 -73.5v-5h317v8q0 40 -11 73.5t-31.5 56.5t-49 36t-62.5 13zM140 694h272v-49h-272v49z" />
    <glyph glyph-name="Ebreve" unicode="&#x114;" horiz-adv-x="574" 
d="M99 0v698h408v-53h-348v-264h331v-53h-331v-275h348v-53h-408zM302 774q-35 0 -58 10.5t-39 27.5t-27 39t-20 45l33 16l19 -31q19 -32 37.5 -46.5t54.5 -14.5t54.5 14.5t37.5 46.5l19 31l33 -16q-9 -23 -20 -45t-27 -39t-39.5 -27.5t-57.5 -10.5z" />
    <glyph glyph-name="ebreve" unicode="&#x115;" horiz-adv-x="543" 
d="M276 -12q-51 0 -92.5 18t-71 52.5t-45 84.5t-15.5 113t15.5 112.5t45 84t70.5 53t92 18.5q49 0 89 -18.5t68 -51.5t43.5 -79.5t15.5 -102.5v-27h-379v-25q0 -40 11.5 -73.5t33 -57.5t52.5 -37.5t70 -13.5q112 0 155 103l42 -28q-24 -57 -75.5 -91t-124.5 -34zM275 476
q-37 0 -67 -13.5t-51.5 -37.5t-33 -57.5t-11.5 -73.5v-5h317v8q0 40 -11 73.5t-31.5 56.5t-49 36t-62.5 13zM276 600q-35 0 -58 10.5t-39 27.5t-27 39t-20 45l33 16l19 -31q19 -32 37.5 -46.5t54.5 -14.5t54.5 14.5t37.5 46.5l19 31l33 -16q-9 -23 -20 -45t-27 -39
t-39.5 -27.5t-57.5 -10.5z" />
    <glyph glyph-name="Edotaccent" unicode="&#x116;" horiz-adv-x="574" 
d="M99 0v698h408v-53h-348v-264h331v-53h-331v-275h348v-53h-408zM302 796q-23 0 -33 11.5t-10 29.5v11q0 18 10 29.5t33 11.5t33 -11.5t10 -29.5v-11q0 -18 -10 -29.5t-33 -11.5z" />
    <glyph glyph-name="edotaccent" unicode="&#x117;" horiz-adv-x="543" 
d="M276 -12q-51 0 -92.5 18t-71 52.5t-45 84.5t-15.5 113t15.5 112.5t45 84t70.5 53t92 18.5q49 0 89 -18.5t68 -51.5t43.5 -79.5t15.5 -102.5v-27h-379v-25q0 -40 11.5 -73.5t33 -57.5t52.5 -37.5t70 -13.5q112 0 155 103l42 -28q-24 -57 -75.5 -91t-124.5 -34zM275 476
q-37 0 -67 -13.5t-51.5 -37.5t-33 -57.5t-11.5 -73.5v-5h317v8q0 40 -11 73.5t-31.5 56.5t-49 36t-62.5 13zM276 626q-20 0 -30 10t-10 26v10q0 16 10 26t30 10t30 -10t10 -26v-10q0 -16 -10 -26t-30 -10z" />
    <glyph glyph-name="Eogonek" unicode="&#x118;" horiz-adv-x="574" 
d="M99 698h408v-53h-348v-264h331v-53h-331v-275h348v-53q-31 -25 -51.5 -43.5t-32.5 -33t-17 -26.5t-5 -24q0 -20 11.5 -29t30.5 -9q18 0 31 6.5t22 17.5l30 -28q-10 -15 -30.5 -25.5t-52.5 -10.5q-38 0 -63.5 17.5t-25.5 54.5q0 35 27 67t78 64l-1 2h-359v698z" />
    <glyph glyph-name="eogonek" unicode="&#x119;" horiz-adv-x="543" 
d="M339 -205q-37 0 -62.5 18t-25.5 56t26.5 69t71.5 59l-3 4q-13 -5 -30 -9t-40 -4q-51 0 -92.5 18t-71 52.5t-45 84.5t-15.5 113t15.5 112.5t45 84t70.5 53t92 18.5q49 0 89 -18.5t68 -51.5t43.5 -79.5t15.5 -102.5v-27h-379v-25q0 -40 11.5 -73.5t33 -57.5t52.5 -37.5
t70 -13.5q112 0 155 103l42 -28q-20 -46 -55 -75q-21 -19 -43 -39t-39.5 -40t-29 -41t-11.5 -43t11.5 -31t30.5 -9q18 0 31.5 6.5t21.5 17.5l29 -28q-9 -15 -30 -25.5t-53 -10.5zM429 289v8q0 40 -11 73.5t-31.5 56.5t-49 36t-62.5 13q-37 0 -67 -13.5t-51.5 -37.5
t-33 -57.5t-11.5 -73.5v-5h317z" />
    <glyph glyph-name="Ecaron" unicode="&#x11a;" horiz-adv-x="574" 
d="M99 0v698h408v-53h-348v-264h331v-53h-331v-275h348v-53h-408zM267 774l-118 140l32 23l121 -121l121 121l32 -23l-118 -140h-70z" />
    <glyph glyph-name="ecaron" unicode="&#x11b;" horiz-adv-x="543" 
d="M276 -12q-51 0 -92.5 18t-71 52.5t-45 84.5t-15.5 113t15.5 112.5t45 84t70.5 53t92 18.5q49 0 89 -18.5t68 -51.5t43.5 -79.5t15.5 -102.5v-27h-379v-25q0 -40 11.5 -73.5t33 -57.5t52.5 -37.5t70 -13.5q112 0 155 103l42 -28q-24 -57 -75.5 -91t-124.5 -34zM275 476
q-37 0 -67 -13.5t-51.5 -37.5t-33 -57.5t-11.5 -73.5v-5h317v8q0 40 -11 73.5t-31.5 56.5t-49 36t-62.5 13zM241 601l-118 139l32 23l121 -121l121 121l32 -23l-118 -139h-70z" />
    <glyph glyph-name="Gcircumflex" unicode="&#x11c;" horiz-adv-x="684" 
d="M553 107h-3q-19 -54 -71.5 -86.5t-133.5 -32.5q-65 0 -117 23t-88.5 69t-56.5 113t-20 156q0 88 20 155.5t57 113t90 69t119 23.5q90 0 151 -41t93 -108l-49 -29q-26 58 -76 91t-119 33q-51 0 -92 -18t-70 -52t-44.5 -83t-15.5 -111v-85q0 -126 60.5 -195.5t166.5 -69.5
q40 0 75.5 10.5t62.5 31.5t42.5 53t15.5 75v84h-163v52h222v-348h-56v107zM384 930l118 -139l-32 -23l-121 120l-121 -120l-32 23l118 139h70z" />
    <glyph glyph-name="gcircumflex" unicode="&#x11d;" horiz-adv-x="529" 
d="M301 756l118 -139l-32 -23l-121 121l-121 -121l-32 23l118 139h70zM513 -60q0 -78 -62.5 -115t-183.5 -37q-117 0 -169 34t-52 94q0 44 23 70t65 38v8q-48 19 -48 70q0 38 25 58t62 30v4q-45 20 -70 60t-25 96q0 39 13 71t37.5 55t59 35.5t76.5 12.5q43 0 76 -12h163v-46
h-100q23 -20 36 -49.5t13 -66.5q0 -39 -13.5 -71t-38 -55.5t-59 -36t-76.5 -12.5q-14 0 -27 2l-26 4q-33 -9 -54.5 -24.5t-21.5 -41.5q0 -46 82 -46h119q93 0 134.5 -34.5t41.5 -94.5zM265 221q59 0 92.5 29.5t33.5 83.5v32q0 53 -33.5 82.5t-92.5 29.5q-60 0 -93 -29.5
t-33 -82.5v-32q0 -54 33.5 -83.5t92.5 -29.5zM458 -64q0 37 -26.5 58.5t-94.5 21.5h-166q-33 -11 -52 -33t-19 -55q0 -40 33 -66.5t100 -26.5h64q75 0 118 24.5t43 76.5z" />
    <glyph glyph-name="Gbreve" unicode="&#x11e;" horiz-adv-x="684" 
d="M553 107h-3q-19 -54 -71.5 -86.5t-133.5 -32.5q-65 0 -117 23t-88.5 69t-56.5 113t-20 156q0 88 20 155.5t57 113t90 69t119 23.5q90 0 151 -41t93 -108l-49 -29q-26 58 -76 91t-119 33q-51 0 -92 -18t-70 -52t-44.5 -83t-15.5 -111v-85q0 -126 60.5 -195.5t166.5 -69.5
q40 0 75.5 10.5t62.5 31.5t42.5 53t15.5 75v84h-163v52h222v-348h-56v107zM349 774q-35 0 -58 10.5t-39 27.5t-27 39t-20 45l33 16l19 -31q19 -32 37.5 -46.5t54.5 -14.5t54.5 14.5t37.5 46.5l19 31l33 -16q-9 -23 -20 -45t-27 -39t-39.5 -27.5t-57.5 -10.5z" />
    <glyph glyph-name="gbreve" unicode="&#x11f;" horiz-adv-x="529" 
d="M513 -60q0 -78 -62.5 -115t-183.5 -37q-117 0 -169 34t-52 94q0 44 23 70t65 38v8q-48 19 -48 70q0 38 25 58t62 30v4q-45 20 -70 60t-25 96q0 39 13 71t37.5 55t59 35.5t76.5 12.5q43 0 76 -12h163v-46h-100q23 -20 36 -49.5t13 -66.5q0 -39 -13.5 -71t-38 -55.5
t-59 -36t-76.5 -12.5q-14 0 -27 2l-26 4q-33 -9 -54.5 -24.5t-21.5 -41.5q0 -46 82 -46h119q93 0 134.5 -34.5t41.5 -94.5zM265 221q59 0 92.5 29.5t33.5 83.5v32q0 53 -33.5 82.5t-92.5 29.5q-60 0 -93 -29.5t-33 -82.5v-32q0 -54 33.5 -83.5t92.5 -29.5zM458 -64
q0 37 -26.5 58.5t-94.5 21.5h-166q-33 -11 -52 -33t-19 -55q0 -40 33 -66.5t100 -26.5h64q75 0 118 24.5t43 76.5zM266 600q-35 0 -58 10.5t-39 27.5t-27 39t-20 45l33 16l19 -31q19 -32 37.5 -46.5t54.5 -14.5t54.5 14.5t37.5 46.5l19 31l33 -16q-9 -23 -20 -45t-27 -39
t-39.5 -27.5t-57.5 -10.5z" />
    <glyph glyph-name="Gdotaccent" unicode="&#x120;" horiz-adv-x="684" 
d="M553 107h-3q-19 -54 -71.5 -86.5t-133.5 -32.5q-65 0 -117 23t-88.5 69t-56.5 113t-20 156q0 88 20 155.5t57 113t90 69t119 23.5q90 0 151 -41t93 -108l-49 -29q-26 58 -76 91t-119 33q-51 0 -92 -18t-70 -52t-44.5 -83t-15.5 -111v-85q0 -126 60.5 -195.5t166.5 -69.5
q40 0 75.5 10.5t62.5 31.5t42.5 53t15.5 75v84h-163v52h222v-348h-56v107zM349 796q-23 0 -33 11.5t-10 29.5v11q0 18 10 29.5t33 11.5t33 -11.5t10 -29.5v-11q0 -18 -10 -29.5t-33 -11.5z" />
    <glyph glyph-name="gdotaccent" unicode="&#x121;" horiz-adv-x="529" 
d="M513 -60q0 -78 -62.5 -115t-183.5 -37q-117 0 -169 34t-52 94q0 44 23 70t65 38v8q-48 19 -48 70q0 38 25 58t62 30v4q-45 20 -70 60t-25 96q0 39 13 71t37.5 55t59 35.5t76.5 12.5q43 0 76 -12h163v-46h-100q23 -20 36 -49.5t13 -66.5q0 -39 -13.5 -71t-38 -55.5
t-59 -36t-76.5 -12.5q-14 0 -27 2l-26 4q-33 -9 -54.5 -24.5t-21.5 -41.5q0 -46 82 -46h119q93 0 134.5 -34.5t41.5 -94.5zM265 221q59 0 92.5 29.5t33.5 83.5v32q0 53 -33.5 82.5t-92.5 29.5q-60 0 -93 -29.5t-33 -82.5v-32q0 -54 33.5 -83.5t92.5 -29.5zM458 -64
q0 37 -26.5 58.5t-94.5 21.5h-166q-33 -11 -52 -33t-19 -55q0 -40 33 -66.5t100 -26.5h64q75 0 118 24.5t43 76.5zM266 626q-20 0 -30 10t-10 26v10q0 16 10 26t30 10t30 -10t10 -26v-10q0 -16 -10 -26t-30 -10z" />
    <glyph glyph-name="Gcommaaccent" unicode="&#x122;" horiz-adv-x="684" 
d="M553 107h-3q-19 -54 -71.5 -86.5t-133.5 -32.5q-65 0 -117 23t-88.5 69t-56.5 113t-20 156q0 88 20 155.5t57 113t90 69t119 23.5q90 0 151 -41t93 -108l-49 -29q-26 58 -76 91t-119 33q-51 0 -92 -18t-70 -52t-44.5 -83t-15.5 -111v-85q0 -126 60.5 -195.5t166.5 -69.5
q40 0 75.5 10.5t62.5 31.5t42.5 53t15.5 75v84h-163v52h222v-348h-56v107zM345 -66q40 0 40 -37v-11q0 -32 -15.5 -64t-38.5 -54h-42q39 42 48 85q-17 2 -24.5 11.5t-7.5 23.5v9q0 37 40 37z" />
    <glyph glyph-name="gcommaaccent" unicode="&#x123;" horiz-adv-x="529" 
d="M513 -60q0 -78 -62.5 -115t-183.5 -37q-117 0 -169 34t-52 94q0 44 23 70t65 38v8q-48 19 -48 70q0 38 25 58t62 30v4q-45 20 -70 60t-25 96q0 39 13 71t37.5 55t59 35.5t76.5 12.5q43 0 76 -12h163v-46h-100q23 -20 36 -49.5t13 -66.5q0 -39 -13.5 -71t-38 -55.5
t-59 -36t-76.5 -12.5q-14 0 -27 2l-26 4q-33 -9 -54.5 -24.5t-21.5 -41.5q0 -46 82 -46h119q93 0 134.5 -34.5t41.5 -94.5zM265 221q59 0 92.5 29.5t33.5 83.5v32q0 53 -33.5 82.5t-92.5 29.5q-60 0 -93 -29.5t-33 -82.5v-32q0 -54 33.5 -83.5t92.5 -29.5zM458 -64
q0 37 -26.5 58.5t-94.5 21.5h-166q-33 -11 -52 -33t-19 -55q0 -40 33 -66.5t100 -26.5h64q75 0 118 24.5t43 76.5zM266 597q-39 0 -39 37v11q0 32 15.5 63.5t38.5 54.5h42q-21 -23 -32.5 -44t-16.5 -41q17 -2 25 -11.5t8 -23.5v-9q0 -37 -41 -37z" />
    <glyph glyph-name="Hcircumflex" unicode="&#x124;" horiz-adv-x="701" 
d="M542 328h-383v-328h-60v698h60v-317h383v317h60v-698h-60v328zM386 930l118 -139l-32 -23l-121 120l-121 -120l-32 23l118 139h70z" />
    <glyph glyph-name="hcircumflex" unicode="&#x125;" horiz-adv-x="563" 
d="M93 740h57v-309h3q17 40 53 66.5t98 26.5q82 0 127.5 -50.5t45.5 -144.5v-329h-57v319q0 78 -33.5 116t-97.5 38q-27 0 -52 -7t-44.5 -21t-31 -35.5t-11.5 -49.5v-360h-57v740zM158 914l118 -139l-32 -23l-121 121l-121 -121l-32 23l118 139h70z" />
    <glyph glyph-name="Hbar" unicode="&#x126;" horiz-adv-x="707" 
d="M545 328h-383v-328h-60v526h-75v46h75v126h60v-126h383v126h60v-126h75v-46h-75v-526h-60v328zM545 381v145h-383v-145h383z" />
    <glyph glyph-name="hbar" unicode="&#x127;" horiz-adv-x="563" 
d="M93 0v616h-65v45h65v79h57v-79h155v-45h-155v-185h3q17 40 52.5 66.5t97.5 26.5q82 0 128 -50.5t46 -144.5v-329h-57v319q0 78 -34 116t-98 38q-27 0 -51.5 -7t-44 -21t-31 -35.5t-11.5 -49.5v-360h-57z" />
    <glyph glyph-name="Itilde" unicode="&#x128;" horiz-adv-x="390" 
d="M63 0v50h102v598h-102v50h264v-50h-102v-598h102v-50h-264zM267 792q-23 0 -41 8.5t-38 19.5q-23 13 -38.5 18.5t-29.5 5.5q-17 0 -31 -7.5t-30 -21.5l-25 29q16 20 38 34t51 14q23 0 41 -8.5t38 -19.5q23 -13 38.5 -18.5t29.5 -5.5q17 0 31 7.5t30 21.5l25 -29
q-16 -20 -38 -34t-51 -14z" />
    <glyph glyph-name="itilde" unicode="&#x129;" horiz-adv-x="243" 
d="M93 0v512h57v-512h-57zM194 618q-23 0 -41 8t-38 20q-23 14 -38.5 19.5t-29.5 5.5q-17 0 -31 -8t-30 -22l-25 29q16 20 38 34t51 14q23 0 41 -8t38 -20q23 -14 38.5 -19.5t29.5 -5.5q17 0 31 8t30 22l25 -29q-16 -20 -38 -34t-51 -14z" />
    <glyph glyph-name="Imacron" unicode="&#x12a;" horiz-adv-x="390" 
d="M63 0v50h102v598h-102v50h264v-50h-102v-598h102v-50h-264zM59 868h272v-49h-272v49z" />
    <glyph glyph-name="imacron" unicode="&#x12b;" horiz-adv-x="243" 
d="M93 0v512h57v-512h-57zM-14 694h272v-49h-272v49z" />
    <glyph glyph-name="Ibreve" unicode="&#x12c;" horiz-adv-x="390" 
d="M63 0v50h102v598h-102v50h264v-50h-102v-598h102v-50h-264zM195 774q-35 0 -58 10.5t-39 27.5t-27 39t-20 45l33 16l19 -31q19 -32 37.5 -46.5t54.5 -14.5t54.5 14.5t37.5 46.5l19 31l33 -16q-9 -23 -20 -45t-27 -39t-39.5 -27.5t-57.5 -10.5z" />
    <glyph glyph-name="ibreve" unicode="&#x12d;" horiz-adv-x="243" 
d="M93 0v512h57v-512h-57zM122 600q-35 0 -58 10.5t-39 27.5t-27 39t-20 45l33 16l19 -31q19 -32 37.5 -46.5t54.5 -14.5t54.5 14.5t37.5 46.5l19 31l33 -16q-9 -23 -20 -45t-27 -39t-39.5 -27.5t-57.5 -10.5z" />
    <glyph glyph-name="Iogonek" unicode="&#x12e;" horiz-adv-x="389" 
d="M63 50h102v598h-102v50h263v-50h-102v-598h102v-50q-31 -25 -51.5 -43.5t-32.5 -33t-17 -26.5t-5 -24q0 -20 11.5 -29t30.5 -9q18 0 31 6.5t21 17.5l30 -28q-9 -15 -30 -25.5t-53 -10.5q-37 0 -62.5 17.5t-25.5 54.5q0 35 25 65.5t80 65.5l-1 2h-214v50z" />
    <glyph glyph-name="iogonek" unicode="&#x12f;" horiz-adv-x="243" 
d="M93 512h57v-512q-28 -26 -46.5 -44.5t-29 -32.5t-15 -25.5t-4.5 -23.5q0 -21 11.5 -30t30.5 -9q18 0 31.5 6.5t21.5 17.5l30 -28q-10 -15 -30.5 -25.5t-52.5 -10.5q-38 0 -63.5 18t-25.5 55t27 67t70 63l-1 2h-11v512zM121 651q-20 0 -29 10t-9 26v10q0 16 9 26t29 10
q21 0 30 -10t9 -26v-10q0 -16 -9 -26t-30 -10z" />
    <glyph glyph-name="Idotaccent" unicode="&#x130;" horiz-adv-x="390" 
d="M63 0v50h102v598h-102v50h264v-50h-102v-598h102v-50h-264zM195 796q-23 0 -33 11.5t-10 29.5v11q0 18 10 29.5t33 11.5t33 -11.5t10 -29.5v-11q0 -18 -10 -29.5t-33 -11.5z" />
    <glyph glyph-name="dotlessi" unicode="&#x131;" horiz-adv-x="243" 
d="M93 0v512h57v-512h-57z" />
    <glyph glyph-name="IJ" unicode="&#x132;" horiz-adv-x="640" 
d="M547 698v-482q0 -109 -60.5 -168.5t-170.5 -59.5q-97 0 -150.5 42t-69.5 116l54 13q14 -56 53.5 -86.5t114.5 -30.5q81 0 125 40.5t44 123.5v438h-169v54h229zM93 698h60v-408h-60v408z" />
    <glyph glyph-name="ij" unicode="&#x133;" horiz-adv-x="486" 
d="M121 651q-20 0 -29.5 10t-9.5 26v10q0 16 9.5 26t29.5 10t29.5 -10t9.5 -26v-10q0 -16 -9.5 -26t-29.5 -10zM93 512h57v-512h-57v512zM336 512h57v-627q0 -39 -19 -62t-61 -23h-62v50h85v662zM364 651q-20 0 -29.5 10t-9.5 26v10q0 16 9.5 26t29.5 10t29.5 -10t9.5 -26
v-10q0 -16 -9.5 -26t-29.5 -10z" />
    <glyph glyph-name="Jcircumflex" unicode="&#x134;" horiz-adv-x="493" 
d="M399 698v-516q0 -93 -51.5 -143.5t-137.5 -50.5q-74 0 -122 40t-62 106l53 13q12 -46 44.5 -76t88.5 -30q63 0 95 38t32 112v454h-242v53h302zM287 930l118 -139l-32 -23l-121 120l-121 -120l-32 23l118 139h70z" />
    <glyph glyph-name="jcircumflex" unicode="&#x135;" horiz-adv-x="243" 
d="M8 -150h85v662h57v-627q0 -39 -19 -62t-61 -23h-62v50zM157 756l118 -139l-32 -23l-121 121l-121 -121l-32 23l118 139h70z" />
    <glyph glyph-name="Kcommaaccent" unicode="&#x136;" horiz-adv-x="610" 
d="M272 360l-113 -125v-235h-60v698h60v-393h2l112 129l230 264h73l-263 -297l276 -401h-74zM327 -66q40 0 40 -37v-11q0 -32 -15.5 -64t-38.5 -54h-42q39 42 48 85q-17 2 -24.5 11.5t-7.5 23.5v9q0 37 40 37z" />
    <glyph glyph-name="kcommaaccent" unicode="&#x137;" horiz-adv-x="513" 
d="M93 740h57v-489h3l80 85l170 176h70l-201 -208l223 -304h-70l-194 268l-81 -82v-186h-57v740zM283 -66q40 0 40 -37v-11q0 -32 -15.5 -64t-38.5 -54h-42q39 42 48 85q-17 2 -24.5 11.5t-7.5 23.5v9q0 37 40 37z" />
    <glyph glyph-name="kgreenlandic" unicode="&#x138;" horiz-adv-x="513" 
d="M231 265l-81 -83v-182h-57v512h57v-264h3l81 85l174 179h70l-205 -210l222 -302h-70z" />
    <glyph glyph-name="Lacute" unicode="&#x139;" horiz-adv-x="491" 
d="M99 0v698h60v-645h308v-53h-368zM127 760l-37 18l95 164l52 -26z" />
    <glyph glyph-name="lacute" unicode="&#x13a;" horiz-adv-x="264" 
d="M156 0q-31 0 -47 17t-16 45v678h57v-690h79v-50h-73zM119 786l-37 18l95 164l52 -26z" />
    <glyph glyph-name="Lcommaaccent" unicode="&#x13b;" horiz-adv-x="491" 
d="M99 0v698h60v-645h308v-53h-368zM296 -66q40 0 40 -37v-11q0 -32 -15.5 -64t-38.5 -54h-42q39 42 48 85q-17 2 -24.5 11.5t-7.5 23.5v9q0 37 40 37z" />
    <glyph glyph-name="lcommaaccent" unicode="&#x13c;" horiz-adv-x="264" 
d="M156 0q-31 0 -47 17t-16 45v678h57v-690h79v-50h-73zM163 -66q40 0 40 -37v-11q0 -32 -15.5 -64t-38.5 -54h-42q39 42 48 85q-17 2 -24.5 11.5t-7.5 23.5v9q0 37 40 37z" />
    <glyph glyph-name="Lcaron" unicode="&#x13d;" horiz-adv-x="491" 
d="M99 0v698h60v-645h308v-53h-368zM285 559h-39l14 181h66z" />
    <glyph glyph-name="lcaron" unicode="&#x13e;" horiz-adv-x="264" 
d="M156 0q-31 0 -47 17t-16 45v678h57v-690h79v-50h-73zM262 559h-39l14 181h66z" />
    <glyph glyph-name="Ldot" unicode="&#x13f;" horiz-adv-x="491" 
d="M99 0v698h60v-645h308v-53h-368zM375 284q-20 0 -30 10t-10 26v10q0 16 10 26t30 10t30 -10t10 -26v-10q0 -16 -10 -26t-30 -10z" />
    <glyph glyph-name="ldot" unicode="&#x140;" horiz-adv-x="326" 
d="M156 0q-31 0 -47 17t-16 45v678h57v-690h79v-50h-73zM284 248q-20 0 -30 10t-10 26v10q0 16 10 26t30 10t30 -10t10 -26v-10q0 -16 -10 -26t-30 -10z" />
    <glyph glyph-name="Lslash" unicode="&#x141;" horiz-adv-x="494" 
d="M470 0h-368v283l-101 -32v48l101 34v365h60v-345l190 62v-51l-190 -61v-249h308v-54z" />
    <glyph glyph-name="lslash" unicode="&#x142;" horiz-adv-x="270" 
d="M232 0h-73q-31 0 -47 17t-16 45v273l-72 -23v49l72 23v356h57v-336l99 32v-49l-99 -33v-304h79v-50z" />
    <glyph glyph-name="Nacute" unicode="&#x143;" horiz-adv-x="701" 
d="M160 616h-3v-616h-58v698h75l367 -616h3v616h58v-698h-75zM347 760l-37 18l95 164l52 -26z" />
    <glyph glyph-name="nacute" unicode="&#x144;" horiz-adv-x="563" 
d="M93 0v512h57v-81h3q17 40 53 66.5t98 26.5q82 0 127.5 -50.5t45.5 -144.5v-329h-57v319q0 78 -33.5 116t-97.5 38q-27 0 -52 -7t-44.5 -21t-31 -35.5t-11.5 -49.5v-360h-57zM284 586l-37 18l95 164l52 -26z" />
    <glyph glyph-name="Ncommaaccent" unicode="&#x145;" horiz-adv-x="701" 
d="M160 616h-3v-616h-58v698h75l367 -616h3v616h58v-698h-75zM350 -66q40 0 40 -37v-11q0 -32 -15.5 -64t-38.5 -54h-42q39 42 48 85q-17 2 -24.5 11.5t-7.5 23.5v9q0 37 40 37z" />
    <glyph glyph-name="ncommaaccent" unicode="&#x146;" horiz-adv-x="563" 
d="M93 0v512h57v-81h3q17 40 53 66.5t98 26.5q82 0 127.5 -50.5t45.5 -144.5v-329h-57v319q0 78 -33.5 116t-97.5 38q-27 0 -52 -7t-44.5 -21t-31 -35.5t-11.5 -49.5v-360h-57zM285 -66q40 0 40 -37v-11q0 -32 -15.5 -64t-38.5 -54h-42q39 42 48 85q-17 2 -24.5 11.5
t-7.5 23.5v9q0 37 40 37z" />
    <glyph glyph-name="Ncaron" unicode="&#x147;" horiz-adv-x="701" 
d="M160 616h-3v-616h-58v698h75l367 -616h3v616h58v-698h-75zM315 774l-118 140l32 23l121 -121l121 121l32 -23l-118 -140h-70z" />
    <glyph glyph-name="ncaron" unicode="&#x148;" horiz-adv-x="563" 
d="M93 0v512h57v-81h3q17 40 53 66.5t98 26.5q82 0 127.5 -50.5t45.5 -144.5v-329h-57v319q0 78 -33.5 116t-97.5 38q-27 0 -52 -7t-44.5 -21t-31 -35.5t-11.5 -49.5v-360h-57zM252 601l-118 139l32 23l121 -121l121 121l32 -23l-118 -139h-70z" />
    <glyph glyph-name="napostrophe" unicode="&#x149;" horiz-adv-x="823" 
d="M134 750q25 0 36.5 -13t11.5 -33v-13q0 -42 -23.5 -89.5t-62.5 -81.5h-48q33 34 50.5 66t23.5 65q-19 2 -27.5 13.5t-8.5 27.5v12q0 20 11.5 33t36.5 13zM353 0v512h57v-81h3q17 40 53 66.5t98 26.5q82 0 127.5 -50.5t45.5 -144.5v-329h-57v319q0 78 -33.5 116t-97.5 38
q-27 0 -52 -7t-44.5 -21t-31 -35.5t-11.5 -49.5v-360h-57z" />
    <glyph glyph-name="Eng" unicode="&#x14a;" horiz-adv-x="701" 
d="M99 0v698h75l367 -616h3v616h58v-810q0 -40 -19.5 -64t-61.5 -24h-63v53h86v147h-17l-367 616h-3v-616h-58z" />
    <glyph glyph-name="eng" unicode="&#x14b;" horiz-adv-x="563" 
d="M336 -150h84v469q0 78 -33.5 116t-97.5 38q-27 0 -52 -7t-44.5 -21t-31 -35.5t-11.5 -49.5v-360h-57v512h57v-81h3q17 40 53 66.5t98 26.5q82 0 127.5 -50.5t45.5 -144.5v-446q0 -38 -18.5 -60.5t-60.5 -22.5h-62v50z" />
    <glyph glyph-name="Omacron" unicode="&#x14c;" horiz-adv-x="697" 
d="M349 -12q-134 0 -210 91.5t-76 269.5t76 269.5t210 91.5q133 0 209 -92t76 -269t-76 -269t-209 -92zM349 42q50 0 90.5 17.5t69.5 51.5t45 83t16 111v88q0 62 -16 111t-45 82.5t-69.5 51.5t-90.5 18t-91 -18t-70 -51.5t-45 -82.5t-16 -111v-88q0 -62 16 -111t45 -83
t70 -51.5t91 -17.5zM213 868h272v-49h-272v49z" />
    <glyph glyph-name="omacron" unicode="&#x14d;" horiz-adv-x="550" 
d="M275 -12q-51 0 -92 18t-70 52.5t-45 84.5t-16 113t16 112.5t45 84t70 53t92 18.5t92 -18.5t70 -53t45 -84t16 -112.5t-16 -113t-45 -84.5t-70 -52.5t-92 -18zM275 39q75 0 118.5 47t43.5 138v64q0 90 -43.5 137.5t-118.5 47.5t-118.5 -47t-43.5 -138v-64
q0 -90 43.5 -137.5t118.5 -47.5zM140 694h272v-49h-272v49z" />
    <glyph glyph-name="Obreve" unicode="&#x14e;" horiz-adv-x="697" 
d="M349 -12q-134 0 -210 91.5t-76 269.5t76 269.5t210 91.5q133 0 209 -92t76 -269t-76 -269t-209 -92zM349 42q50 0 90.5 17.5t69.5 51.5t45 83t16 111v88q0 62 -16 111t-45 82.5t-69.5 51.5t-90.5 18t-91 -18t-70 -51.5t-45 -82.5t-16 -111v-88q0 -62 16 -111t45 -83
t70 -51.5t91 -17.5zM349 774q-35 0 -58 10.5t-39 27.5t-27 39t-20 45l33 16l19 -31q19 -32 37.5 -46.5t54.5 -14.5t54.5 14.5t37.5 46.5l19 31l33 -16q-9 -23 -20 -45t-27 -39t-39.5 -27.5t-57.5 -10.5z" />
    <glyph glyph-name="obreve" unicode="&#x14f;" horiz-adv-x="550" 
d="M275 -12q-51 0 -92 18t-70 52.5t-45 84.5t-16 113t16 112.5t45 84t70 53t92 18.5t92 -18.5t70 -53t45 -84t16 -112.5t-16 -113t-45 -84.5t-70 -52.5t-92 -18zM275 39q75 0 118.5 47t43.5 138v64q0 90 -43.5 137.5t-118.5 47.5t-118.5 -47t-43.5 -138v-64
q0 -90 43.5 -137.5t118.5 -47.5zM276 600q-35 0 -58 10.5t-39 27.5t-27 39t-20 45l33 16l19 -31q19 -32 37.5 -46.5t54.5 -14.5t54.5 14.5t37.5 46.5l19 31l33 -16q-9 -23 -20 -45t-27 -39t-39.5 -27.5t-57.5 -10.5z" />
    <glyph glyph-name="Ohungarumlaut" unicode="&#x150;" horiz-adv-x="697" 
d="M349 -12q-134 0 -210 91.5t-76 269.5t76 269.5t210 91.5q133 0 209 -92t76 -269t-76 -269t-209 -92zM349 42q50 0 90.5 17.5t69.5 51.5t45 83t16 111v88q0 62 -16 111t-45 82.5t-69.5 51.5t-90.5 18t-91 -18t-70 -51.5t-45 -82.5t-16 -111v-88q0 -62 16 -111t45 -83
t70 -51.5t91 -17.5zM273 760l-35 18l95 163l50 -24zM433 760l-35 18l95 163l50 -24z" />
    <glyph glyph-name="ohungarumlaut" unicode="&#x151;" horiz-adv-x="550" 
d="M275 -12q-51 0 -92 18t-70 52.5t-45 84.5t-16 113t16 112.5t45 84t70 53t92 18.5t92 -18.5t70 -53t45 -84t16 -112.5t-16 -113t-45 -84.5t-70 -52.5t-92 -18zM275 39q75 0 118.5 47t43.5 138v64q0 90 -43.5 137.5t-118.5 47.5t-118.5 -47t-43.5 -138v-64
q0 -90 43.5 -137.5t118.5 -47.5zM200 586l-35 18l95 163l50 -24zM360 586l-35 18l95 163l50 -24z" />
    <glyph glyph-name="OE" unicode="&#x152;" horiz-adv-x="977" 
d="M502 0q-26 -5 -62.5 -8.5t-71.5 -3.5q-146 0 -225.5 91t-79.5 270t79.5 270t225.5 91q35 0 71.5 -3.5t62.5 -8.5h409v-53h-349v-264h332v-53h-332v-275h349v-53h-409zM374 42q35 0 68.5 4t59.5 12v582q-26 8 -59.5 12t-68.5 4q-122 0 -184.5 -69t-62.5 -194v-88
q0 -125 62.5 -194t184.5 -69z" />
    <glyph glyph-name="oe" unicode="&#x153;" horiz-adv-x="929" 
d="M276 39q74 0 118 47.5t44 137.5v64q0 91 -44 138t-118 47q-75 0 -119 -47t-44 -138v-64q0 -90 44 -137.5t119 -47.5zM815 289v8q0 40 -11 73.5t-31 56.5t-48.5 36t-62.5 13q-38 0 -68 -13.5t-51.5 -37.5t-33 -57.5t-11.5 -73.5v-5h317zM667 -12q-75 0 -124.5 35t-71.5 97
h-4q-21 -61 -71.5 -96.5t-119.5 -35.5q-51 0 -92.5 18t-70.5 52.5t-45 84.5t-16 113t16 112.5t45 84t70.5 53t92.5 18.5q70 0 119.5 -33.5t72.5 -97.5h4q22 62 70.5 96.5t119.5 34.5q49 0 88.5 -18.5t67.5 -51.5t43.5 -79.5t15.5 -102.5v-27h-379v-25q0 -82 44 -132t125 -50
q54 0 92.5 26t60.5 77l42 -28q-22 -53 -72.5 -89t-122.5 -36z" />
    <glyph glyph-name="Racute" unicode="&#x154;" horiz-adv-x="636" 
d="M159 0h-60v698h274q90 0 138.5 -51t48.5 -143q0 -81 -39.5 -131t-114.5 -60l172 -313h-67l-167 309h-185v-309zM373 360q60 0 91.5 33.5t31.5 85.5v48q0 51 -31.5 84.5t-91.5 33.5h-214v-285h214zM303 760l-37 18l95 164l52 -26z" />
    <glyph glyph-name="racute" unicode="&#x155;" horiz-adv-x="357" 
d="M93 0v512h57v-92h4q15 36 51 64t102 28h34v-56h-45q-64 0 -105 -28t-41 -78v-350h-57zM218 586l-37 18l95 164l52 -26z" />
    <glyph glyph-name="Rcommaaccent" unicode="&#x156;" horiz-adv-x="636" 
d="M159 0h-60v698h274q90 0 138.5 -51t48.5 -143q0 -81 -39.5 -131t-114.5 -60l172 -313h-67l-167 309h-185v-309zM373 360q60 0 91.5 33.5t31.5 85.5v48q0 51 -31.5 84.5t-91.5 33.5h-214v-285h214zM317 -66q40 0 40 -37v-11q0 -32 -15.5 -64t-38.5 -54h-42q39 42 48 85
q-17 2 -24.5 11.5t-7.5 23.5v9q0 37 40 37z" />
    <glyph glyph-name="rcommaaccent" unicode="&#x157;" horiz-adv-x="357" 
d="M93 0v512h57v-92h4q15 36 51 64t102 28h34v-56h-45q-64 0 -105 -28t-41 -78v-350h-57zM123 -66q40 0 40 -37v-11q0 -32 -15.5 -64t-38.5 -54h-42q39 42 48 85q-17 2 -24.5 11.5t-7.5 23.5v9q0 37 40 37z" />
    <glyph glyph-name="Rcaron" unicode="&#x158;" horiz-adv-x="636" 
d="M159 0h-60v698h274q90 0 138.5 -51t48.5 -143q0 -81 -39.5 -131t-114.5 -60l172 -313h-67l-167 309h-185v-309zM373 360q60 0 91.5 33.5t31.5 85.5v48q0 51 -31.5 84.5t-91.5 33.5h-214v-285h214zM271 774l-118 140l32 23l121 -121l121 121l32 -23l-118 -140h-70z" />
    <glyph glyph-name="rcaron" unicode="&#x159;" horiz-adv-x="357" 
d="M93 0v512h57v-92h4q15 36 51 64t102 28h34v-56h-45q-64 0 -105 -28t-41 -78v-350h-57zM186 601l-118 139l32 23l121 -121l121 121l32 -23l-118 -139h-70z" />
    <glyph glyph-name="Sacute" unicode="&#x15a;" horiz-adv-x="568" 
d="M284 -12q-86 0 -143.5 32.5t-98.5 86.5l45 37q37 -49 83.5 -76t115.5 -27q81 0 124.5 38.5t43.5 107.5q0 64 -37 94t-104 44l-62 13q-100 20 -145 67t-45 120q0 46 16 80.5t45.5 57.5t71 35t91.5 12q78 0 132 -28t89 -79l-45 -33q-29 42 -72.5 64.5t-106.5 22.5
q-75 0 -118.5 -32.5t-43.5 -97.5q0 -62 39 -91t104 -42l62 -13q104 -23 146 -71t42 -120q0 -96 -61 -149t-168 -53zM278 760l-37 18l95 164l52 -26z" />
    <glyph glyph-name="sacute" unicode="&#x15b;" horiz-adv-x="477" 
d="M238 -12q-67 0 -114.5 25t-82.5 73l42 33q32 -42 70 -62t89 -20q59 0 91 25t32 72q0 41 -24.5 64.5t-80.5 31.5l-42 7q-35 5 -64 15t-49.5 27t-32 41.5t-11.5 59.5q0 36 13.5 63t36.5 45t55 27t69 9q64 0 105 -22t70 -57l-38 -35q-20 24 -53.5 44.5t-86.5 20.5
q-55 0 -85.5 -24t-30.5 -68q0 -45 27.5 -65t82.5 -29l41 -6q78 -12 115.5 -46.5t37.5 -96.5q0 -72 -48.5 -112t-133.5 -40zM230 586l-37 18l95 164l52 -26z" />
    <glyph glyph-name="Scircumflex" unicode="&#x15c;" horiz-adv-x="568" 
d="M284 -12q-86 0 -143.5 32.5t-98.5 86.5l45 37q37 -49 83.5 -76t115.5 -27q81 0 124.5 38.5t43.5 107.5q0 64 -37 94t-104 44l-62 13q-100 20 -145 67t-45 120q0 46 16 80.5t45.5 57.5t71 35t91.5 12q78 0 132 -28t89 -79l-45 -33q-29 42 -72.5 64.5t-106.5 22.5
q-75 0 -118.5 -32.5t-43.5 -97.5q0 -62 39 -91t104 -42l62 -13q104 -23 146 -71t42 -120q0 -96 -61 -149t-168 -53zM316 930l118 -139l-32 -23l-121 120l-121 -120l-32 23l118 139h70z" />
    <glyph glyph-name="scircumflex" unicode="&#x15d;" horiz-adv-x="477" 
d="M238 -12q-67 0 -114.5 25t-82.5 73l42 33q32 -42 70 -62t89 -20q59 0 91 25t32 72q0 41 -24.5 64.5t-80.5 31.5l-42 7q-35 5 -64 15t-49.5 27t-32 41.5t-11.5 59.5q0 36 13.5 63t36.5 45t55 27t69 9q64 0 105 -22t70 -57l-38 -35q-20 24 -53.5 44.5t-86.5 20.5
q-55 0 -85.5 -24t-30.5 -68q0 -45 27.5 -65t82.5 -29l41 -6q78 -12 115.5 -46.5t37.5 -96.5q0 -72 -48.5 -112t-133.5 -40zM268 756l118 -139l-32 -23l-121 121l-121 -121l-32 23l118 139h70z" />
    <glyph glyph-name="Scedilla" unicode="&#x15e;" horiz-adv-x="568" 
d="M282 657q-75 0 -118.5 -32.5t-43.5 -97.5q0 -62 39 -91t104 -42l62 -13q104 -23 146 -71t42 -120q0 -93 -57 -145.5t-157 -55.5l-12 -55l2 -2q20 5 36 5q29 0 48 -16.5t19 -47.5q0 -37 -28.5 -57.5t-70.5 -20.5q-36 0 -59 11.5t-33 25.5l28 31q10 -12 25.5 -20t38.5 -8
q22 0 36 9.5t14 29.5q0 16 -13 27t-52 16l-31 3l14 69q-76 4 -128.5 35.5t-90.5 82.5l45 37q37 -49 83.5 -76t115.5 -27q81 0 124.5 38.5t43.5 107.5q0 32 -9.5 55t-27.5 39t-44.5 26t-59.5 18l-62 13q-100 20 -145 67t-45 120q0 46 16 80.5t45.5 57.5t71 35t91.5 12
q78 0 132 -28t89 -79l-45 -33q-29 42 -72.5 64.5t-106.5 22.5z" />
    <glyph glyph-name="scedilla" unicode="&#x15f;" horiz-adv-x="477" 
d="M349 -127q0 -37 -28.5 -57.5t-70.5 -20.5q-36 0 -59 11.5t-33 25.5l28 31q10 -12 25.5 -20t38.5 -8q22 0 36 9.5t14 29.5q0 16 -13 27t-52 16l-31 3l14 69q-59 4 -102 28.5t-75 68.5l42 33q32 -42 70 -62t89 -20q59 0 91 25t32 72q0 41 -24.5 64.5t-80.5 31.5l-42 7
q-35 5 -64 15t-49.5 27t-32 41.5t-11.5 59.5q0 36 13.5 63t36.5 45t55 27t69 9q64 0 105 -22t70 -57l-38 -35q-20 24 -53.5 44.5t-86.5 20.5q-55 0 -85.5 -24t-30.5 -68q0 -45 27.5 -65.5t82.5 -28.5l41 -6q78 -12 115.5 -46.5t37.5 -96.5q0 -68 -44 -107.5t-120 -43.5
l-12 -55l2 -2q20 5 36 5q29 0 48 -16.5t19 -47.5z" />
    <glyph glyph-name="Scaron" unicode="&#x160;" horiz-adv-x="568" 
d="M284 -12q-86 0 -143.5 32.5t-98.5 86.5l45 37q37 -49 83.5 -76t115.5 -27q81 0 124.5 38.5t43.5 107.5q0 64 -37 94t-104 44l-62 13q-100 20 -145 67t-45 120q0 46 16 80.5t45.5 57.5t71 35t91.5 12q78 0 132 -28t89 -79l-45 -33q-29 42 -72.5 64.5t-106.5 22.5
q-75 0 -118.5 -32.5t-43.5 -97.5q0 -62 39 -91t104 -42l62 -13q104 -23 146 -71t42 -120q0 -96 -61 -149t-168 -53zM246 774l-118 140l32 23l121 -121l121 121l32 -23l-118 -140h-70z" />
    <glyph glyph-name="scaron" unicode="&#x161;" horiz-adv-x="477" 
d="M238 -12q-67 0 -114.5 25t-82.5 73l42 33q32 -42 70 -62t89 -20q59 0 91 25t32 72q0 41 -24.5 64.5t-80.5 31.5l-42 7q-35 5 -64 15t-49.5 27t-32 41.5t-11.5 59.5q0 36 13.5 63t36.5 45t55 27t69 9q64 0 105 -22t70 -57l-38 -35q-20 24 -53.5 44.5t-86.5 20.5
q-55 0 -85.5 -24t-30.5 -68q0 -45 27.5 -65t82.5 -29l41 -6q78 -12 115.5 -46.5t37.5 -96.5q0 -72 -48.5 -112t-133.5 -40zM198 601l-118 139l32 23l121 -121l121 121l32 -23l-118 -139h-70z" />
    <glyph glyph-name="uni0162" unicode="&#x162;" horiz-adv-x="568" 
d="M295 -205q-36 0 -59 11.5t-33 25.5l28 31q10 -12 25.5 -20t38.5 -8q22 0 36 9.5t14 29.5q0 16 -13 27t-52 16l-31 3l16 80h-11v645h-234v53h528v-53h-234v-645h-11l-14 -66l2 -2q20 5 36 5q29 0 48.5 -16.5t19.5 -47.5q0 -37 -29 -57.5t-71 -20.5z" />
    <glyph glyph-name="uni0163" unicode="&#x163;" horiz-adv-x="335" 
d="M215 -205q-36 0 -59 11.5t-33 25.5l28 31q10 -12 25.5 -20t38.5 -8q22 0 36 9.5t14 29.5q0 16 -13 27t-52 16l-31 3l16 80h-4q-31 0 -47 17t-16 46v399h-89v50h58q21 0 28.5 8.5t7.5 30.5v104h52v-143h116v-50h-116v-412h108v-50h-60l-14 -66l2 -2q20 5 36 5
q29 0 48.5 -16.5t19.5 -47.5q0 -37 -29 -57.5t-71 -20.5z" />
    <glyph glyph-name="Tcaron" unicode="&#x164;" horiz-adv-x="568" 
d="M314 645v-645h-60v645h-234v53h528v-53h-234zM250 774l-118 140l32 23l121 -121l121 121l32 -23l-118 -140h-70z" />
    <glyph glyph-name="tcaron" unicode="&#x165;" horiz-adv-x="335" 
d="M181 0q-31 0 -47 17t-16 46v399h-89v50h58q21 0 28.5 8.5t7.5 30.5v104h52v-143h116v-50h-116v-412h108v-50h-102zM296 566h-39l14 181h66z" />
    <glyph glyph-name="Tbar" unicode="&#x166;" horiz-adv-x="574" 
d="M317 349v-349h-60v349h-174v46h174v250h-234v53h528v-53h-234v-250h174v-46h-174z" />
    <glyph glyph-name="tbar" unicode="&#x167;" horiz-adv-x="341" 
d="M286 0h-102q-31 0 -47 17t-16 46v197h-66v45h66v157h-89v50h58q21 0 28.5 8.5t7.5 30.5v104h52v-143h116v-50h-116v-157h95v-45h-95v-210h108v-50z" />
    <glyph glyph-name="Utilde" unicode="&#x168;" horiz-adv-x="668" 
d="M153 698v-431q0 -58 9 -100.5t30 -70t56 -41t86 -13.5t85.5 13.5t56 41t30.5 70t9 100.5v431h60v-418q0 -77 -13 -132t-41.5 -90.5t-75 -52.5t-113.5 -17t-113 17t-74 52.5t-40 90.5t-12 132v418h60zM404 792q-23 0 -41 8.5t-38 19.5q-23 13 -38.5 18.5t-29.5 5.5
q-17 0 -31 -7.5t-30 -21.5l-25 29q16 20 38 34t51 14q23 0 41 -8.5t38 -19.5q23 -13 38.5 -18.5t29.5 -5.5q17 0 31 7.5t30 21.5l25 -29q-16 -20 -38 -34t-51 -14z" />
    <glyph glyph-name="utilde" unicode="&#x169;" horiz-adv-x="563" 
d="M413 81h-4q-7 -18 -19 -35t-30 -29.5t-42.5 -20.5t-57.5 -8q-82 0 -128 50.5t-46 144.5v329h57v-318q0 -79 34 -117t98 -38q27 0 51.5 7t44 21t31 35.5t11.5 50.5v359h57v-512h-57v81zM351 618q-23 0 -41 8t-38 20q-23 14 -38.5 19.5t-29.5 5.5q-17 0 -31 -8t-30 -22
l-25 29q16 20 38 34t51 14q23 0 41 -8t38 -20q23 -14 38.5 -19.5t29.5 -5.5q17 0 31 8t30 22l25 -29q-16 -20 -38 -34t-51 -14z" />
    <glyph glyph-name="Umacron" unicode="&#x16a;" horiz-adv-x="668" 
d="M153 698v-431q0 -58 9 -100.5t30 -70t56 -41t86 -13.5t85.5 13.5t56 41t30.5 70t9 100.5v431h60v-418q0 -77 -13 -132t-41.5 -90.5t-75 -52.5t-113.5 -17t-113 17t-74 52.5t-40 90.5t-12 132v418h60zM196 868h272v-49h-272v49z" />
    <glyph glyph-name="umacron" unicode="&#x16b;" horiz-adv-x="563" 
d="M413 81h-4q-7 -18 -19 -35t-30 -29.5t-42.5 -20.5t-57.5 -8q-82 0 -128 50.5t-46 144.5v329h57v-318q0 -79 34 -117t98 -38q27 0 51.5 7t44 21t31 35.5t11.5 50.5v359h57v-512h-57v81zM143 694h272v-49h-272v49z" />
    <glyph glyph-name="Ubreve" unicode="&#x16c;" horiz-adv-x="668" 
d="M153 698v-431q0 -58 9 -100.5t30 -70t56 -41t86 -13.5t85.5 13.5t56 41t30.5 70t9 100.5v431h60v-418q0 -77 -13 -132t-41.5 -90.5t-75 -52.5t-113.5 -17t-113 17t-74 52.5t-40 90.5t-12 132v418h60zM332 774q-35 0 -58 10.5t-39 27.5t-27 39t-20 45l33 16l19 -31
q19 -32 37.5 -46.5t54.5 -14.5t54.5 14.5t37.5 46.5l19 31l33 -16q-9 -23 -20 -45t-27 -39t-39.5 -27.5t-57.5 -10.5z" />
    <glyph glyph-name="ubreve" unicode="&#x16d;" horiz-adv-x="563" 
d="M413 81h-4q-7 -18 -19 -35t-30 -29.5t-42.5 -20.5t-57.5 -8q-82 0 -128 50.5t-46 144.5v329h57v-318q0 -79 34 -117t98 -38q27 0 51.5 7t44 21t31 35.5t11.5 50.5v359h57v-512h-57v81zM279 600q-35 0 -58 10.5t-39 27.5t-27 39t-20 45l33 16l19 -31q19 -32 37.5 -46.5
t54.5 -14.5t54.5 14.5t37.5 46.5l19 31l33 -16q-9 -23 -20 -45t-27 -39t-39.5 -27.5t-57.5 -10.5z" />
    <glyph glyph-name="Uring" unicode="&#x16e;" horiz-adv-x="668" 
d="M153 698v-431q0 -58 9 -100.5t30 -70t56 -41t86 -13.5t85.5 13.5t56 41t30.5 70t9 100.5v431h60v-418q0 -77 -13 -132t-41.5 -90.5t-75 -52.5t-113.5 -17t-113 17t-74 52.5t-40 90.5t-12 132v418h60zM332 755q-46 0 -76 29.5t-30 76.5q0 46 30 75.5t76 29.5t76 -29.5
t30 -75.5q0 -47 -30 -76.5t-76 -29.5zM332 792q29 0 46 16t17 44v17q0 29 -17 44.5t-46 15.5t-46 -15.5t-17 -44.5v-17q0 -28 17 -44t46 -16z" />
    <glyph glyph-name="uring" unicode="&#x16f;" horiz-adv-x="563" 
d="M413 81h-4q-7 -18 -19 -35t-30 -29.5t-42.5 -20.5t-57.5 -8q-82 0 -128 50.5t-46 144.5v329h57v-318q0 -79 34 -117t98 -38q27 0 51.5 7t44 21t31 35.5t11.5 50.5v359h57v-512h-57v81zM279 581q-46 0 -76 29.5t-30 76.5q0 46 30 75.5t76 29.5t76 -29.5t30 -75.5
q0 -47 -30 -76.5t-76 -29.5zM279 618q29 0 46 16t17 44v17q0 29 -17 44.5t-46 15.5t-46 -15.5t-17 -44.5v-17q0 -28 17 -44t46 -16z" />
    <glyph glyph-name="Uhungarumlaut" unicode="&#x170;" horiz-adv-x="668" 
d="M153 698v-431q0 -58 9 -100.5t30 -70t56 -41t86 -13.5t85.5 13.5t56 41t30.5 70t9 100.5v431h60v-418q0 -77 -13 -132t-41.5 -90.5t-75 -52.5t-113.5 -17t-113 17t-74 52.5t-40 90.5t-12 132v418h60zM256 760l-35 18l95 163l50 -24zM416 760l-35 18l95 163l50 -24z" />
    <glyph glyph-name="uhungarumlaut" unicode="&#x171;" horiz-adv-x="563" 
d="M413 81h-4q-7 -18 -19 -35t-30 -29.5t-42.5 -20.5t-57.5 -8q-82 0 -128 50.5t-46 144.5v329h57v-318q0 -79 34 -117t98 -38q27 0 51.5 7t44 21t31 35.5t11.5 50.5v359h57v-512h-57v81zM203 586l-35 18l95 163l50 -24zM363 586l-35 18l95 163l50 -24z" />
    <glyph glyph-name="Uogonek" unicode="&#x172;" horiz-adv-x="668" 
d="M153 698v-431q0 -58 9 -100.5t30 -70t56 -41t86 -13.5t85.5 13.5t56 41t30.5 70t9 100.5v431h60v-418q0 -51 -5 -92t-18 -75t-34 -62.5t-54 -53.5q-55 -43 -79 -69.5t-24 -53.5q0 -20 11.5 -29.5t30.5 -9.5q18 0 31 6.5t22 17.5l29 -28q-9 -15 -30 -25.5t-53 -10.5
q-36 0 -62 18t-26 54t27.5 67t81.5 65l-1 2q-39 -13 -90 -13q-67 0 -113 17t-74 52.5t-40 90.5t-12 132v418h60z" />
    <glyph glyph-name="uogonek" unicode="&#x173;" horiz-adv-x="563" 
d="M470 0q-29 -26 -48.5 -44t-30.5 -32t-15.5 -25.5t-4.5 -23.5q0 -21 11.5 -30.5t30.5 -9.5q18 0 31 6.5t22 17.5l30 -28q-10 -15 -30.5 -25.5t-52.5 -10.5q-38 0 -63.5 18t-25.5 56q0 35 26.5 65t74.5 64l-1 2h-11v81h-4q-7 -18 -19 -35t-30 -29.5t-42.5 -20.5t-57.5 -8
q-82 0 -128 50.5t-46 144.5v329h57v-318q0 -79 34 -117t98 -38q27 0 51.5 7t44 21t31 35.5t11.5 50.5v359h57v-512z" />
    <glyph glyph-name="Wcircumflex" unicode="&#x174;" horiz-adv-x="884" 
d="M200 0l-176 698h64l149 -624h3l165 624h73l163 -624h3l154 624h62l-182 -698h-70l-167 631h-2l-169 -631h-70zM476 930l118 -139l-32 -23l-121 120l-121 -120l-32 23l118 139h70z" />
    <glyph glyph-name="wcircumflex" unicode="&#x175;" horiz-adv-x="752" 
d="M33 512h56l123 -461h2l136 461h53l137 -461h2l122 461h55l-144 -512h-70l-129 431h-2l-128 -431h-69zM411 756l118 -139l-32 -23l-121 121l-121 -121l-32 23l118 139h70z" />
    <glyph glyph-name="Ycircumflex" unicode="&#x176;" horiz-adv-x="575" 
d="M257 0v283l-241 415h68l202 -352h3l202 352h68l-242 -412v-286h-60zM323 930l118 -139l-32 -23l-121 120l-121 -120l-32 23l118 139h70z" />
    <glyph glyph-name="ycircumflex" unicode="&#x177;" horiz-adv-x="479" 
d="M399 512h58l-237 -656q-12 -32 -29 -44t-56 -12h-58v50h86l49 135l-190 527h60l157 -451h4zM276 756l118 -139l-32 -23l-121 121l-121 -121l-32 23l118 139h70z" />
    <glyph glyph-name="Ydieresis" unicode="&#x178;" horiz-adv-x="575" 
d="M257 0v283l-241 415h68l202 -352h3l202 352h68l-242 -412v-286h-60zM196 800q-21 0 -30.5 10.5t-9.5 26.5v10q0 16 9.5 26.5t30.5 10.5q20 0 29.5 -10.5t9.5 -26.5v-10q0 -16 -9.5 -26.5t-29.5 -10.5zM380 800q-20 0 -29.5 10.5t-9.5 26.5v10q0 16 9.5 26.5t29.5 10.5
q21 0 30.5 -10.5t9.5 -26.5v-10q0 -16 -9.5 -26.5t-30.5 -10.5z" />
    <glyph glyph-name="Zacute" unicode="&#x179;" horiz-adv-x="570" 
d="M537 0h-500v55l419 590h-397v53h462v-55l-420 -590h436v-53zM289 760l-37 18l95 164l52 -26z" />
    <glyph glyph-name="zacute" unicode="&#x17a;" horiz-adv-x="446" 
d="M31 0v49l310 413h-301v50h369v-45l-314 -417h322v-50h-386zM221 586l-37 18l95 164l52 -26z" />
    <glyph glyph-name="Zdotaccent" unicode="&#x17b;" horiz-adv-x="570" 
d="M537 0h-500v55l419 590h-397v53h462v-55l-420 -590h436v-53zM292 796q-23 0 -33 11.5t-10 29.5v11q0 18 10 29.5t33 11.5t33 -11.5t10 -29.5v-11q0 -18 -10 -29.5t-33 -11.5z" />
    <glyph glyph-name="zdotaccent" unicode="&#x17c;" horiz-adv-x="446" 
d="M31 0v49l310 413h-301v50h369v-45l-314 -417h322v-50h-386zM224 626q-20 0 -30 10t-10 26v10q0 16 10 26t30 10t30 -10t10 -26v-10q0 -16 -10 -26t-30 -10z" />
    <glyph glyph-name="Zcaron" unicode="&#x17d;" horiz-adv-x="570" 
d="M537 0h-500v55l419 590h-397v53h462v-55l-420 -590h436v-53zM257 774l-118 140l32 23l121 -121l121 121l32 -23l-118 -140h-70z" />
    <glyph glyph-name="zcaron" unicode="&#x17e;" horiz-adv-x="446" 
d="M31 0v49l310 413h-301v50h369v-45l-314 -417h322v-50h-386zM189 601l-118 139l32 23l121 -121l121 121l32 -23l-118 -139h-70z" />
    <glyph glyph-name="uni017F" unicode="&#x17f;" horiz-adv-x="267" 
d="M117 462h-88v50h88v143q0 39 19.5 62t60.5 23h90v-50h-113v-690h-57v462z" />
    <glyph glyph-name="uni018F" unicode="&#x18f;" horiz-adv-x="697" 
d="M63 363h508v26q0 129 -59 198t-160 69q-75 0 -130 -39.5t-81 -112.5l-50 25q29 83 97 132t164 49q136 0 209 -93.5t73 -267.5t-75 -267.5t-211 -93.5t-210.5 90t-74.5 271v14zM348 42q49 0 90 18t70.5 52.5t46 84t16.5 112.5v4h-446v-4q0 -63 16.5 -112.5t46 -84
t70.5 -52.5t90 -18z" />
    <glyph glyph-name="florin" unicode="&#x192;" horiz-adv-x="486" 
d="M2 -84h158l39 389h-155l6 52h154l26 258q4 38 26 60.5t64 22.5h142l-5 -50h-166l-29 -291h185l-6 -52h-185l-35 -356q-4 -38 -26 -60.5t-64 -22.5h-134z" />
    <glyph glyph-name="Ohorn" unicode="&#x1a0;" horiz-adv-x="697" 
d="M638 811v-102q0 -22 -10.5 -35.5t-39.5 -13.5h-74q62 -48 91 -126t29 -185q0 -177 -76 -269t-209 -92q-134 0 -210 91.5t-76 269.5t76 269.5t210 91.5q25 0 47.5 -2.5t44.5 -9.5h146v113h51zM349 42q50 0 90.5 17.5t69.5 51.5t45 83t16 111v88q0 62 -16 111t-45 82.5
t-69.5 51.5t-90.5 18t-91 -18t-70 -51.5t-45 -82.5t-16 -111v-88q0 -62 16 -111t45 -83t70 -51.5t91 -17.5z" />
    <glyph glyph-name="ohorn" unicode="&#x1a1;" horiz-adv-x="550" 
d="M497 620v-95q0 -23 -10 -36.5t-39 -13.5h-33q39 -34 61 -88t22 -131q0 -63 -16 -113t-45 -84.5t-70 -52.5t-92 -18t-92 18t-70 52.5t-45 84.5t-16 113t16 112.5t45 84t70 53t92 18.5q20 0 39.5 -3t36.5 -9h95v108h51zM275 39q75 0 118.5 47t43.5 138v64q0 90 -43.5 137.5
t-118.5 47.5t-118.5 -47t-43.5 -138v-64q0 -90 43.5 -137.5t118.5 -47.5z" />
    <glyph glyph-name="Uhorn" unicode="&#x1af;" horiz-adv-x="668" 
d="M153 698v-431q0 -58 9 -100.5t30 -70t56 -41t86 -13.5t85.5 13.5t56 41t30.5 70t9 100.5v431h87v112h51v-102q0 -22 -10.5 -35.5t-39.5 -13.5h-28v-379q0 -77 -13 -132t-41.5 -90.5t-75 -52.5t-113.5 -17t-113 17t-74 52.5t-40 90.5t-12 132v418h60z" />
    <glyph glyph-name="uhorn" unicode="&#x1b0;" horiz-adv-x="564" 
d="M552 522q0 -22 -10.5 -35.5t-39.5 -13.5h-31v-473h-57v81h-4q-7 -18 -19 -35t-30 -29.5t-43 -20.5t-58 -8q-82 0 -128 50.5t-46 144.5v329h57v-318q0 -79 34 -117t98 -38q27 0 52 7t44.5 21t31 35.5t11.5 50.5v359h87v112h51v-102z" />
    <glyph glyph-name="uni01CD" unicode="&#x1cd;" horiz-adv-x="625" 
d="M536 0l-76 217h-297l-76 -217h-60l247 698h77l248 -698h-63zM313 641h-4l-131 -372h266zM278 774l-118 140l32 23l121 -121l121 121l32 -23l-118 -140h-70z" />
    <glyph glyph-name="uni01CE" unicode="&#x1ce;" horiz-adv-x="527" 
d="M445 0q-33 0 -48 17t-17 46v18h-5q-17 -43 -56 -68t-99 -25q-81 0 -125 39.5t-44 111.5q0 68 48.5 108t159.5 40h118v60q0 127 -131 127q-51 0 -85 -21.5t-55 -61.5l-36 30q21 45 64.5 74t113.5 29q90 0 138 -45t48 -126v-303h69v-50h-58zM228 37q31 0 58 8t47.5 22.5
t32 35t11.5 46.5v95h-120q-77 0 -111.5 -24.5t-34.5 -67.5v-24q0 -45 32 -68t85 -23zM217 601l-118 139l32 23l121 -121l121 121l32 -23l-118 -139h-70z" />
    <glyph glyph-name="uni01CF" unicode="&#x1cf;" horiz-adv-x="390" 
d="M63 0v50h102v598h-102v50h264v-50h-102v-598h102v-50h-264zM160 774l-118 140l32 23l121 -121l121 121l32 -23l-118 -140h-70z" />
    <glyph glyph-name="uni01D0" unicode="&#x1d0;" horiz-adv-x="243" 
d="M93 0v512h57v-512h-57zM87 601l-118 139l32 23l121 -121l121 121l32 -23l-118 -139h-70z" />
    <glyph glyph-name="uni01D1" unicode="&#x1d1;" horiz-adv-x="697" 
d="M349 -12q-134 0 -210 91.5t-76 269.5t76 269.5t210 91.5q133 0 209 -92t76 -269t-76 -269t-209 -92zM349 42q50 0 90.5 17.5t69.5 51.5t45 83t16 111v88q0 62 -16 111t-45 82.5t-69.5 51.5t-90.5 18t-91 -18t-70 -51.5t-45 -82.5t-16 -111v-88q0 -62 16 -111t45 -83
t70 -51.5t91 -17.5zM314 774l-118 140l32 23l121 -121l121 121l32 -23l-118 -140h-70z" />
    <glyph glyph-name="uni01D2" unicode="&#x1d2;" horiz-adv-x="550" 
d="M275 -12q-51 0 -92 18t-70 52.5t-45 84.5t-16 113t16 112.5t45 84t70 53t92 18.5t92 -18.5t70 -53t45 -84t16 -112.5t-16 -113t-45 -84.5t-70 -52.5t-92 -18zM275 39q75 0 118.5 47t43.5 138v64q0 90 -43.5 137.5t-118.5 47.5t-118.5 -47t-43.5 -138v-64
q0 -90 43.5 -137.5t118.5 -47.5zM242 601l-118 139l32 23l121 -121l121 121l32 -23l-118 -139h-70z" />
    <glyph glyph-name="uni01D3" unicode="&#x1d3;" horiz-adv-x="668" 
d="M153 698v-431q0 -58 9 -100.5t30 -70t56 -41t86 -13.5t85.5 13.5t56 41t30.5 70t9 100.5v431h60v-418q0 -77 -13 -132t-41.5 -90.5t-75 -52.5t-113.5 -17t-113 17t-74 52.5t-40 90.5t-12 132v418h60zM297 774l-118 140l32 23l121 -121l121 121l32 -23l-118 -140h-70z" />
    <glyph glyph-name="uni01D4" unicode="&#x1d4;" horiz-adv-x="563" 
d="M413 81h-4q-7 -18 -19 -35t-30 -29.5t-42.5 -20.5t-57.5 -8q-82 0 -128 50.5t-46 144.5v329h57v-318q0 -79 34 -117t98 -38q27 0 51.5 7t44 21t31 35.5t11.5 50.5v359h57v-512h-57v81zM244 601l-118 139l32 23l121 -121l121 121l32 -23l-118 -139h-70z" />
    <glyph glyph-name="uni01D5" unicode="&#x1d5;" horiz-adv-x="668" 
d="M153 698v-431q0 -58 9 -100.5t30 -70t56 -41t86 -13.5t85.5 13.5t56 41t30.5 70t9 100.5v431h60v-418q0 -77 -13 -132t-41.5 -90.5t-75 -52.5t-113.5 -17t-113 17t-74 52.5t-40 90.5t-12 132v418h60zM201 983h262v-49h-262v49zM236 785q-20 0 -29.5 10t-9.5 27v10
q0 17 9.5 27t29.5 10t30 -10t10 -27v-10q0 -17 -10 -27t-30 -10zM428 785q-20 0 -30 10t-10 27v10q0 17 10 27t30 10t29.5 -10t9.5 -27v-10q0 -17 -9.5 -27t-29.5 -10z" />
    <glyph glyph-name="uni01D6" unicode="&#x1d6;" horiz-adv-x="563" 
d="M413 81h-4q-7 -18 -19 -35t-30 -29.5t-42.5 -20.5t-57.5 -8q-82 0 -128 50.5t-46 144.5v329h57v-318q0 -79 34 -117t98 -38q27 0 51.5 7t44 21t31 35.5t11.5 50.5v359h57v-512h-57v81zM147 809h262v-49h-262v49zM182 611q-20 0 -29.5 10t-9.5 26v10q0 16 9.5 26t29.5 10
t29.5 -10t9.5 -26v-10q0 -16 -9.5 -26t-29.5 -10zM374 611q-20 0 -29.5 10t-9.5 26v10q0 16 9.5 26t29.5 10t29.5 -10t9.5 -26v-10q0 -16 -9.5 -26t-29.5 -10z" />
    <glyph glyph-name="uni01D7" unicode="&#x1d7;" horiz-adv-x="668" 
d="M153 698v-431q0 -58 9 -100.5t30 -70t56 -41t86 -13.5t85.5 13.5t56 41t30.5 70t9 100.5v431h60v-418q0 -77 -13 -132t-41.5 -90.5t-75 -52.5t-113.5 -17t-113 17t-74 52.5t-40 90.5t-12 132v418h60zM343 872l-36 17l95 164l50 -25zM236 785q-20 0 -29.5 10t-9.5 27v10
q0 17 9.5 27t29.5 10t30 -10t10 -27v-10q0 -17 -10 -27t-30 -10zM428 785q-20 0 -30 10t-10 27v10q0 17 10 27t30 10t29.5 -10t9.5 -27v-10q0 -17 -9.5 -27t-29.5 -10z" />
    <glyph glyph-name="uni01D8" unicode="&#x1d8;" horiz-adv-x="563" 
d="M413 81h-4q-7 -18 -19 -35t-30 -29.5t-42.5 -20.5t-57.5 -8q-82 0 -128 50.5t-46 144.5v329h57v-318q0 -79 34 -117t98 -38q27 0 51.5 7t44 21t31 35.5t11.5 50.5v359h57v-512h-57v81zM289 698l-36 18l95 163l50 -25zM182 611q-20 0 -29.5 10t-9.5 26v10q0 16 9.5 26
t29.5 10t29.5 -10t9.5 -26v-10q0 -16 -9.5 -26t-29.5 -10zM374 611q-20 0 -29.5 10t-9.5 26v10q0 16 9.5 26t29.5 10t29.5 -10t9.5 -26v-10q0 -16 -9.5 -26t-29.5 -10z" />
    <glyph glyph-name="uni01D9" unicode="&#x1d9;" horiz-adv-x="668" 
d="M153 698v-431q0 -58 9 -100.5t30 -70t56 -41t86 -13.5t85.5 13.5t56 41t30.5 70t9 100.5v431h60v-418q0 -77 -13 -132t-41.5 -90.5t-75 -52.5t-113.5 -17t-113 17t-74 52.5t-40 90.5t-12 132v418h60zM297 891l-117 133l30 23l122 -118l122 118l30 -23l-117 -133h-70z
M236 785q-20 0 -29.5 10t-9.5 27v10q0 17 9.5 27t29.5 10t30 -10t10 -27v-10q0 -17 -10 -27t-30 -10zM428 785q-20 0 -30 10t-10 27v10q0 17 10 27t30 10t29.5 -10t9.5 -27v-10q0 -17 -9.5 -27t-29.5 -10z" />
    <glyph glyph-name="uni01DA" unicode="&#x1da;" horiz-adv-x="563" 
d="M413 81h-4q-7 -18 -19 -35t-30 -29.5t-42.5 -20.5t-57.5 -8q-82 0 -128 50.5t-46 144.5v329h57v-318q0 -79 34 -117t98 -38q27 0 51.5 7t44 21t31 35.5t11.5 50.5v359h57v-512h-57v81zM243 717l-117 133l30 23l122 -118l122 118l30 -23l-117 -133h-70zM182 611
q-20 0 -29.5 10t-9.5 26v10q0 16 9.5 26t29.5 10t29.5 -10t9.5 -26v-10q0 -16 -9.5 -26t-29.5 -10zM374 611q-20 0 -29.5 10t-9.5 26v10q0 16 9.5 26t29.5 10t29.5 -10t9.5 -26v-10q0 -16 -9.5 -26t-29.5 -10z" />
    <glyph glyph-name="uni01DB" unicode="&#x1db;" horiz-adv-x="668" 
d="M153 698v-431q0 -58 9 -100.5t30 -70t56 -41t86 -13.5t85.5 13.5t56 41t30.5 70t9 100.5v431h60v-418q0 -77 -13 -132t-41.5 -90.5t-75 -52.5t-113.5 -17t-113 17t-74 52.5t-40 90.5t-12 132v418h60zM212 1028l51 25l95 -164l-36 -17zM236 785q-20 0 -29.5 10t-9.5 27v10
q0 17 9.5 27t29.5 10t30 -10t10 -27v-10q0 -17 -10 -27t-30 -10zM428 785q-20 0 -30 10t-10 27v10q0 17 10 27t30 10t29.5 -10t9.5 -27v-10q0 -17 -9.5 -27t-29.5 -10z" />
    <glyph glyph-name="uni01DC" unicode="&#x1dc;" horiz-adv-x="563" 
d="M413 81h-4q-7 -18 -19 -35t-30 -29.5t-42.5 -20.5t-57.5 -8q-82 0 -128 50.5t-46 144.5v329h57v-318q0 -79 34 -117t98 -38q27 0 51.5 7t44 21t31 35.5t11.5 50.5v359h57v-512h-57v81zM158 854l51 25l95 -163l-36 -18zM182 611q-20 0 -29.5 10t-9.5 26v10q0 16 9.5 26
t29.5 10t29.5 -10t9.5 -26v-10q0 -16 -9.5 -26t-29.5 -10zM374 611q-20 0 -29.5 10t-9.5 26v10q0 16 9.5 26t29.5 10t29.5 -10t9.5 -26v-10q0 -16 -9.5 -26t-29.5 -10z" />
    <glyph glyph-name="Aringacute" unicode="&#x1fa;" horiz-adv-x="625" 
d="M536 0l-76 217h-297l-76 -217h-60l247 698h77l248 -698h-63zM313 641h-4l-131 -372h266zM322 984l-35 15l76 109l50 -20zM313 749q-46 0 -76 29.5t-30 76.5q0 46 30 75.5t76 29.5t76 -29.5t30 -75.5q0 -47 -30 -76.5t-76 -29.5zM313 786q29 0 46 16t17 44v17
q0 29 -17 44.5t-46 15.5t-46 -15.5t-17 -44.5v-17q0 -28 17 -44t46 -16z" />
    <glyph glyph-name="aringacute" unicode="&#x1fb;" horiz-adv-x="527" 
d="M445 0q-33 0 -48 17t-17 46v18h-5q-17 -43 -56 -68t-99 -25q-81 0 -125 39.5t-44 111.5q0 68 48.5 108t159.5 40h118v60q0 127 -131 127q-51 0 -85 -21.5t-55 -61.5l-36 30q21 45 64.5 74t113.5 29q90 0 138 -45t48 -126v-303h69v-50h-58zM228 37q31 0 58 8t47.5 22.5
t32 35t11.5 46.5v95h-120q-77 0 -111.5 -24.5t-34.5 -67.5v-24q0 -45 32 -68t85 -23zM259 808l-31 20l77 110l44 -27zM252 575q-46 0 -76 29.5t-30 76.5q0 46 30 75.5t76 29.5t76 -29.5t30 -75.5q0 -47 -30 -76.5t-76 -29.5zM252 612q29 0 46 16t17 44v17q0 29 -17 44.5
t-46 15.5t-46 -15.5t-17 -44.5v-17q0 -28 17 -44t46 -16z" />
    <glyph glyph-name="AEacute" unicode="&#x1fc;" horiz-adv-x="888" 
d="M413 216h-235l-113 -216h-62l367 698h452v-53h-349v-264h332v-53h-332v-275h349v-53h-409v216zM401 645l-198 -376h210v376h-12zM592 760l-37 18l95 164l52 -26z" />
    <glyph glyph-name="aeacute" unicode="&#x1fd;" horiz-adv-x="863" 
d="M255 245q-77 -1 -111.5 -25.5t-34.5 -67.5v-24q0 -45 31.5 -68t85.5 -23q31 0 58 8t47 22.5t32 35t12 46.5v96h-120zM749 289v8q0 40 -11 73.5t-31.5 56.5t-49 36t-62.5 13q-37 0 -67 -13.5t-51.5 -37.5t-33 -57.5t-11.5 -73.5v-5h317zM599 38q111 0 155 102l42 -27
q-24 -57 -74.5 -91t-119.5 -34q-39 0 -71 10.5t-56.5 27.5t-41 39t-23.5 46h-4q-5 -23 -20 -45.5t-39.5 -39.5t-57 -27.5t-72.5 -10.5q-78 0 -123 39.5t-45 109.5t49 111t159 41h118v58q0 64 -33 96t-96 32q-53 0 -86.5 -21t-55.5 -63l-36 30q21 44 64.5 73.5t114.5 29.5
q41 0 70 -11t48.5 -28.5t29.5 -39.5t14 -44h4q7 23 23.5 45t40.5 39.5t55 28t68 10.5q48 0 87 -18.5t66.5 -51.5t42.5 -79.5t15 -102.5v-27h-379v-25q0 -40 11.5 -73.5t33 -57.5t52.5 -37.5t70 -13.5zM416 586l-37 18l95 164l52 -26z" />
    <glyph glyph-name="Oslashacute" unicode="&#x1fe;" horiz-adv-x="697" 
d="M349 -12q-109 0 -179 62l-62 -90l-42 27l69 98q-72 93 -72 264q0 178 76 269.5t210 91.5q106 0 178 -61l62 89l42 -27l-69 -98q72 -93 72 -264q0 -177 -76 -269t-209 -92zM127 305q0 -52 11 -94.5t31 -74.5l325 466q-56 54 -145 54q-50 0 -91 -18t-70 -51.5t-45 -82.5
t-16 -111v-88zM570 393q0 104 -42 169l-325 -466q55 -54 146 -54q50 0 90.5 17.5t69.5 51.5t45 83t16 111v88zM346 760l-37 18l95 164l52 -26z" />
    <glyph glyph-name="oslashacute" unicode="&#x1ff;" horiz-adv-x="556" 
d="M36 -10l68 84q-23 34 -36 79.5t-13 102.5q0 63 16 112.5t45 84t70 53t92 18.5q87 0 146 -54l65 81l32 -25l-70 -87q24 -34 37 -80t13 -103q0 -63 -16 -113t-45 -84.5t-70 -52.5t-92 -18q-89 0 -147 55l-62 -78zM278 39q75 0 118.5 47t43.5 138v64q0 66 -24 108l-252 -313
q42 -44 114 -44zM116 224q0 -63 23 -107l252 313q-41 43 -113 43q-75 0 -118.5 -47t-43.5 -138v-64zM277 586l-37 18l95 164l52 -26z" />
    <glyph glyph-name="Scommaaccent" unicode="&#x218;" horiz-adv-x="568" 
d="M284 -12q-86 0 -143.5 32.5t-98.5 86.5l45 37q37 -49 83.5 -76t115.5 -27q81 0 124.5 38.5t43.5 107.5q0 64 -37 94t-104 44l-62 13q-100 20 -145 67t-45 120q0 46 16 80.5t45.5 57.5t71 35t91.5 12q78 0 132 -28t89 -79l-45 -33q-29 42 -72.5 64.5t-106.5 22.5
q-75 0 -118.5 -32.5t-43.5 -97.5q0 -62 39 -91t104 -42l62 -13q104 -23 146 -71t42 -120q0 -96 -61 -149t-168 -53zM282 -66q40 0 40 -37v-11q0 -32 -15.5 -64t-38.5 -54h-42q39 42 48 85q-17 2 -24.5 11.5t-7.5 23.5v9q0 37 40 37z" />
    <glyph glyph-name="scommaaccent" unicode="&#x219;" horiz-adv-x="477" 
d="M238 -12q-67 0 -114.5 25t-82.5 73l42 33q32 -42 70 -62t89 -20q59 0 91 25t32 72q0 41 -24.5 64.5t-80.5 31.5l-42 7q-35 5 -64 15t-49.5 27t-32 41.5t-11.5 59.5q0 36 13.5 63t36.5 45t55 27t69 9q64 0 105 -22t70 -57l-38 -35q-20 24 -53.5 44.5t-86.5 20.5
q-55 0 -85.5 -24t-30.5 -68q0 -45 27.5 -65t82.5 -29l41 -6q78 -12 115.5 -46.5t37.5 -96.5q0 -72 -48.5 -112t-133.5 -40zM239 -66q40 0 40 -37v-11q0 -32 -15.5 -64t-38.5 -54h-42q39 42 48 85q-17 2 -24.5 11.5t-7.5 23.5v9q0 37 40 37z" />
    <glyph glyph-name="uni021A" unicode="&#x21a;" horiz-adv-x="568" 
d="M314 645v-645h-60v645h-234v53h528v-53h-234zM284 -66q40 0 40 -37v-11q0 -32 -15.5 -64t-38.5 -54h-42q39 42 48 85q-17 2 -24.5 11.5t-7.5 23.5v9q0 37 40 37z" />
    <glyph glyph-name="uni021B" unicode="&#x21b;" horiz-adv-x="335" 
d="M181 0q-31 0 -47 17t-16 46v399h-89v50h58q21 0 28.5 8.5t7.5 30.5v104h52v-143h116v-50h-116v-412h108v-50h-102zM204 -66q40 0 40 -37v-11q0 -32 -15.5 -64t-38.5 -54h-42q39 42 48 85q-17 2 -24.5 11.5t-7.5 23.5v9q0 37 40 37z" />
    <glyph glyph-name="uni0237" unicode="&#x237;" horiz-adv-x="243" 
d="M8 -150h85v662h57v-627q0 -39 -19 -62t-61 -23h-62v50z" />
    <glyph glyph-name="uni0259" unicode="&#x259;" horiz-adv-x="543" 
d="M430 267v25q0 40 -11 73.5t-32.5 57.5t-52.5 37.5t-71 13.5q-54 0 -93.5 -26t-61.5 -77l-41 28q24 57 75 91t124 34q51 0 93 -18.5t71 -53t45 -84t16 -112.5t-15.5 -113t-45 -84.5t-70.5 -52.5t-92 -18q-50 0 -89.5 18.5t-68 51.5t-43.5 79.5t-15 102.5v27h378zM114 215
q0 -41 11 -74t31.5 -56t48.5 -36t63 -13q37 0 67 13t51 37t32.5 57.5t11.5 74.5v5h-316v-8z" />
    <glyph glyph-name="uni02BB" unicode="&#x2bb;" 
d="M300 597q-39 0 -39 37v11q0 32 15.5 63.5t38.5 54.5h42q-21 -23 -32.5 -44t-16.5 -41q17 -2 25 -11.5t8 -23.5v-9q0 -37 -41 -37z" />
    <glyph glyph-name="uni02BC" unicode="&#x2bc;" 
d="M314 559h-39l14 181h66z" />
    <glyph glyph-name="circumflex" unicode="&#x2c6;" 
d="M335 756l118 -139l-32 -23l-121 121l-121 -121l-32 23l118 139h70z" />
    <glyph glyph-name="caron" unicode="&#x2c7;" 
d="M265 601l-118 139l32 23l121 -121l121 121l32 -23l-118 -139h-70z" />
    <glyph glyph-name="breve" unicode="&#x2d8;" 
d="M300 600q-35 0 -58 10.5t-39 27.5t-27 39t-20 45l33 16l19 -31q19 -32 37.5 -46.5t54.5 -14.5t54.5 14.5t37.5 46.5l19 31l33 -16q-9 -23 -20 -45t-27 -39t-39.5 -27.5t-57.5 -10.5z" />
    <glyph glyph-name="dotaccent" unicode="&#x2d9;" 
d="M300 626q-20 0 -30 10t-10 26v10q0 16 10 26t30 10t30 -10t10 -26v-10q0 -16 -10 -26t-30 -10z" />
    <glyph glyph-name="ring" unicode="&#x2da;" 
d="M300 581q-46 0 -76 29.5t-30 76.5q0 46 30 75.5t76 29.5t76 -29.5t30 -75.5q0 -47 -30 -76.5t-76 -29.5zM300 618q29 0 46 16t17 44v17q0 29 -17 44.5t-46 15.5t-46 -15.5t-17 -44.5v-17q0 -28 17 -44t46 -16z" />
    <glyph glyph-name="ogonek" unicode="&#x2db;" 
d="M252 -205q-37 0 -63 17.5t-26 54.5q0 36 27.5 68t83.5 68l-5 15l40 2l8 -20q-31 -25 -51.5 -43.5t-32.5 -33t-17 -26.5t-5 -24q0 -20 11.5 -29t29.5 -9t31.5 6.5t21.5 17.5l30 -28q-9 -15 -30 -25.5t-53 -10.5z" />
    <glyph glyph-name="tilde" unicode="&#x2dc;" 
d="M372 618q-23 0 -41 8t-38 20q-23 14 -38.5 19.5t-29.5 5.5q-17 0 -31 -8t-30 -22l-25 29q16 20 38 34t51 14q23 0 41 -8t38 -20q23 -14 38.5 -19.5t29.5 -5.5q17 0 31 8t30 22l25 -29q-16 -20 -38 -34t-51 -14z" />
    <glyph glyph-name="hungarumlaut" unicode="&#x2dd;" 
d="M224 586l-35 18l95 163l50 -24zM384 586l-35 18l95 163l50 -24z" />
    <glyph glyph-name="uni0300" unicode="&#x300;" horiz-adv-x="0" 
d="M-106 742l52 26l95 -164l-38 -18z" />
    <glyph glyph-name="uni0301" unicode="&#x301;" horiz-adv-x="0" 
d="M-2 586l-37 18l95 164l52 -26z" />
    <glyph glyph-name="uni0302" unicode="&#x302;" horiz-adv-x="0" 
d="M36 756l118 -139l-32 -23l-121 121l-121 -121l-32 23l118 139h70z" />
    <glyph glyph-name="uni0303" unicode="&#x303;" horiz-adv-x="0" 
d="M73 618q-23 0 -41 8t-38 20q-23 14 -38.5 19.5t-29.5 5.5q-17 0 -31 -8t-30 -22l-25 29q16 20 38 34t51 14q23 0 41 -8t38 -20q23 -14 38.5 -19.5t29.5 -5.5q17 0 31 8t30 22l25 -29q-16 -20 -38 -34t-51 -14z" />
    <glyph glyph-name="uni0304" unicode="&#x304;" horiz-adv-x="0" 
d="M-135 694h272v-49h-272v49z" />
    <glyph glyph-name="uni0306" unicode="&#x306;" horiz-adv-x="0" 
d="M1 600q-35 0 -58 10.5t-39 27.5t-27 39t-20 45l33 16l19 -31q19 -32 37.5 -46.5t54.5 -14.5t54.5 14.5t37.5 46.5l19 31l33 -16q-9 -23 -20 -45t-27 -39t-39.5 -27.5t-57.5 -10.5z" />
    <glyph glyph-name="uni0307" unicode="&#x307;" horiz-adv-x="0" 
d="M1 626q-20 0 -30 10t-10 26v10q0 16 10 26t30 10t30 -10t10 -26v-10q0 -16 -10 -26t-30 -10z" />
    <glyph glyph-name="uni0308" unicode="&#x308;" horiz-adv-x="0" 
d="M-91 627q-21 0 -30 10t-9 26v10q0 16 9 26t30 10q20 0 29.5 -10t9.5 -26v-10q0 -16 -9.5 -26t-29.5 -10zM93 627q-20 0 -29.5 10t-9.5 26v10q0 16 9.5 26t29.5 10q21 0 30 -10t9 -26v-10q0 -16 -9 -26t-30 -10z" />
    <glyph glyph-name="uni0309" unicode="&#x309;" horiz-adv-x="0" 
d="M-80 754h120q28 0 39.5 -11.5t11.5 -28.5q0 -16 -9.5 -36.5t-31.5 -49.5l-34 -48l-35 17l66 113h-127v44z" />
    <glyph glyph-name="uni030A" unicode="&#x30a;" horiz-adv-x="0" 
d="M1 581q-46 0 -76 29.5t-30 76.5q0 46 30 75.5t76 29.5t76 -29.5t30 -75.5q0 -47 -30 -76.5t-76 -29.5zM1 618q29 0 46 16t17 44v17q0 29 -17 44.5t-46 15.5t-46 -15.5t-17 -44.5v-17q0 -28 17 -44t46 -16z" />
    <glyph glyph-name="uni030B" unicode="&#x30b;" horiz-adv-x="0" 
d="M-75 586l-35 18l95 163l50 -24zM85 586l-35 18l95 163l50 -24z" />
    <glyph glyph-name="uni030C" unicode="&#x30c;" horiz-adv-x="0" 
d="M-34 601l-118 139l32 23l121 -121l121 121l32 -23l-118 -139h-70z" />
    <glyph glyph-name="uni0312" unicode="&#x312;" horiz-adv-x="0" 
d="M1 597q-39 0 -39 37v11q0 32 15.5 63.5t38.5 54.5h42q-21 -23 -32.5 -44t-16.5 -41q17 -2 25 -11.5t8 -23.5v-9q0 -37 -41 -37z" />
    <glyph glyph-name="uni0315" unicode="&#x315;" horiz-adv-x="0" 
d="M40 559h-39l14 181h66z" />
    <glyph glyph-name="uni031B" unicode="&#x31b;" horiz-adv-x="0" 
d="M57 522q0 -22 -10.5 -35.5t-39.5 -13.5h-83v39h82v112h51v-102z" />
    <glyph glyph-name="uni0323" unicode="&#x323;" horiz-adv-x="0" 
d="M0 -155q-20 0 -30 10t-10 27v8q0 17 10 27t30 10t30 -10t10 -27v-8q0 -17 -10 -27t-30 -10z" />
    <glyph glyph-name="uni0326" unicode="&#x326;" horiz-adv-x="0" 
d="M0 -66q40 0 40 -37v-11q0 -32 -15.5 -64t-38.5 -54h-42q39 42 48 85q-17 2 -24.5 11.5t-7.5 23.5v9q0 37 40 37z" />
    <glyph glyph-name="uni0327" unicode="&#x327;" horiz-adv-x="0" 
d="M12 -205q-36 0 -59 11.5t-33 25.5l28 31q10 -12 25.5 -20t38.5 -8q22 0 36 9.5t14 29.5q0 16 -13 27t-52 16l-31 3l19 93h38l-17 -79l2 -2q20 5 36 5q29 0 48.5 -16.5t19.5 -47.5q0 -37 -29 -57.5t-71 -20.5z" />
    <glyph glyph-name="uni0328" unicode="&#x328;" horiz-adv-x="0" 
d="M-64 -205q-37 0 -63 17.5t-26 54.5q0 36 27.5 68t83.5 68l-5 15l40 2l8 -20q-31 -25 -51.5 -43.5t-32.5 -33t-17 -26.5t-5 -24q0 -20 11.5 -29t29.5 -9t31.5 6.5t21.5 17.5l30 -28q-9 -15 -30 -25.5t-53 -10.5z" />
    <glyph glyph-name="uni037E" unicode="&#x37e;" horiz-adv-x="280" 
d="M140 92q25 0 36.5 -13t11.5 -33v-13q0 -42 -23.5 -89.5t-62.5 -81.5h-48q33 34 50.5 66t23.5 65q-20 2 -28 13.5t-8 27.5v12q0 20 11.5 33t36.5 13zM140 420q-25 0 -36.5 12.5t-11.5 32.5v11q0 20 11.5 32.5t36.5 12.5q24 0 36 -12.5t12 -32.5v-11q0 -20 -12 -32.5
t-36 -12.5z" />
    <glyph glyph-name="tonos" unicode="&#x384;" 
d="M324 586l-41 6l44 177l57 -10z" />
    <glyph glyph-name="dieresistonos" unicode="&#x385;" 
d="M193 627q-19 0 -27.5 10t-8.5 27v9q0 16 8.5 26t27.5 10t28 -10t9 -26v-9q0 -17 -9 -27t-28 -10zM407 627q-19 0 -28 10t-9 27v9q0 16 9 26t28 10t27.5 -10t8.5 -26v-9q0 -17 -8.5 -27t-27.5 -10zM293 586l-37 6l45 177l52 -10z" />
    <glyph glyph-name="Alphatonos" unicode="&#x386;" horiz-adv-x="625" 
d="M536 0l-76 217h-297l-76 -217h-60l247 698h77l248 -698h-63zM313 641h-4l-131 -372h266zM97 586l-41 6l44 177l57 -10z" />
    <glyph glyph-name="anoteleia" unicode="&#x387;" horiz-adv-x="280" 
d="M140 420q-25 0 -36.5 12.5t-11.5 32.5v11q0 20 11.5 32.5t36.5 12.5q24 0 36 -12.5t12 -32.5v-11q0 -20 -12 -32.5t-36 -12.5z" />
    <glyph glyph-name="Epsilontonos" unicode="&#x388;" horiz-adv-x="598" 
d="M123 0v698h408v-53h-348v-264h331v-53h-331v-275h348v-53h-408zM19 586l-41 6l44 177l57 -10z" />
    <glyph glyph-name="Etatonos" unicode="&#x389;" horiz-adv-x="725" 
d="M566 328h-383v-328h-60v698h60v-317h383v317h60v-698h-60v328zM19 586l-41 6l44 177l57 -10z" />
    <glyph glyph-name="Iotatonos" unicode="&#x38a;" horiz-adv-x="445" 
d="M118 0v50h102v598h-102v50h264v-50h-102v-598h102v-50h-264zM19 586l-41 6l44 177l57 -10z" />
    <glyph glyph-name="Omicrontonos" unicode="&#x38c;" horiz-adv-x="699" 
d="M351 -12q-134 0 -210 91.5t-76 269.5t76 269.5t210 91.5q133 0 209 -92t76 -269t-76 -269t-209 -92zM351 42q50 0 90.5 17.5t69.5 51.5t45 83t16 111v88q0 62 -16 111t-45 82.5t-69.5 51.5t-90.5 18t-91 -18t-70 -51.5t-45 -82.5t-16 -111v-88q0 -62 16 -111t45 -83
t70 -51.5t91 -17.5zM19 586l-41 6l44 177l57 -10z" />
    <glyph glyph-name="Upsilontonos" unicode="&#x38e;" horiz-adv-x="657" 
d="M339 0v283l-241 415h68l202 -352h3l202 352h68l-242 -412v-286h-60zM19 586l-41 6l44 177l57 -10z" />
    <glyph glyph-name="Omegatonos" unicode="&#x38f;" horiz-adv-x="709" 
d="M67 53h166v13q-78 44 -122 119.5t-44 192.5q0 69 17.5 129.5t53.5 105.5t90 71t127 26q72 0 126 -26t90 -71t53.5 -105.5t17.5 -129.5q0 -117 -44 -192.5t-122 -119.5v-13h166v-53h-217v87q25 11 52.5 34t49.5 56t36.5 75t14.5 91v80q0 47 -15.5 89.5t-44.5 74.5
t-70.5 50.5t-92.5 18.5q-52 0 -93.5 -18.5t-70.5 -50.5t-44.5 -74.5t-15.5 -89.5v-80q0 -49 14.5 -91t36.5 -75t49 -56t53 -34v-87h-217v53zM19 586l-41 6l44 177l57 -10z" />
    <glyph glyph-name="iotadieresistonos" unicode="&#x390;" horiz-adv-x="285" 
d="M29 627q-19 0 -27.5 10t-8.5 27v9q0 16 8.5 26t27.5 10t28 -10t9 -26v-9q0 -17 -9 -27t-28 -10zM243 627q-19 0 -28 10t-9 27v9q0 16 9 26t28 10t27.5 -10t8.5 -26v-9q0 -17 -8.5 -27t-27.5 -10zM129 586l-37 6l45 177l52 -10zM258 0h-102q-31 0 -47 17t-16 46v449h57
v-462h108v-50z" />
    <glyph glyph-name="Alpha" unicode="&#x391;" horiz-adv-x="625" 
d="M536 0l-76 217h-297l-76 -217h-60l247 698h77l248 -698h-63zM313 641h-4l-131 -372h266z" />
    <glyph glyph-name="Beta" unicode="&#x392;" horiz-adv-x="638" 
d="M99 698h273q82 0 128.5 -46.5t46.5 -129.5q0 -36 -9.5 -63t-24.5 -45t-34.5 -29t-38.5 -15v-4q24 -3 48 -14.5t43 -32t31 -51t12 -71.5q0 -43 -12.5 -79t-36 -62.5t-56 -41t-72.5 -14.5h-298v698zM159 53h222q63 0 96 34.5t33 89.5v37q0 54 -33 88.5t-96 34.5h-222v-284z
M159 389h207q57 0 87 30.5t30 78.5v38q0 48 -30 78.5t-87 30.5h-207v-256z" />
    <glyph glyph-name="Gamma" unicode="&#x393;" horiz-adv-x="502" 
d="M99 698h370v-53h-310v-645h-60v698z" />
    <glyph glyph-name="uni0394" unicode="&#x394;" horiz-adv-x="626" 
d="M42 53l232 645h78l232 -645v-53h-542v53zM314 641h-4l-207 -588h418z" />
    <glyph glyph-name="Epsilon" unicode="&#x395;" horiz-adv-x="574" 
d="M99 0v698h408v-53h-348v-264h331v-53h-331v-275h348v-53h-408z" />
    <glyph glyph-name="Zeta" unicode="&#x396;" horiz-adv-x="570" 
d="M537 0h-500v55l419 590h-397v53h462v-55l-420 -590h436v-53z" />
    <glyph glyph-name="Eta" unicode="&#x397;" horiz-adv-x="701" 
d="M542 328h-383v-328h-60v698h60v-317h383v317h60v-698h-60v328z" />
    <glyph glyph-name="Theta" unicode="&#x398;" horiz-adv-x="697" 
d="M349 -12q-134 0 -210 91.5t-76 269.5t76 269.5t210 91.5q133 0 209 -92t76 -269t-76 -269t-209 -92zM349 42q50 0 90.5 17.5t69.5 51.5t45 83t16 111v88q0 62 -16 111t-45 82.5t-69.5 51.5t-90.5 18t-91 -18t-70 -51.5t-45 -82.5t-16 -111v-88q0 -62 16 -111t45 -83
t70 -51.5t91 -17.5zM193 327v53h311v-53h-311z" />
    <glyph glyph-name="Iota" unicode="&#x399;" horiz-adv-x="390" 
d="M63 0v50h102v598h-102v50h264v-50h-102v-598h102v-50h-264z" />
    <glyph glyph-name="Kappa" unicode="&#x39a;" horiz-adv-x="610" 
d="M272 360l-113 -125v-235h-60v698h60v-393h2l112 129l230 264h73l-263 -297l276 -401h-74z" />
    <glyph glyph-name="Lambda" unicode="&#x39b;" horiz-adv-x="614" 
d="M345 698l242 -698h-62l-120 354l-97 287h-5l-97 -288l-119 -353h-60l241 698h77z" />
    <glyph glyph-name="Mu" unicode="&#x39c;" horiz-adv-x="804" 
d="M647 621h-4l-241 -427l-241 427h-4v-621h-58v698h82l221 -393h3l221 393h79v-698h-58v621z" />
    <glyph glyph-name="Nu" unicode="&#x39d;" horiz-adv-x="701" 
d="M160 616h-3v-616h-58v698h75l367 -616h3v616h58v-698h-75z" />
    <glyph glyph-name="Xi" unicode="&#x39e;" horiz-adv-x="573" 
d="M67 698h439v-53h-439v53zM104 381h365v-53h-365v53zM67 53h439v-53h-439v53z" />
    <glyph glyph-name="Omicron" unicode="&#x39f;" horiz-adv-x="697" 
d="M349 -12q-134 0 -210 91.5t-76 269.5t76 269.5t210 91.5q133 0 209 -92t76 -269t-76 -269t-209 -92zM349 42q50 0 90.5 17.5t69.5 51.5t45 83t16 111v88q0 62 -16 111t-45 82.5t-69.5 51.5t-90.5 18t-91 -18t-70 -51.5t-45 -82.5t-16 -111v-88q0 -62 16 -111t45 -83
t70 -51.5t91 -17.5z" />
    <glyph glyph-name="Pi" unicode="&#x3a0;" horiz-adv-x="686" 
d="M99 698h488v-698h-60v645h-368v-645h-60v698z" />
    <glyph glyph-name="Rho" unicode="&#x3a1;" horiz-adv-x="601" 
d="M99 0v698h274q91 0 139 -52.5t48 -142.5q0 -91 -48 -143.5t-139 -52.5h-214v-307h-60zM159 360h214q60 0 91.5 33.5t31.5 85.5v48q0 51 -31.5 84.5t-91.5 33.5h-214v-285z" />
    <glyph glyph-name="Sigma" unicode="&#x3a3;" horiz-adv-x="570" 
d="M44 0v55l259 298l-252 290v55h456v-53h-388l253 -291l-262 -301h397v-53h-463z" />
    <glyph glyph-name="Tau" unicode="&#x3a4;" horiz-adv-x="568" 
d="M314 645v-645h-60v645h-234v53h528v-53h-234z" />
    <glyph glyph-name="Upsilon" unicode="&#x3a5;" horiz-adv-x="575" 
d="M257 0v283l-241 415h68l202 -352h3l202 352h68l-242 -412v-286h-60z" />
    <glyph glyph-name="Phi" unicode="&#x3a6;" horiz-adv-x="842" 
d="M391 33h-25q-75 0 -132 23.5t-96 66.5t-59 101.5t-20 129.5q0 70 20 129t59 102t96 66.5t132 23.5h25v50h60v-50h25q75 0 132 -23.5t96 -66.5t59 -102t20 -129q0 -71 -20 -129.5t-59 -101.5t-96 -66.5t-132 -23.5h-25v-62h-60v62zM392 624h-26q-58 0 -103.5 -19
t-76.5 -51.5t-47 -76t-16 -92.5v-62q0 -49 16 -92.5t47 -76t76.5 -51.5t103.5 -19h26v540zM476 84q58 0 103.5 19t76.5 51.5t47 76t16 92.5v62q0 49 -16 92.5t-47 76t-76.5 51.5t-103.5 19h-26v-540h26z" />
    <glyph glyph-name="Chi" unicode="&#x3a7;" horiz-adv-x="592" 
d="M566 0h-72l-198 309h-2l-199 -309h-69l231 355l-224 343h71l191 -295h2l193 295h69l-226 -340z" />
    <glyph glyph-name="Psi" unicode="&#x3a8;" horiz-adv-x="774" 
d="M357 205q-65 0 -117 15t-89.5 47.5t-57.5 83t-20 122.5v225h60v-226q0 -60 16 -101.5t45.5 -67t71 -37t91.5 -11.5v443h60v-443q50 0 91.5 11.5t71 37t45.5 67t16 101.5v226h60v-225q0 -72 -20 -122.5t-57.5 -83t-90 -47.5t-116.5 -15v-205h-60v205z" />
    <glyph glyph-name="uni03A9" unicode="&#x3a9;" horiz-adv-x="709" 
d="M67 53h166v13q-78 44 -122 119.5t-44 192.5q0 69 17.5 129.5t53.5 105.5t90 71t127 26q72 0 126 -26t90 -71t53.5 -105.5t17.5 -129.5q0 -117 -44 -192.5t-122 -119.5v-13h166v-53h-217v87q25 11 52.5 34t49.5 56t36.5 75t14.5 91v80q0 47 -15.5 89.5t-44.5 74.5
t-70.5 50.5t-92.5 18.5q-52 0 -93.5 -18.5t-70.5 -50.5t-44.5 -74.5t-15.5 -89.5v-80q0 -49 14.5 -91t36.5 -75t49 -56t53 -34v-87h-217v53z" />
    <glyph glyph-name="Iotadieresis" unicode="&#x3aa;" horiz-adv-x="390" 
d="M63 0v50h102v598h-102v50h264v-50h-102v-598h102v-50h-264zM104 800q-21 0 -30.5 10.5t-9.5 26.5v10q0 16 9.5 26.5t30.5 10.5q20 0 29.5 -10.5t9.5 -26.5v-10q0 -16 -9.5 -26.5t-29.5 -10.5zM288 800q-20 0 -29.5 10.5t-9.5 26.5v10q0 16 9.5 26.5t29.5 10.5
q21 0 30.5 -10.5t9.5 -26.5v-10q0 -16 -9.5 -26.5t-30.5 -10.5z" />
    <glyph glyph-name="Upsilondieresis" unicode="&#x3ab;" horiz-adv-x="575" 
d="M257 0v283l-241 415h68l202 -352h3l202 352h68l-242 -412v-286h-60zM197 800q-21 0 -30.5 10.5t-9.5 26.5v10q0 16 9.5 26.5t30.5 10.5q20 0 29.5 -10.5t9.5 -26.5v-10q0 -16 -9.5 -26.5t-29.5 -10.5zM381 800q-20 0 -29.5 10.5t-9.5 26.5v10q0 16 9.5 26.5t29.5 10.5
q21 0 30.5 -10.5t9.5 -26.5v-10q0 -16 -9.5 -26.5t-30.5 -10.5z" />
    <glyph glyph-name="alphatonos" unicode="&#x3ac;" horiz-adv-x="640" 
d="M285 586l-41 6l44 177l57 -10zM602 0h-50q-30 0 -46 14t-23 50l-27 137h-4q-27 -114 -73.5 -163.5t-125.5 -49.5q-44 0 -80.5 18t-63 52.5t-41 84.5t-14.5 113t14.5 112.5t41 84t63 53t80.5 18.5q79 0 128 -48.5t73 -164.5h3l26 94l38 107h62l-100 -253l61 -209h58v-50z
M253 39q27 0 48.5 7t39 24t32.5 45.5t29 70.5l25 70l-25 75q-13 42 -28 69t-33 43.5t-39.5 23t-48.5 6.5q-28 0 -53 -12t-44 -36t-30 -58.5t-11 -79.5v-62q0 -45 11 -79.5t30 -58.5t44 -36t53 -12z" />
    <glyph glyph-name="epsilontonos" unicode="&#x3ad;" horiz-adv-x="521" 
d="M483 93q-29 -51 -80.5 -78t-135.5 -27q-100 0 -149 39.5t-49 106.5q0 53 31.5 85.5t91.5 43.5v4q-51 9 -80 37.5t-29 76.5q0 66 51 104.5t142 38.5q77 0 125 -25.5t74 -64.5l-41 -33q-21 32 -58 52t-100 20q-69 0 -100.5 -25t-31.5 -60v-12q0 -37 30 -62.5t81 -25.5h122
v-48h-122q-60 0 -92.5 -24.5t-32.5 -68.5v-15q0 -45 36 -69t104 -24q66 0 107.5 21t64.5 62zM291 586l-41 6l44 177l57 -10z" />
    <glyph glyph-name="etatonos" unicode="&#x3ae;" horiz-adv-x="570" 
d="M311 586l-41 6l44 177l57 -10zM100 0v462h-69v50h63q31 0 47 -17t16 -45v-19h3q17 40 53 66.5t98 26.5q82 0 127.5 -50.5t45.5 -144.5v-529h-57v519q0 78 -33.5 116t-97.5 38q-27 0 -52 -7t-44.5 -21t-31 -35.5t-11.5 -49.5v-360h-57z" />
    <glyph glyph-name="iotatonos" unicode="&#x3af;" horiz-adv-x="285" 
d="M145 586l-41 6l44 177l57 -10zM258 0h-102q-31 0 -47 17t-16 46v449h57v-462h108v-50z" />
    <glyph glyph-name="upsilondieresistonos" unicode="&#x3b0;" horiz-adv-x="560" 
d="M180 627q-19 0 -27.5 10t-8.5 27v9q0 16 8.5 26t27.5 10t28 -10t9 -26v-9q0 -17 -9 -27t-28 -10zM394 627q-19 0 -28 10t-9 27v9q0 16 9 26t28 10t27.5 -10t8.5 -26v-9q0 -17 -8.5 -27t-27.5 -10zM280 586l-37 6l45 177l52 -10zM143 227q0 -101 33 -144.5t104 -43.5
q70 0 103.5 43.5t33.5 144.5v285h57v-273q0 -133 -48.5 -192t-145.5 -59q-98 0 -146 59t-48 192v273h57v-285z" />
    <glyph glyph-name="alpha" unicode="&#x3b1;" horiz-adv-x="640" 
d="M602 0h-50q-30 0 -46 14t-23 50l-27 137h-4q-27 -114 -73.5 -163.5t-125.5 -49.5q-44 0 -80.5 18t-63 52.5t-41 84.5t-14.5 113t14.5 112.5t41 84t63 53t80.5 18.5q79 0 128 -48.5t73 -164.5h3l26 94l38 107h62l-100 -253l61 -209h58v-50zM253 39q27 0 48.5 7t39 24
t32.5 45.5t29 70.5l25 70l-25 75q-13 42 -28 69t-33 43.5t-39.5 23t-48.5 6.5q-28 0 -53 -12t-44 -36t-30 -58.5t-11 -79.5v-62q0 -45 11 -79.5t30 -58.5t44 -36t53 -12z" />
    <glyph glyph-name="beta" unicode="&#x3b2;" horiz-adv-x="578" 
d="M93 518q0 109 50 171.5t151 62.5q41 0 76 -12t60 -35t39 -56t14 -75q0 -37 -10.5 -65.5t-28 -49t-40.5 -33.5t-48 -18v-4q33 -5 63 -18.5t52 -37t35 -58.5t13 -83t-14.5 -88t-41.5 -69t-66 -45.5t-88 -16.5q-58 0 -97 22t-59 57h-3v-267h-57v718zM232 429h64
q63 0 94.5 35.5t31.5 90.5v25q0 54 -34.5 87.5t-96.5 33.5q-72 0 -106.5 -43t-34.5 -133v-386q0 -23 12 -41.5t32 -31.5t46.5 -20t55.5 -7q39 0 69.5 12t51 32.5t31 48.5t10.5 61v33q0 72 -42 112.5t-116 40.5h-68v50z" />
    <glyph glyph-name="gamma" unicode="&#x3b3;" horiz-adv-x="489" 
d="M222 0l-160 462h-54v50h46q25 0 40.5 -9t23.5 -34l91 -267l40 -135h4l45 135l115 310h55l-189 -512v-200h-57v200z" />
    <glyph glyph-name="delta" unicode="&#x3b4;" horiz-adv-x="550" 
d="M229 690l-64 4v-3l144 -122q56 -48 92.5 -88.5t58 -78t30 -75t8.5 -79.5q0 -61 -15.5 -109t-45 -81.5t-70.5 -51.5t-92 -18t-92 18t-70.5 52t-45 82t-15.5 107q0 64 18 113t49.5 83t74.5 51.5t93 17.5v7l-17 16l-157 140v65h342v-50h-226zM437 243q0 34 -4.5 63t-18 57.5
t-37 59t-60.5 67.5q-95 -6 -149.5 -64.5t-54.5 -152.5v-52q0 -87 43.5 -134.5t118.5 -47.5t118.5 47t43.5 132v25z" />
    <glyph glyph-name="epsilon" unicode="&#x3b5;" horiz-adv-x="521" 
d="M483 93q-29 -51 -80.5 -78t-135.5 -27q-100 0 -149 39.5t-49 106.5q0 53 31.5 85.5t91.5 43.5v4q-51 9 -80 37.5t-29 76.5q0 66 51 104.5t142 38.5q77 0 125 -25.5t74 -64.5l-41 -33q-21 32 -58 52t-100 20q-69 0 -100.5 -25t-31.5 -60v-12q0 -37 30 -62.5t81 -25.5h122
v-48h-122q-60 0 -92.5 -24.5t-32.5 -68.5v-15q0 -45 36 -69t104 -24q66 0 107.5 21t64.5 62z" />
    <glyph glyph-name="zeta" unicode="&#x3b6;" horiz-adv-x="428" 
d="M67 740h344v-45l-194 -241q-30 -37 -50 -68t-32.5 -58t-17.5 -51t-5 -46v-14q0 -31 8.5 -55t27.5 -43.5t49 -34t74 -26.5l71 -18q26 -7 38 -21t12 -33q0 -6 -1 -12.5t-3 -13.5l-32 -119l-54 14l35 132l-74 19q-60 15 -100.5 34.5t-65 45.5t-35.5 59.5t-11 78.5
q0 25 5.5 51t18.5 56t35.5 64.5t57.5 77.5l177 218v3l-59 -4h-219v50z" />
    <glyph glyph-name="eta" unicode="&#x3b7;" horiz-adv-x="570" 
d="M100 0v462h-69v50h63q31 0 47 -17t16 -45v-19h3q17 40 53 66.5t98 26.5q82 0 127.5 -50.5t45.5 -144.5v-529h-57v519q0 78 -33.5 116t-97.5 38q-27 0 -52 -7t-44.5 -21t-31 -35.5t-11.5 -49.5v-360h-57z" />
    <glyph glyph-name="theta" unicode="&#x3b8;" horiz-adv-x="557" 
d="M278 752q51 0 91.5 -19t68 -63.5t42.5 -117.5t15 -182t-15 -182t-42.5 -117.5t-68 -63.5t-91.5 -19t-91.5 19t-68 63.5t-42.5 117.5t-15 182t15 182t42.5 117.5t68 63.5t91.5 19zM122 395h312v44q0 73 -10.5 123.5t-30.5 81.5t-49 44.5t-66 13.5t-66 -13.5t-49 -44.5
t-30.5 -81.5t-10.5 -123.5v-44zM278 38q37 0 66 13.5t49 44.5t30.5 81.5t10.5 123.5v44h-312v-44q0 -73 10.5 -123.5t30.5 -81.5t49 -44.5t66 -13.5z" />
    <glyph glyph-name="iota" unicode="&#x3b9;" horiz-adv-x="285" 
d="M258 0h-102q-31 0 -47 17t-16 46v449h57v-462h108v-50z" />
    <glyph glyph-name="kappa" unicode="&#x3ba;" horiz-adv-x="513" 
d="M225 255l-75 -79v-176h-57v512h57v-270h3l61 67l171 182q11 12 22 16.5t27 4.5h47v-50h-55l-161 -171l232 -291h-70z" />
    <glyph glyph-name="lambda" unicode="&#x3bb;" horiz-adv-x="493" 
d="M151 690h-89v50h81q28 0 41.5 -10.5t21.5 -31.5l216 -648h61v-50h-53q-27 0 -41 10.5t-21 31.5l-73 217l-58 193h-4l-67 -194l-99 -258h-57l200 513z" />
    <glyph glyph-name="uni03BC" unicode="&#x3bc;" horiz-adv-x="577" 
d="M93 -200v712h57v-318q0 -79 34 -117t98 -38q27 0 51.5 7t44 21t31 36t11.5 51v358h57v-462h70v-50h-63q-32 0 -48 17t-16 45v19h-4q-17 -43 -51 -68t-88 -25q-52 0 -86 24.5t-50 69.5h-4l13 -139v-143h-57z" />
    <glyph glyph-name="nu" unicode="&#x3bd;" horiz-adv-x="495" 
d="M220 0l-158 462h-54v50h46q25 0 40.5 -9t23.5 -34l70 -211l64 -197h4l69 197l94 254h55l-187 -512h-67z" />
    <glyph glyph-name="xi" unicode="&#x3be;" horiz-adv-x="459" 
d="M296 690q-67 0 -103.5 -38t-36.5 -98v-14q0 -58 33 -90.5t92 -32.5h84v-50h-83q-84 0 -123.5 -38.5t-39.5 -100.5v-15q0 -30 8.5 -53t28 -42t50.5 -33t77 -26l74 -19q26 -7 37.5 -21t11.5 -33q0 -13 -3 -26l-32 -119l-54 14l35 132l-76 19q-62 16 -103.5 35t-67 44
t-36.5 58t-11 77q0 33 10.5 62t30 52t48 38t65.5 20v4q-117 30 -117 151q0 49 25.5 86t74.5 51v6h-137v50h363v-50h-125z" />
    <glyph glyph-name="omicron" unicode="&#x3bf;" horiz-adv-x="550" 
d="M275 -12q-51 0 -92 18t-70 52.5t-45 84.5t-16 113t16 112.5t45 84t70 53t92 18.5t92 -18.5t70 -53t45 -84t16 -112.5t-16 -113t-45 -84.5t-70 -52.5t-92 -18zM275 39q75 0 118.5 47t43.5 138v64q0 90 -43.5 137.5t-118.5 47.5t-118.5 -47t-43.5 -138v-64
q0 -90 43.5 -137.5t118.5 -47.5z" />
    <glyph glyph-name="pi" unicode="&#x3c0;" horiz-adv-x="610" 
d="M471 50h68v-50h-62q-32 0 -47.5 17t-15.5 44v401h-236v-462h-57v462h-95v50h549v-50h-104v-412z" />
    <glyph glyph-name="rho" unicode="&#x3c1;" horiz-adv-x="545" 
d="M65 279q0 55 14 100t41.5 77.5t67.5 50t92 17.5q103 0 157.5 -68.5t54.5 -197.5q0 -131 -56 -200.5t-156 -69.5q-57 0 -96.5 22.5t-58.5 55.5h-3v-266h-57v479zM268 39q81 0 122 48.5t41 136.5v64q0 88 -40 136.5t-114 48.5t-114.5 -49.5t-40.5 -140.5v-144
q0 -23 12 -41.5t32.5 -31.5t46.5 -20t55 -7z" />
    <glyph glyph-name="sigma1" unicode="&#x3c2;" horiz-adv-x="485" 
d="M360 -13l-104 28q-102 27 -153 85t-51 165q0 121 57.5 190t158.5 69q65 0 109 -30.5t67 -82.5l-48 -24q-18 42 -50 64t-80 22q-36 0 -64.5 -13t-48 -36.5t-30 -55.5t-10.5 -71v-54q0 -72 41 -115t127 -66l84 -22q26 -7 37.5 -21t11.5 -33q0 -14 -4 -26l-32 -119l-53 14z
" />
    <glyph glyph-name="sigma" unicode="&#x3c3;" horiz-adv-x="570" 
d="M397 462v-5q52 -28 76.5 -77.5t24.5 -129.5q0 -61 -15.5 -109.5t-45 -82.5t-70.5 -52t-92 -18t-92 18t-70.5 52t-45 82.5t-15.5 109.5q0 121 60.5 191.5t172.5 70.5h259v-50h-147zM285 462q-81 0 -126.5 -48t-45.5 -136v-56q0 -88 43.5 -135.5t118.5 -47.5t118.5 47.5
t43.5 135.5v56q0 60 -20.5 104.5t-65.5 79.5h-66z" />
    <glyph glyph-name="tau" unicode="&#x3c4;" horiz-adv-x="479" 
d="M264 0q-31 0 -47 17t-16 46v399h-175v50h419v-50h-187v-412h116v-50h-110z" />
    <glyph glyph-name="upsilon" unicode="&#x3c5;" horiz-adv-x="560" 
d="M143 227q0 -101 33 -144.5t104 -43.5q70 0 103.5 43.5t33.5 144.5v285h57v-273q0 -133 -48.5 -192t-145.5 -59q-98 0 -146 59t-48 192v273h57v-285z" />
    <glyph glyph-name="phi" unicode="&#x3c6;" horiz-adv-x="699" 
d="M310 -12q-58 0 -105.5 18t-81 52t-51.5 83t-18 112q0 104 35.5 171t101.5 100l32 -41q-56 -27 -82 -79t-26 -130v-43q0 -96 53.5 -144t141.5 -48v234q0 133 43.5 192t121.5 59q81 0 124 -59.5t43 -193.5q0 -143 -72 -213t-203 -70v-188h-57v188zM367 39q101 0 157.5 47
t56.5 149v61q0 97 -27.5 137t-78.5 40q-24 0 -44 -8.5t-34.5 -29.5t-22 -56t-7.5 -87v-253z" />
    <glyph glyph-name="chi" unicode="&#x3c7;" horiz-adv-x="481" 
d="M67 512q26 0 39.5 -9t24.5 -33l110 -253h3l150 295h62l-182 -344l137 -318h64v-50h-56q-26 0 -40 9.5t-24 32.5l-116 275h-2l-156 -317h-62l187 365l-131 297h-64v50h56z" />
    <glyph glyph-name="psi" unicode="&#x3c8;" horiz-adv-x="713" 
d="M328 -200v188q-242 0 -242 259v265h57v-285q0 -100 46.5 -144t138.5 -44v671h57v-671q92 0 138.5 44t46.5 144v285h57v-265q0 -259 -242 -259v-188h-57z" />
    <glyph glyph-name="omega" unicode="&#x3c9;" horiz-adv-x="721" 
d="M389 220q0 -52 7.5 -87t22 -56t34 -29.5t43.5 -8.5q52 0 79.5 40t27.5 137v51q0 81 -26.5 135.5t-81.5 80.5l32 41q67 -32 102 -100t35 -183q0 -134 -43 -193.5t-119 -59.5q-60 0 -94.5 35.5t-45.5 97.5h-4q-11 -62 -45 -97.5t-94 -35.5q-76 0 -119 59.5t-43 193.5
q0 113 35.5 181.5t101.5 101.5l32 -41q-56 -27 -82 -79.5t-26 -136.5v-51q0 -97 27.5 -137t79.5 -40q24 0 43.5 8.5t34 29.5t22 56t7.5 87v129h57v-129z" />
    <glyph glyph-name="iotadieresis" unicode="&#x3ca;" horiz-adv-x="285" 
d="M38 627q-21 0 -30 10t-9 26v10q0 16 9 26t30 10q20 0 29.5 -10t9.5 -26v-10q0 -16 -9.5 -26t-29.5 -10zM222 627q-20 0 -29.5 10t-9.5 26v10q0 16 9.5 26t29.5 10q21 0 30 -10t9 -26v-10q0 -16 -9 -26t-30 -10zM258 0h-102q-31 0 -47 17t-16 46v449h57v-462h108v-50z" />
    <glyph glyph-name="upsilondieresis" unicode="&#x3cb;" horiz-adv-x="560" 
d="M189 627q-21 0 -30 10t-9 26v10q0 16 9 26t30 10q20 0 29.5 -10t9.5 -26v-10q0 -16 -9.5 -26t-29.5 -10zM373 627q-20 0 -29.5 10t-9.5 26v10q0 16 9.5 26t29.5 10q21 0 30 -10t9 -26v-10q0 -16 -9 -26t-30 -10zM143 227q0 -101 33 -144.5t104 -43.5q70 0 103.5 43.5
t33.5 144.5v285h57v-273q0 -133 -48.5 -192t-145.5 -59q-98 0 -146 59t-48 192v273h57v-285z" />
    <glyph glyph-name="omicrontonos" unicode="&#x3cc;" horiz-adv-x="550" 
d="M293 586l-41 6l44 177l57 -10zM275 -12q-51 0 -92 18t-70 52.5t-45 84.5t-16 113t16 112.5t45 84t70 53t92 18.5t92 -18.5t70 -53t45 -84t16 -112.5t-16 -113t-45 -84.5t-70 -52.5t-92 -18zM275 39q75 0 118.5 47t43.5 138v64q0 90 -43.5 137.5t-118.5 47.5t-118.5 -47
t-43.5 -138v-64q0 -90 43.5 -137.5t118.5 -47.5z" />
    <glyph glyph-name="upsilontonos" unicode="&#x3cd;" horiz-adv-x="560" 
d="M296 586l-41 6l44 177l57 -10zM143 227q0 -101 33 -144.5t104 -43.5q70 0 103.5 43.5t33.5 144.5v285h57v-273q0 -133 -48.5 -192t-145.5 -59q-98 0 -146 59t-48 192v273h57v-285z" />
    <glyph glyph-name="omegatonos" unicode="&#x3ce;" horiz-adv-x="721" 
d="M389 220q0 -52 7.5 -87t22 -56t34 -29.5t43.5 -8.5q52 0 79.5 40t27.5 137v51q0 81 -26.5 135.5t-81.5 80.5l32 41q67 -32 102 -100t35 -183q0 -134 -43 -193.5t-119 -59.5q-60 0 -94.5 35.5t-45.5 97.5h-4q-11 -62 -45 -97.5t-94 -35.5q-76 0 -119 59.5t-43 193.5
q0 113 35.5 181.5t101.5 101.5l32 -41q-56 -27 -82 -79.5t-26 -136.5v-51q0 -97 27.5 -137t79.5 -40q24 0 43.5 8.5t34 29.5t22 56t7.5 87v129h57v-129zM375 586l-41 6l44 177l57 -10z" />
    <glyph glyph-name="uni0400" unicode="&#x400;" horiz-adv-x="574" 
d="M99 0v698h408v-53h-348v-264h331v-53h-331v-275h348v-53h-408zM195 916l52 26l95 -164l-38 -18z" />
    <glyph glyph-name="uni0401" unicode="&#x401;" horiz-adv-x="574" 
d="M99 0v698h408v-53h-348v-264h331v-53h-331v-275h348v-53h-408zM210 800q-21 0 -30.5 10.5t-9.5 26.5v10q0 16 9.5 26.5t30.5 10.5q20 0 29.5 -10.5t9.5 -26.5v-10q0 -16 -9.5 -26.5t-29.5 -10.5zM394 800q-20 0 -29.5 10.5t-9.5 26.5v10q0 16 9.5 26.5t29.5 10.5
q21 0 30.5 -10.5t9.5 -26.5v-10q0 -16 -9.5 -26.5t-30.5 -10.5z" />
    <glyph glyph-name="uni0402" unicode="&#x402;" horiz-adv-x="781" 
d="M512 -111h84q29 16 46 54t17 112v136q0 99 -46.5 143t-134.5 44q-51 0 -93 -6.5t-71 -18.5v-353h-60v645h-234v53h528v-53h-234v-239h5q61 25 162 25q121 0 179.5 -58.5t58.5 -181.5v-136q0 -118 -40.5 -168.5t-114.5 -50.5h-52v53z" />
    <glyph glyph-name="uni0403" unicode="&#x403;" horiz-adv-x="502" 
d="M99 698h370v-53h-310v-645h-60v698zM280 760l-37 18l95 164l52 -26z" />
    <glyph glyph-name="uni0404" unicode="&#x404;" horiz-adv-x="623" 
d="M338 -12q-133 0 -204 90.5t-71 268.5q0 177 71 270t204 93q87 0 144.5 -40t89.5 -109l-49 -29q-23 57 -69.5 90.5t-115.5 33.5q-101 0 -156 -70t-55 -200v-6h315v-53h-315v-20q0 -129 55 -197t156 -68q73 0 120.5 35.5t70.5 95.5l48 -29q-31 -72 -91 -114t-148 -42z" />
    <glyph glyph-name="uni0405" unicode="&#x405;" horiz-adv-x="568" 
d="M284 -12q-86 0 -143.5 32.5t-98.5 86.5l45 37q37 -49 83.5 -76t115.5 -27q81 0 124.5 38.5t43.5 107.5q0 64 -37 94t-104 44l-62 13q-100 20 -145 67t-45 120q0 46 16 80.5t45.5 57.5t71 35t91.5 12q78 0 132 -28t89 -79l-45 -33q-29 42 -72.5 64.5t-106.5 22.5
q-75 0 -118.5 -32.5t-43.5 -97.5q0 -62 39 -91t104 -42l62 -13q104 -23 146 -71t42 -120q0 -96 -61 -149t-168 -53z" />
    <glyph glyph-name="uni0406" unicode="&#x406;" horiz-adv-x="390" 
d="M63 0v50h102v598h-102v50h264v-50h-102v-598h102v-50h-264z" />
    <glyph glyph-name="uni0407" unicode="&#x407;" horiz-adv-x="390" 
d="M63 0v50h102v598h-102v50h264v-50h-102v-598h102v-50h-264zM103 800q-21 0 -30.5 10.5t-9.5 26.5v10q0 16 9.5 26.5t30.5 10.5q20 0 29.5 -10.5t9.5 -26.5v-10q0 -16 -9.5 -26.5t-29.5 -10.5zM287 800q-20 0 -29.5 10.5t-9.5 26.5v10q0 16 9.5 26.5t29.5 10.5
q21 0 30.5 -10.5t9.5 -26.5v-10q0 -16 -9.5 -26.5t-30.5 -10.5z" />
    <glyph glyph-name="uni0408" unicode="&#x408;" horiz-adv-x="493" 
d="M399 698v-516q0 -93 -51.5 -143.5t-137.5 -50.5q-74 0 -122 40t-62 106l53 13q12 -46 44.5 -76t88.5 -30q63 0 95 38t32 112v454h-242v53h302z" />
    <glyph glyph-name="uni0409" unicode="&#x409;" horiz-adv-x="1000" 
d="M9 53h69q23 23 41 58t30.5 88.5t19 129t6.5 179.5v190h371v-288h219q91 0 139 -54t48 -151t-48 -151t-139 -54h-279v645h-254v-141q0 -106 -7 -184.5t-20 -134.5t-31.5 -93t-40.5 -59q-18 -18 -38 -25.5t-48 -7.5h-38v53zM765 53q60 0 91.5 35.5t31.5 92.5v48
q0 58 -31.5 93t-91.5 35h-219v-304h219z" />
    <glyph glyph-name="uni040A" unicode="&#x40a;" horiz-adv-x="1036" 
d="M99 698h60v-323h362v323h60v-296h220q91 0 139 -53t48 -148q0 -94 -48 -147.5t-139 -53.5h-280v322h-362v-322h-60v698zM801 53q60 0 91 34t31 90v48q0 57 -31 90.5t-91 33.5h-220v-296h220z" />
    <glyph glyph-name="uni040B" unicode="&#x40b;" horiz-adv-x="791" 
d="M254 645h-234v53h528v-53h-234v-239h5q61 25 165 25q126 0 185.5 -58.5t59.5 -182.5v-190h-60v190q0 100 -47 144t-141 44q-53 0 -95.5 -6.5t-71.5 -18.5v-353h-60v645z" />
    <glyph glyph-name="uni040C" unicode="&#x40c;" horiz-adv-x="644" 
d="M99 698h60v-317h145l157 265q17 29 34 40.5t41 11.5h46v-53h-60l-144 -243q-14 -23 -24 -32t-25 -13v-4q17 -3 30 -13t29 -36l153 -251h60v-53h-57q-21 0 -37 11.5t-33 38.5l-170 279h-145v-329h-60v698zM312 760l-37 18l95 164l52 -26z" />
    <glyph glyph-name="uni040D" unicode="&#x40d;" horiz-adv-x="701" 
d="M99 698h58v-500l-6 -116h3l58 105l337 511h53v-698h-58v500l7 116h-3l-59 -105l-336 -511h-54v698zM242 916l52 26l95 -164l-38 -18z" />
    <glyph glyph-name="uni040E" unicode="&#x40e;" horiz-adv-x="587" 
d="M149 53h98l40 100l-263 545h65l177 -368l46 -103h4l39 105l146 366h62l-255 -636q-15 -37 -35 -49.5t-59 -12.5h-65v53zM303 774q-52 0 -82 24t-48 59l-17 33l50 22l35 -76q13 -10 29 -14.5t33 -4.5t33 4.5t29 14.5l35 76l50 -22l-17 -33q-18 -35 -48 -59t-82 -24z" />
    <glyph glyph-name="uni040F" unicode="&#x40f;" horiz-adv-x="686" 
d="M315 0h-216v698h60v-645h368v645h60v-698h-216v-150h-56v150z" />
    <glyph glyph-name="uni0410" unicode="&#x410;" horiz-adv-x="625" 
d="M536 0l-76 217h-297l-76 -217h-60l247 698h77l248 -698h-63zM313 641h-4l-131 -372h266z" />
    <glyph glyph-name="uni0411" unicode="&#x411;" horiz-adv-x="624" 
d="M99 698h405v-53h-345v-235h219q91 0 138.5 -54t47.5 -151t-47.5 -151t-138.5 -54h-279v698zM378 53q60 0 91 35.5t31 92.5v48q0 58 -31 93t-91 35h-219v-304h219z" />
    <glyph glyph-name="uni0412" unicode="&#x412;" horiz-adv-x="638" 
d="M99 698h273q82 0 128.5 -46.5t46.5 -129.5q0 -36 -9.5 -63t-24.5 -45t-34.5 -29t-38.5 -15v-4q24 -3 48 -14.5t43 -32t31 -51t12 -71.5q0 -43 -12.5 -79t-36 -62.5t-56 -41t-72.5 -14.5h-298v698zM159 53h222q63 0 96 34.5t33 89.5v37q0 54 -33 88.5t-96 34.5h-222v-284z
M159 389h207q57 0 87 30.5t30 78.5v38q0 48 -30 78.5t-87 30.5h-207v-256z" />
    <glyph glyph-name="uni0413" unicode="&#x413;" horiz-adv-x="502" 
d="M99 698h370v-53h-310v-645h-60v698z" />
    <glyph glyph-name="uni0414" unicode="&#x414;" horiz-adv-x="703" 
d="M10 53h72q46 66 70.5 174.5t24.5 272.5v198h393v-645h94v-203h-56v150h-542v-150h-56v203zM510 53v592h-275v-148q0 -165 -22.5 -272.5t-59.5 -167.5v-4h357z" />
    <glyph glyph-name="uni0415" unicode="&#x415;" horiz-adv-x="574" 
d="M99 0v698h408v-53h-348v-264h331v-53h-331v-275h348v-53h-408z" />
    <glyph glyph-name="uni0416" unicode="&#x416;" horiz-adv-x="945" 
d="M43 53h60l129 246q14 26 28 37.5t31 16.5v4q-29 7 -52 51l-119 237h-60v53h49q24 0 41.5 -11.5t31.5 -40.5l133 -265h128v317h59v-317h128l133 265q14 29 31.5 40.5t41.5 11.5h49v-53h-60l-119 -237q-23 -44 -52 -51v-4q17 -5 31 -16.5t28 -37.5l129 -246h60v-53h-57
q-23 0 -38.5 11t-30.5 40l-146 278h-128v-329h-59v329h-128l-146 -278q-15 -29 -30.5 -40t-38.5 -11h-57v53z" />
    <glyph glyph-name="uni0417" unicode="&#x417;" horiz-adv-x="586" 
d="M282 -12q-82 0 -140 30t-96 87l44 35q32 -49 78.5 -73.5t113.5 -24.5q81 0 128.5 35.5t47.5 103.5v19q0 59 -42 94.5t-125 35.5h-110v53h105q77 0 116.5 35t39.5 99v18q0 56 -40 88.5t-114 32.5q-68 0 -109 -23.5t-64 -63.5l-46 29q31 52 83 82t136 30q106 0 162.5 -49
t56.5 -130q0 -75 -37 -116.5t-99 -54.5v-4q33 -4 60.5 -16t47.5 -32.5t31.5 -49.5t11.5 -67q0 -46 -16.5 -83.5t-47.5 -64t-75.5 -41t-100.5 -14.5z" />
    <glyph glyph-name="uni0418" unicode="&#x418;" horiz-adv-x="701" 
d="M99 698h58v-500l-6 -116h3l58 105l337 511h53v-698h-58v500l7 116h-3l-59 -105l-336 -511h-54v698z" />
    <glyph glyph-name="uni0419" unicode="&#x419;" horiz-adv-x="701" 
d="M99 698h58v-500l-6 -116h3l58 105l337 511h53v-698h-58v500l7 116h-3l-59 -105l-336 -511h-54v698zM348 774q-52 0 -82 24t-48 59l-17 33l50 22l35 -76q13 -10 29 -14.5t33 -4.5t33 4.5t29 14.5l35 76l50 -22l-17 -33q-18 -35 -48 -59t-82 -24z" />
    <glyph glyph-name="uni041A" unicode="&#x41a;" horiz-adv-x="644" 
d="M99 698h60v-317h145l157 265q17 29 34 40.5t41 11.5h46v-53h-60l-144 -243q-14 -23 -24 -32t-25 -13v-4q17 -3 30 -13t29 -36l153 -251h60v-53h-57q-21 0 -37 11.5t-33 38.5l-170 279h-145v-329h-60v698z" />
    <glyph glyph-name="uni041B" unicode="&#x41b;" horiz-adv-x="666" 
d="M9 53h69q23 23 41 58t30.5 88.5t19 129t6.5 179.5v190h393v-698h-60v645h-275v-141q0 -106 -7 -184.5t-20.5 -134.5t-32 -93t-40.5 -59q-18 -18 -38 -25.5t-48 -7.5h-38v53z" />
    <glyph glyph-name="uni041C" unicode="&#x41c;" horiz-adv-x="804" 
d="M647 621h-4l-241 -427l-241 427h-4v-621h-58v698h82l221 -393h3l221 393h79v-698h-58v621z" />
    <glyph glyph-name="uni041D" unicode="&#x41d;" horiz-adv-x="701" 
d="M542 328h-383v-328h-60v698h60v-317h383v317h60v-698h-60v328z" />
    <glyph glyph-name="uni041E" unicode="&#x41e;" horiz-adv-x="697" 
d="M349 -12q-134 0 -210 91.5t-76 269.5t76 269.5t210 91.5q133 0 209 -92t76 -269t-76 -269t-209 -92zM349 42q50 0 90.5 17.5t69.5 51.5t45 83t16 111v88q0 62 -16 111t-45 82.5t-69.5 51.5t-90.5 18t-91 -18t-70 -51.5t-45 -82.5t-16 -111v-88q0 -62 16 -111t45 -83
t70 -51.5t91 -17.5z" />
    <glyph glyph-name="uni041F" unicode="&#x41f;" horiz-adv-x="686" 
d="M99 698h488v-698h-60v645h-368v-645h-60v698z" />
    <glyph glyph-name="uni0420" unicode="&#x420;" horiz-adv-x="601" 
d="M99 0v698h274q91 0 139 -52.5t48 -142.5q0 -91 -48 -143.5t-139 -52.5h-214v-307h-60zM159 360h214q60 0 91.5 33.5t31.5 85.5v48q0 51 -31.5 84.5t-91.5 33.5h-214v-285z" />
    <glyph glyph-name="uni0421" unicode="&#x421;" horiz-adv-x="617" 
d="M335 -12q-130 0 -201 90.5t-71 268.5q0 177 71 270t201 93q84 0 141.5 -40t89.5 -109l-49 -29q-23 57 -69.5 90.5t-112.5 33.5q-98 0 -153 -70t-55 -200v-79q0 -129 55 -197t153 -68q70 0 117 35.5t70 95.5l49 -29q-31 -72 -91 -114t-145 -42z" />
    <glyph glyph-name="uni0422" unicode="&#x422;" horiz-adv-x="568" 
d="M314 645v-645h-60v645h-234v53h528v-53h-234z" />
    <glyph glyph-name="uni0423" unicode="&#x423;" horiz-adv-x="587" 
d="M149 53h98l40 100l-263 545h65l177 -368l46 -103h4l39 105l146 366h62l-255 -636q-15 -37 -35 -49.5t-59 -12.5h-65v53z" />
    <glyph glyph-name="uni0424" unicode="&#x424;" horiz-adv-x="832" 
d="M386 61h-41q-69 0 -123 22t-91.5 60t-57 90.5t-19.5 114.5q0 61 20 114t57.5 91t91.5 60t123 22h40v90h60v-90h40q69 0 123 -22t91.5 -60t57.5 -91t20 -114q0 -62 -20 -114.5t-57.5 -90.5t-91.5 -60t-123 -22h-40v-90h-60v90zM387 112v473h-41q-53 0 -95 -17t-71.5 -45.5
t-45.5 -66t-16 -77.5v-62q0 -40 16 -77t45 -65.5t71 -45.5t95 -17h42zM486 112q52 0 94.5 17t72 45.5t45.5 65.5t16 77v62q0 40 -16 77.5t-45.5 66t-72 45.5t-94.5 17h-41v-473h41z" />
    <glyph glyph-name="uni0425" unicode="&#x425;" horiz-adv-x="592" 
d="M566 0h-72l-198 309h-2l-199 -309h-69l231 355l-224 343h71l191 -295h2l193 295h69l-226 -340z" />
    <glyph glyph-name="uni0426" unicode="&#x426;" horiz-adv-x="720" 
d="M626 0h-527v698h60v-645h368v645h60v-645h94v-203h-55v150z" />
    <glyph glyph-name="uni0427" unicode="&#x427;" horiz-adv-x="636" 
d="M477 287h-5q-29 -11 -71.5 -18t-93.5 -7q-127 0 -186 58.5t-59 182.5v195h60v-195q0 -99 47.5 -143.5t139.5 -44.5q107 0 168 25v358h60v-698h-60v287z" />
    <glyph glyph-name="uni0428" unicode="&#x428;" horiz-adv-x="936" 
d="M99 698h60v-645h279v645h60v-645h279v645h60v-698h-738v698z" />
    <glyph glyph-name="uni0429" unicode="&#x429;" horiz-adv-x="970" 
d="M875 0h-776v698h60v-645h279v645h60v-645h279v645h60v-645h94v-203h-56v150z" />
    <glyph glyph-name="uni042A" unicode="&#x42a;" horiz-adv-x="735" 
d="M212 645h-192v53h252v-288h229q91 0 138.5 -54t47.5 -151t-47.5 -151t-138.5 -54h-289v645zM501 53q60 0 91 35.5t31 92.5v48q0 58 -31 93t-91 35h-229v-304h229z" />
    <glyph glyph-name="uni042B" unicode="&#x42b;" horiz-adv-x="854" 
d="M99 698h60v-288h219q91 0 138.5 -54t47.5 -151t-47.5 -151t-138.5 -54h-279v698zM378 53q60 0 91 35.5t31 92.5v48q0 58 -31 93t-91 35h-219v-304h219zM695 698h60v-698h-60v698z" />
    <glyph glyph-name="uni042C" unicode="&#x42c;" horiz-adv-x="622" 
d="M99 698h60v-288h229q91 0 138.5 -54t47.5 -151t-47.5 -151t-138.5 -54h-289v698zM388 53q60 0 91 35.5t31 92.5v48q0 58 -31 93t-91 35h-229v-304h229z" />
    <glyph glyph-name="uni042D" unicode="&#x42d;" horiz-adv-x="623" 
d="M181 380h315v11q0 129 -55 197t-156 68q-69 0 -115.5 -33.5t-69.5 -90.5l-49 29q32 69 90 109t144 40q133 0 204 -90.5t71 -268.5q0 -177 -71 -270t-204 -93q-88 0 -148 42t-91 114l48 29q23 -60 70 -95.5t121 -35.5q101 0 156 70t55 200v15h-315v53z" />
    <glyph glyph-name="uni042E" unicode="&#x42e;" horiz-adv-x="939" 
d="M598 -12q-131 0 -202.5 85.5t-76.5 254.5h-160v-328h-60v698h60v-317h162q5 161 76 245t201 84q133 0 205.5 -90t72.5 -271t-72.5 -271t-205.5 -90zM598 42q100 0 157 67.5t57 195.5v88q0 128 -57 195.5t-157 67.5t-157 -67.5t-57 -195.5v-88q0 -128 57 -195.5t157 -67.5
z" />
    <glyph glyph-name="uni042F" unicode="&#x42f;" horiz-adv-x="636" 
d="M38 53h60l108 207q13 25 23.5 36t28.5 16v5h-3q-91 2 -135 52t-44 135q0 93 48 143.5t139 50.5h274v-698h-60v309h-180l-134 -260q-14 -28 -30 -38.5t-37 -10.5h-58v53zM477 360v285h-214q-60 0 -91 -33.5t-31 -84.5v-48q0 -52 31 -85.5t91 -33.5h214z" />
    <glyph glyph-name="uni0430" unicode="&#x430;" horiz-adv-x="527" 
d="M445 0q-33 0 -48 17t-17 46v18h-5q-17 -43 -56 -68t-99 -25q-81 0 -125 39.5t-44 111.5q0 68 48.5 108t159.5 40h118v60q0 127 -131 127q-51 0 -85 -21.5t-55 -61.5l-36 30q21 45 64.5 74t113.5 29q90 0 138 -45t48 -126v-303h69v-50h-58zM228 37q31 0 58 8t47.5 22.5
t32 35t11.5 46.5v95h-120q-77 0 -111.5 -24.5t-34.5 -67.5v-24q0 -45 32 -68t85 -23z" />
    <glyph glyph-name="uni0431" unicode="&#x431;" horiz-adv-x="556" 
d="M280 -12q-54 0 -95.5 18t-70 54.5t-43.5 89.5t-15 143q0 118 13.5 200t43.5 133.5t79.5 77t121.5 31.5l151 12v-57l-157 -13q-54 -5 -88.5 -21.5t-55.5 -49t-31.5 -83.5t-15.5 -124h3q24 61 65.5 87t101.5 26q100 0 158.5 -70t58.5 -193q0 -60 -15.5 -108t-45 -82
t-71 -52.5t-92.5 -18.5zM283 39q74 0 117 48.5t43 131.5v56q0 91 -44.5 138.5t-120.5 47.5q-78 0 -119 -43.5t-41 -118.5v-74q0 -91 44.5 -138.5t120.5 -47.5z" />
    <glyph glyph-name="uni0432" unicode="&#x432;" horiz-adv-x="555" 
d="M93 512h247q59 0 92.5 -34t33.5 -94q0 -49 -24 -77t-69 -36v-4q57 -6 85 -37.5t28 -82.5q0 -31 -9 -58t-26 -46.5t-42 -31t-57 -11.5h-259v512zM337 48q43 0 65.5 23.5t22.5 60.5v26q0 36 -24 59.5t-70 23.5h-181v-193h187zM323 288q41 0 61.5 21.5t20.5 55.5v25
q0 33 -20 53.5t-58 20.5h-177v-176h173z" />
    <glyph glyph-name="uni0433" unicode="&#x433;" horiz-adv-x="438" 
d="M93 512h314v-50h-257v-462h-57v512z" />
    <glyph glyph-name="uni0434" unicode="&#x434;" horiz-adv-x="578" 
d="M7 50h56q35 54 55 133t20 179v150h325v-462h81v-190h-53v140h-431v-140h-53v190zM406 50v412h-213v-102q0 -106 -20 -184t-49 -126h282z" />
    <glyph glyph-name="uni0435" unicode="&#x435;" horiz-adv-x="543" 
d="M276 -12q-51 0 -92.5 18t-71 52.5t-45 84.5t-15.5 113t15.5 112.5t45 84t70.5 53t92 18.5q49 0 89 -18.5t68 -51.5t43.5 -79.5t15.5 -102.5v-27h-379v-25q0 -40 11.5 -73.5t33 -57.5t52.5 -37.5t70 -13.5q112 0 155 103l42 -28q-24 -57 -75.5 -91t-124.5 -34zM275 476
q-37 0 -67 -13.5t-51.5 -37.5t-33 -57.5t-11.5 -73.5v-5h317v8q0 40 -11 73.5t-31.5 56.5t-49 36t-62.5 13z" />
    <glyph glyph-name="uni0436" unicode="&#x436;" horiz-adv-x="759" 
d="M41 50h59l78 167q11 24 23.5 34.5t28.5 13.5v4q-16 5 -27.5 15t-22.5 32l-73 146h-59v50h48q45 0 68 -47l87 -174h100v221h57v-221h100l87 174q23 47 68 47h48v-50h-59l-73 -146q-11 -22 -22.5 -32t-27.5 -15v-4q16 -3 28.5 -13.5t23.5 -34.5l78 -167h59v-50h-56
q-20 0 -35.5 10.5t-28.5 38.5l-90 193h-100v-242h-57v242h-100l-90 -193q-13 -28 -28.5 -38.5t-35.5 -10.5h-56v50z" />
    <glyph glyph-name="uni0437" unicode="&#x437;" horiz-adv-x="498" 
d="M231 -12q-75 0 -120 26.5t-73 74.5l43 33q22 -40 59 -61.5t91 -21.5q66 0 102 26t36 68v16q0 44 -31 67.5t-86 23.5h-106v48h100q51 0 81.5 24t30.5 63v14q0 38 -31 61t-93 23q-56 0 -90.5 -21.5t-56.5 -59.5l-39 31q24 45 68.5 73t119.5 28q91 0 136.5 -36t45.5 -99
q0 -51 -26.5 -80t-74.5 -39v-4q54 -8 83.5 -39t29.5 -84q0 -72 -53 -113.5t-146 -41.5z" />
    <glyph glyph-name="uni0438" unicode="&#x438;" horiz-adv-x="584" 
d="M93 512h56v-332l-6 -103h4l53 91l238 344h53v-512h-56v332l6 103h-4l-54 -91l-238 -344h-52v512z" />
    <glyph glyph-name="uni0439" unicode="&#x439;" horiz-adv-x="584" 
d="M93 512h56v-332l-6 -103h4l53 91l238 344h53v-512h-56v332l6 103h-4l-54 -91l-238 -344h-52v512zM292 600q-52 0 -82 24t-48 59l-17 33l50 22l35 -76q13 -10 29 -14.5t33 -4.5t33 4.5t29 14.5l35 76l50 -22l-17 -33q-18 -35 -48 -59t-82 -24z" />
    <glyph glyph-name="uni043A" unicode="&#x43a;" horiz-adv-x="538" 
d="M93 512h57v-221h110l117 179q17 26 30.5 34t34.5 8h47v-50h-59l-98 -150q-14 -22 -23.5 -30t-25.5 -13v-4q17 -3 29.5 -12.5t28.5 -36.5l98 -166h59v-50h-57q-19 0 -34 9t-30 35l-117 198h-110v-242h-57v512z" />
    <glyph glyph-name="uni043B" unicode="&#x43b;" horiz-adv-x="555" 
d="M6 50h64q14 18 26.5 43.5t21.5 63t14 88.5t5 119v148h325v-512h-57v462h-213v-100q0 -74 -6.5 -130t-17 -96.5t-24.5 -67.5t-29 -42q-15 -14 -32.5 -20t-40.5 -6h-36v50z" />
    <glyph glyph-name="uni043C" unicode="&#x43c;" horiz-adv-x="690" 
d="M93 512h77l174 -293h4l173 293h76v-512h-56v443h-5l-32 -57l-159 -266l-159 266l-32 57h-5v-443h-56v512z" />
    <glyph glyph-name="uni043D" unicode="&#x43d;" horiz-adv-x="583" 
d="M93 512h57v-221h284v221h57v-512h-57v241h-284v-241h-57v512z" />
    <glyph glyph-name="uni043E" unicode="&#x43e;" horiz-adv-x="550" 
d="M275 -12q-51 0 -92 18t-70 52.5t-45 84.5t-16 113t16 112.5t45 84t70 53t92 18.5t92 -18.5t70 -53t45 -84t16 -112.5t-16 -113t-45 -84.5t-70 -52.5t-92 -18zM275 39q75 0 118.5 47t43.5 138v64q0 90 -43.5 137.5t-118.5 47.5t-118.5 -47t-43.5 -138v-64
q0 -90 43.5 -137.5t118.5 -47.5z" />
    <glyph glyph-name="uni043F" unicode="&#x43f;" horiz-adv-x="571" 
d="M93 512h385v-512h-57v462h-271v-462h-57v512z" />
    <glyph glyph-name="uni0440" unicode="&#x440;" horiz-adv-x="574" 
d="M93 512h57v-82h3q19 43 58 68.5t98 25.5q99 0 155 -70t56 -198t-56 -198t-155 -70q-59 0 -97 25.5t-59 68.5h-3v-282h-57v712zM296 39q77 0 120 49t43 132v72q0 83 -43 132t-120 49q-30 0 -56.5 -8.5t-46.5 -23.5t-31.5 -36t-11.5 -46v-203q0 -27 11.5 -48.5t31.5 -37
t46.5 -23.5t56.5 -8z" />
    <glyph glyph-name="uni0441" unicode="&#x441;" horiz-adv-x="496" 
d="M273 -12q-106 0 -163.5 70t-57.5 198t57.5 198t163.5 70q71 0 115 -31t67 -82l-48 -24q-18 42 -50.5 64t-83.5 22q-78 0 -119 -50t-41 -131v-72q0 -81 41 -131t119 -50q53 0 89 23t58 66l42 -28q-25 -51 -71.5 -81.5t-117.5 -30.5z" />
    <glyph glyph-name="uni0442" unicode="&#x442;" horiz-adv-x="475" 
d="M209 462h-183v50h423v-50h-183v-462h-57v462z" />
    <glyph glyph-name="uni0443" unicode="&#x443;" horiz-adv-x="479" 
d="M399 512h58l-237 -656q-12 -32 -29 -44t-56 -12h-58v50h86l49 135l-190 527h60l157 -451h4z" />
    <glyph glyph-name="uni0444" unicode="&#x444;" horiz-adv-x="741" 
d="M342 59h-3q-18 -30 -45.5 -50.5t-69.5 -20.5q-86 0 -127 66t-41 202t41 202t127 66q42 0 69.5 -20.5t45.5 -50.5h3v257h57v-257h3q18 30 45.5 50.5t69.5 20.5q86 0 127 -66t41 -202t-41 -202t-127 -66q-42 0 -69.5 20.5t-45.5 50.5h-3v-259h-57v259zM237 39q51 0 78.5 26
t27.5 60v262q0 34 -27.5 60t-78.5 26q-63 0 -91 -44.5t-28 -136.5v-72q0 -92 28 -136.5t91 -44.5zM504 39q63 0 91 44.5t28 136.5v72q0 92 -28 136.5t-91 44.5q-51 0 -78.5 -26t-27.5 -60v-262q0 -34 27.5 -60t78.5 -26z" />
    <glyph glyph-name="uni0445" unicode="&#x445;" horiz-adv-x="493" 
d="M26 0l190 258l-183 254h67l146 -209h3l149 209h64l-182 -250l187 -262h-67l-151 216h-2l-157 -216h-64z" />
    <glyph glyph-name="uni0446" unicode="&#x446;" horiz-adv-x="593" 
d="M506 0h-413v512h57v-462h270v462h57v-462h82v-190h-53v140z" />
    <glyph glyph-name="uni0447" unicode="&#x447;" horiz-adv-x="532" 
d="M382 253h-5q-20 -29 -56 -49.5t-98 -20.5q-80 0 -124.5 39t-44.5 121v169h57v-164q0 -60 32 -87t95 -27q64 0 104 23.5t40 66.5v188h57v-512h-57v253z" />
    <glyph glyph-name="uni0448" unicode="&#x448;" horiz-adv-x="791" 
d="M93 512h57v-462h217v462h57v-462h217v462h57v-512h-605v512z" />
    <glyph glyph-name="uni0449" unicode="&#x449;" horiz-adv-x="813" 
d="M727 0h-634v512h57v-462h217v462h57v-462h217v462h57v-462h82v-190h-53v140z" />
    <glyph glyph-name="uni044A" unicode="&#x44a;" horiz-adv-x="589" 
d="M166 462h-140v50h197v-197h156q78 0 121 -42.5t43 -114.5q0 -74 -43 -116t-121 -42h-213v462zM372 50q54 0 82 24t28 66v36q0 42 -28 65.5t-82 23.5h-149v-215h149z" />
    <glyph glyph-name="uni044B" unicode="&#x44b;" horiz-adv-x="704" 
d="M93 512h57v-197h142q78 0 121.5 -42.5t43.5 -115.5t-43 -115t-121 -42h-200v512zM286 50q54 0 81.5 24t27.5 66v36q0 42 -27.5 65.5t-81.5 23.5h-136v-215h136zM554 512h57v-512h-57v512z" />
    <glyph glyph-name="uni044C" unicode="&#x44c;" horiz-adv-x="516" 
d="M93 512h57v-197h155q78 0 121.5 -42.5t43.5 -115.5t-43 -115t-121 -42h-213v512zM299 50q54 0 81.5 24t27.5 66v36q0 42 -27.5 65.5t-81.5 23.5h-149v-215h149z" />
    <glyph glyph-name="uni044D" unicode="&#x44d;" horiz-adv-x="506" 
d="M152 283h240v9q0 82 -41 131.5t-122 49.5q-54 0 -88.5 -22.5t-56.5 -67.5l-43 28q24 51 70.5 82t117.5 31q107 0 165.5 -70t58.5 -198t-58.5 -198t-165.5 -70q-75 0 -120 31t-68 80l47 25q18 -40 52 -62.5t89 -22.5q81 0 122 49.5t41 131.5v14h-240v49z" />
    <glyph glyph-name="uni044E" unicode="&#x44e;" horiz-adv-x="763" 
d="M493 -12q-97 0 -155 66t-62 188h-126v-242h-57v512h57v-221h127q8 113 65 173t151 60q101 0 159.5 -69.5t58.5 -198.5t-58.5 -198.5t-159.5 -69.5zM493 39q73 0 114.5 46.5t41.5 138.5v64q0 92 -41.5 138.5t-114.5 46.5t-114.5 -46.5t-41.5 -138.5v-64q0 -92 41.5 -138.5
t114.5 -46.5z" />
    <glyph glyph-name="uni044F" unicode="&#x44f;" horiz-adv-x="528" 
d="M39 50h57l54 112q17 38 48 44v3q-69 5 -104.5 44.5t-35.5 103.5q0 72 43 113.5t121 41.5h214v-512h-57v204h-148l-74 -154q-13 -29 -28.5 -39.5t-35.5 -10.5h-54v50zM379 253v209h-149q-54 0 -82 -24t-28 -66v-30q0 -42 28 -65.5t82 -23.5h149z" />
    <glyph glyph-name="uni0450" unicode="&#x450;" horiz-adv-x="543" 
d="M276 -12q-51 0 -92.5 18t-71 52.5t-45 84.5t-15.5 113t15.5 112.5t45 84t70.5 53t92 18.5q49 0 89 -18.5t68 -51.5t43.5 -79.5t15.5 -102.5v-27h-379v-25q0 -40 11.5 -73.5t33 -57.5t52.5 -37.5t70 -13.5q112 0 155 103l42 -28q-24 -57 -75.5 -91t-124.5 -34zM275 476
q-37 0 -67 -13.5t-51.5 -37.5t-33 -57.5t-11.5 -73.5v-5h317v8q0 40 -11 73.5t-31.5 56.5t-49 36t-62.5 13zM169 742l52 26l95 -164l-38 -18z" />
    <glyph glyph-name="uni0451" unicode="&#x451;" horiz-adv-x="543" 
d="M276 -12q-51 0 -92.5 18t-71 52.5t-45 84.5t-15.5 113t15.5 112.5t45 84t70.5 53t92 18.5q49 0 89 -18.5t68 -51.5t43.5 -79.5t15.5 -102.5v-27h-379v-25q0 -40 11.5 -73.5t33 -57.5t52.5 -37.5t70 -13.5q112 0 155 103l42 -28q-24 -57 -75.5 -91t-124.5 -34zM275 476
q-37 0 -67 -13.5t-51.5 -37.5t-33 -57.5t-11.5 -73.5v-5h317v8q0 40 -11 73.5t-31.5 56.5t-49 36t-62.5 13zM184 627q-21 0 -30 10t-9 26v10q0 16 9 26t30 10q20 0 29.5 -10t9.5 -26v-10q0 -16 -9.5 -26t-29.5 -10zM368 627q-20 0 -29.5 10t-9.5 26v10q0 16 9.5 26t29.5 10
q21 0 30 -10t9 -26v-10q0 -16 -9 -26t-30 -10z" />
    <glyph glyph-name="uni0452" unicode="&#x452;" horiz-adv-x="564" 
d="M335 -150h85v469q0 78 -33.5 116t-97.5 38q-27 0 -52 -7t-44.5 -21t-31 -35.5t-11.5 -49.5v-360h-57v616h-65v45h65v79h57v-79h155v-45h-155v-185h3q17 41 53 67t98 26q82 0 127.5 -50.5t45.5 -144.5v-446q0 -38 -19 -60.5t-60 -22.5h-63v50z" />
    <glyph glyph-name="uni0453" unicode="&#x453;" horiz-adv-x="438" 
d="M93 512h314v-50h-257v-462h-57v512zM249 586l-37 18l95 164l52 -26z" />
    <glyph glyph-name="uni0454" unicode="&#x454;" horiz-adv-x="506" 
d="M277 -12q-109 0 -167 70t-58 198t58 198t167 70q72 0 116.5 -31t67.5 -82l-48 -24q-18 42 -51 64t-85 22q-82 0 -122.5 -50t-40.5 -131v-9h240v-49h-240v-14q0 -81 40.5 -131t122.5 -50q54 0 90.5 23t58.5 66l42 -28q-25 -51 -72 -81.5t-119 -30.5z" />
    <glyph glyph-name="uni0455" unicode="&#x455;" horiz-adv-x="477" 
d="M238 -12q-67 0 -114.5 25t-82.5 73l42 33q32 -42 70 -62t89 -20q59 0 91 25t32 72q0 41 -24.5 64.5t-80.5 31.5l-42 7q-35 5 -64 15t-49.5 27t-32 41.5t-11.5 59.5q0 36 13.5 63t36.5 45t55 27t69 9q64 0 105 -22t70 -57l-38 -35q-20 24 -53.5 44.5t-86.5 20.5
q-55 0 -85.5 -24t-30.5 -68q0 -45 27.5 -65t82.5 -29l41 -6q78 -12 115.5 -46.5t37.5 -96.5q0 -72 -48.5 -112t-133.5 -40z" />
    <glyph glyph-name="uni0456" unicode="&#x456;" horiz-adv-x="243" 
d="M121 651q-20 0 -29.5 10t-9.5 26v10q0 16 9.5 26t29.5 10t29.5 -10t9.5 -26v-10q0 -16 -9.5 -26t-29.5 -10zM93 512h57v-512h-57v512z" />
    <glyph glyph-name="uni0457" unicode="&#x457;" horiz-adv-x="243" 
d="M93 0v512h57v-512h-57zM30 627q-21 0 -30 10t-9 26v10q0 16 9 26t30 10q20 0 29.5 -10t9.5 -26v-10q0 -16 -9.5 -26t-29.5 -10zM214 627q-20 0 -29.5 10t-9.5 26v10q0 16 9.5 26t29.5 10q21 0 30 -10t9 -26v-10q0 -16 -9 -26t-30 -10z" />
    <glyph glyph-name="uni0458" unicode="&#x458;" horiz-adv-x="243" 
d="M93 512h57v-627q0 -39 -19 -62t-61 -23h-62v50h85v662zM121 651q-20 0 -29.5 10t-9.5 26v10q0 16 9.5 26t29.5 10t29.5 -10t9.5 -26v-10q0 -16 -9.5 -26t-29.5 -10z" />
    <glyph glyph-name="uni0459" unicode="&#x459;" horiz-adv-x="790" 
d="M6 50h64q14 18 26.5 43.5t21.5 63t14 88.5t5 119v148h300v-197h142q78 0 121.5 -42.5t43.5 -115.5t-43 -115t-121 -42h-200v462h-188v-100q0 -74 -6.5 -130t-17 -96.5t-24.5 -67.5t-29 -42q-15 -14 -32.5 -20t-40.5 -6h-36v50zM573 50q54 0 82 24t28 66v36q0 42 -28 65.5
t-82 23.5h-136v-215h136z" />
    <glyph glyph-name="uni045A" unicode="&#x45a;" horiz-adv-x="822" 
d="M93 512h57v-228h262v228h57v-201h143q78 0 121 -41.5t43 -114.5t-43 -114t-121 -41h-200v234h-262v-234h-57v512zM605 50q54 0 82 23t28 65v36q0 42 -28 64.5t-82 22.5h-136v-211h136z" />
    <glyph glyph-name="uni045B" unicode="&#x45b;" horiz-adv-x="563" 
d="M93 0v616h-65v45h65v79h57v-79h155v-45h-155v-185h3q17 40 52.5 66.5t97.5 26.5q82 0 128 -50.5t46 -144.5v-329h-57v319q0 78 -34 116t-98 38q-27 0 -51.5 -7t-44 -21t-31 -35.5t-11.5 -49.5v-360h-57z" />
    <glyph glyph-name="uni045C" unicode="&#x45c;" horiz-adv-x="538" 
d="M93 512h57v-221h110l117 179q17 26 30.5 34t34.5 8h47v-50h-59l-98 -150q-14 -22 -23.5 -30t-25.5 -13v-4q17 -3 29.5 -12.5t28.5 -36.5l98 -166h59v-50h-57q-19 0 -34 9t-30 35l-117 198h-110v-242h-57v512zM273 586l-37 18l95 164l52 -26z" />
    <glyph glyph-name="uni045D" unicode="&#x45d;" horiz-adv-x="584" 
d="M93 512h56v-332l-6 -103h4l53 91l238 344h53v-512h-56v332l6 103h-4l-54 -91l-238 -344h-52v512zM185 742l52 26l95 -164l-38 -18z" />
    <glyph glyph-name="uni045E" unicode="&#x45e;" horiz-adv-x="479" 
d="M399 512h58l-237 -656q-12 -32 -29 -44t-56 -12h-58v50h86l49 135l-190 527h60l157 -451h4zM241 600q-52 0 -82 24t-48 59l-17 33l50 22l35 -76q13 -10 29 -14.5t33 -4.5t33 4.5t29 14.5l35 76l50 -22l-17 -33q-18 -35 -48 -59t-82 -24z" />
    <glyph glyph-name="uni045F" unicode="&#x45f;" horiz-adv-x="571" 
d="M259 0h-166v512h57v-462h271v462h57v-512h-166v-140h-53v140z" />
    <glyph glyph-name="uni0472" unicode="&#x472;" horiz-adv-x="697" 
d="M349 -12q-134 0 -210 91.5t-76 269.5t76 269.5t210 91.5q133 0 209 -92t76 -269t-76 -269t-209 -92zM349 42q50 0 90.5 17.5t69.5 51.5t45 83t16 111v22h-443v-22q0 -62 16 -111t45 -83t70 -51.5t91 -17.5zM127 380h443v13q0 62 -16 111t-45 82.5t-69.5 51.5t-90.5 18
t-91 -18t-70 -51.5t-45 -82.5t-16 -111v-13z" />
    <glyph glyph-name="uni0473" unicode="&#x473;" horiz-adv-x="552" 
d="M276 -12q-51 0 -92.5 18t-70.5 52.5t-45 84.5t-16 113t16 112.5t45 84t70.5 53t92.5 18.5t92.5 -18.5t70.5 -53t45 -84t16 -112.5t-16 -113t-45 -84.5t-70.5 -52.5t-92.5 -18zM276 39q75 0 119 47.5t44 137.5v14h-325v-14q0 -90 43.5 -137.5t118.5 -47.5zM114 283h325v5
q0 91 -44 138t-119 47t-118.5 -47t-43.5 -138v-5z" />
    <glyph glyph-name="uni0490" unicode="&#x490;" horiz-adv-x="502" 
d="M99 698h314v150h56v-203h-310v-645h-60v698z" />
    <glyph glyph-name="uni0491" unicode="&#x491;" horiz-adv-x="438" 
d="M93 512h262v140h52v-190h-257v-462h-57v512z" />
    <glyph glyph-name="uni0492" unicode="&#x492;" horiz-adv-x="522" 
d="M119 348h-100v47h100v303h370v-53h-310v-250h206v-47h-206v-348h-60v348z" />
    <glyph glyph-name="uni0493" unicode="&#x493;" horiz-adv-x="452" 
d="M107 241h-78v44h78v227h315v-50h-258v-177h173v-44h-173v-241h-57v241z" />
    <glyph glyph-name="uni0494" unicode="&#x494;" horiz-adv-x="626" 
d="M346 -111h84q34 17 54 59.5t20 119.5v87q0 99 -47 143t-141 44q-46 0 -88.5 -6.5t-68.5 -17.5v-318h-60v698h362v-53h-302v-273h5q28 11 69 17t86 6q126 0 185.5 -59t59.5 -181v-87q0 -59 -12 -103t-34 -72.5t-52.5 -42.5t-67.5 -14h-52v53z" />
    <glyph glyph-name="uni0495" unicode="&#x495;" horiz-adv-x="533" 
d="M299 -150h86q16 18 25.5 50.5t9.5 92.5v115q0 74 -30.5 102.5t-96.5 28.5q-63 0 -103 -23.5t-40 -66.5v-149h-57v512h314v-50h-257v-242h4q20 29 56.5 49.5t98.5 20.5q82 0 125 -40.5t43 -135.5v-130q0 -96 -33 -140t-85 -44h-60v50z" />
    <glyph glyph-name="uni0496" unicode="&#x496;" horiz-adv-x="956" 
d="M875 0h-30q-23 0 -38.5 11t-30.5 40l-146 278h-128v-329h-59v329h-128l-146 -278q-15 -29 -30.5 -40t-38.5 -11h-57v53h60l129 246q14 26 28 37.5t31 16.5v4q-29 7 -52 51l-119 237h-60v53h49q24 0 41.5 -11.5t31.5 -40.5l133 -265h128v317h59v-317h128l133 265
q14 29 31.5 40.5t41.5 11.5h49v-53h-60l-119 -237q-23 -44 -52 -51v-4q17 -5 31 -16.5t28 -37.5l129 -246h88v-203h-55v150z" />
    <glyph glyph-name="uni0497" unicode="&#x497;" horiz-adv-x="764" 
d="M684 0h-22q-20 0 -35.5 10.5t-28.5 38.5l-90 193h-100v-242h-57v242h-100l-90 -193q-13 -28 -28.5 -38.5t-35.5 -10.5h-56v50h59l78 167q11 24 23.5 34.5t28.5 13.5v4q-16 5 -27.5 15t-22.5 32l-73 146h-59v50h48q45 0 68 -47l87 -174h100v221h57v-221h100l87 174
q23 47 68 47h48v-50h-59l-73 -146q-11 -22 -22.5 -32t-27.5 -15v-4q16 -3 28.5 -13.5t23.5 -34.5l78 -167h78v-190h-53v140z" />
    <glyph glyph-name="uni0498" unicode="&#x498;" horiz-adv-x="586" 
d="M256 -11q-70 4 -122.5 34t-87.5 82l44 35q32 -49 78.5 -73.5t113.5 -24.5q81 0 128.5 35.5t47.5 103.5v19q0 59 -42 94.5t-125 35.5h-110v53h105q77 0 116.5 35t39.5 99v18q0 56 -40 88.5t-114 32.5q-68 0 -109 -23.5t-64 -63.5l-46 29q31 52 83 82t136 30
q106 0 162.5 -49t56.5 -130q0 -75 -37 -116.5t-99 -54.5v-4q33 -4 60.5 -16t47.5 -32.5t31.5 -49.5t11.5 -67q0 -87 -55.5 -140.5t-154.5 -61.5v-139h-56v139z" />
    <glyph glyph-name="uni0499" unicode="&#x499;" horiz-adv-x="498" 
d="M206 -11q-64 5 -103 31t-65 69l43 33q22 -40 59 -61.5t92 -21.5q66 0 101.5 26t35.5 68v16q0 44 -31 67.5t-86 23.5h-106v48h100q52 0 82 24t30 63v14q0 38 -30.5 61t-93.5 23q-55 0 -90 -21.5t-56 -59.5l-40 31q24 45 69 73t119 28q91 0 137 -36t46 -99q0 -51 -26.5 -80
t-74.5 -39v-4q54 -8 83 -39t29 -84q0 -66 -45.5 -107t-125.5 -47v-129h-53v129z" />
    <glyph glyph-name="uni049A" unicode="&#x49a;" horiz-adv-x="653" 
d="M573 0h-29q-21 0 -37 11.5t-33 38.5l-170 279h-145v-329h-60v698h60v-317h145l157 265q17 29 34 40.5t41 11.5h46v-53h-60l-144 -243q-14 -23 -24 -32t-25 -13v-4q17 -3 30 -13t29 -36l153 -251h88v-203h-56v150z" />
    <glyph glyph-name="uni049B" unicode="&#x49b;" horiz-adv-x="545" 
d="M465 0h-24q-19 0 -34 9t-30 35l-117 198h-110v-242h-57v512h57v-221h110l117 179q17 26 30.5 34t34.5 8h47v-50h-59l-98 -150q-14 -22 -23.5 -30t-25.5 -13v-4q17 -3 29.5 -12.5t28.5 -36.5l98 -166h79v-190h-53v140z" />
    <glyph glyph-name="uni049C" unicode="&#x49c;" horiz-adv-x="666" 
d="M99 698h60v-317h67v161h47v-161h60l151 266q17 29 33.5 40t40.5 11h46v-53h-60l-137 -241q-14 -24 -24 -33.5t-25 -13.5v-4q17 -3 29.5 -14t28.5 -38l147 -248h60v-53h-57q-21 0 -36.5 12t-31.5 38l-165 279h-60v-160h-47v160h-67v-329h-60v698z" />
    <glyph glyph-name="uni049D" unicode="&#x49d;" horiz-adv-x="564" 
d="M93 512h57v-221h53v123h44v-123h45l111 179q17 26 30.5 34t34.5 8h47v-50h-59l-93 -150q-14 -23 -24 -31t-24 -12v-4q18 -3 29 -12t26 -35l95 -168h59v-50h-57q-19 0 -34 9t-29 35l-112 198h-45v-122h-44v122h-53v-242h-57v512z" />
    <glyph glyph-name="uni04A0" unicode="&#x4a0;" horiz-adv-x="757" 
d="M212 645h-192v53h252v-317h145l157 265q17 29 34 40.5t41 11.5h46v-53h-60l-144 -243q-14 -23 -24 -32t-25 -13v-4q17 -3 30 -13t29 -36l153 -251h60v-53h-57q-21 0 -37 11.5t-33 38.5l-170 279h-145v-329h-60v645z" />
    <glyph glyph-name="uni04A1" unicode="&#x4a1;" horiz-adv-x="612" 
d="M166 462h-140v50h197v-221h110l117 179q17 26 30.5 34t34.5 8h47v-50h-59l-98 -150q-14 -22 -23.5 -30t-25.5 -13v-4q17 -3 29.5 -12.5t28.5 -36.5l98 -166h59v-50h-57q-19 0 -34 9t-30 35l-117 198h-110v-242h-57v462z" />
    <glyph glyph-name="uni04A2" unicode="&#x4a2;" horiz-adv-x="735" 
d="M640 0h-98v327h-383v-327h-60v698h60v-318h383v318h60v-645h94v-203h-56v150z" />
    <glyph glyph-name="uni04A3" unicode="&#x4a3;" horiz-adv-x="606" 
d="M519 0h-85v241h-284v-241h-57v512h57v-221h284v221h57v-462h81v-190h-53v140z" />
    <glyph glyph-name="uni04A4" unicode="&#x4a4;" horiz-adv-x="923" 
d="M99 698h60v-318h361v318h370v-53h-310v-645h-60v327h-361v-327h-60v698z" />
    <glyph glyph-name="uni04A5" unicode="&#x4a5;" horiz-adv-x="759" 
d="M93 512h57v-221h262v221h315v-50h-258v-462h-57v241h-262v-241h-57v512z" />
    <glyph glyph-name="uni04AA" unicode="&#x4aa;" horiz-adv-x="617" 
d="M308 -11q-117 9 -181 99t-64 259q0 177 71 270t201 93q84 0 141.5 -40t89.5 -109l-49 -29q-23 57 -69.5 90.5t-112.5 33.5q-98 0 -153 -70t-55 -200v-79q0 -129 55 -197t153 -68q70 0 117 35.5t70 95.5l49 -29q-29 -66 -81.5 -106.5t-125.5 -47.5v-140h-56v139z" />
    <glyph glyph-name="uni04AB" unicode="&#x4ab;" horiz-adv-x="497" 
d="M249 -11q-94 8 -145.5 77.5t-51.5 189.5q0 128 57.5 198t163.5 70q71 0 115 -31t67 -82l-48 -24q-18 42 -50.5 64t-83.5 22q-78 0 -119 -50t-41 -131v-72q0 -81 41 -131t119 -50q53 0 89 23t58 66l42 -28q-22 -46 -61.5 -75t-98.5 -36v-129h-53v129z" />
    <glyph glyph-name="uni04AE" unicode="&#x4ae;" horiz-adv-x="575" 
d="M257 0v283l-241 415h68l202 -352h3l202 352h68l-242 -412v-286h-60z" />
    <glyph glyph-name="uni04AF" unicode="&#x4af;" horiz-adv-x="475" 
d="M209 0l-189 512h57l114 -310l44 -135h4l46 135l115 310h55l-189 -512v-200h-57v200z" />
    <glyph glyph-name="uni04B0" unicode="&#x4b0;" horiz-adv-x="575" 
d="M257 236h-172v47h172l-241 415h68l203 -353h3l201 353h68l-243 -415h172v-47h-172v-236h-59v236z" />
    <glyph glyph-name="uni04B1" unicode="&#x4b1;" horiz-adv-x="475" 
d="M209 -45h-127v45h127l-189 512h57l114 -310l44 -135h4l46 135l115 310h55l-189 -512h126v-45h-126v-155h-57v155z" />
    <glyph glyph-name="uni04B2" unicode="&#x4b2;" horiz-adv-x="623" 
d="M564 0h-70l-198 309h-2l-199 -309h-69l231 355l-224 343h71l191 -295h2l193 295h69l-226 -340l199 -305h87v-203h-55v150z" />
    <glyph glyph-name="uni04B3" unicode="&#x4b3;" horiz-adv-x="515" 
d="M457 0h-57l-151 216h-2l-157 -216h-64l190 258l-183 254h67l146 -209h3l149 209h64l-182 -250l151 -212h79v-190h-53v140z" />
    <glyph glyph-name="uni04B6" unicode="&#x4b6;" horiz-adv-x="670" 
d="M575 0h-98v287h-5q-29 -11 -71.5 -18t-93.5 -7q-127 0 -186 58.5t-59 182.5v195h60v-195q0 -99 47.5 -143.5t139.5 -44.5q107 0 168 25v358h60v-645h94v-203h-56v150z" />
    <glyph glyph-name="uni04B7" unicode="&#x4b7;" horiz-adv-x="554" 
d="M467 0h-85v253h-5q-20 -29 -56 -49.5t-98 -20.5q-80 0 -124.5 39t-44.5 121v169h57v-164q0 -60 32 -87t95 -27q64 0 104 23.5t40 66.5v188h57v-462h81v-190h-53v140z" />
    <glyph glyph-name="uni04B8" unicode="&#x4b8;" horiz-adv-x="636" 
d="M477 287h-5q-27 -11 -64 -17t-82 -8v-148h-47v148q-112 7 -164.5 66t-52.5 175v195h60v-195q0 -91 39.5 -135.5t117.5 -51.5v173h47v-174q48 1 86 7.5t65 17.5v358h60v-698h-60v287z" />
    <glyph glyph-name="uni04B9" unicode="&#x4b9;" horiz-adv-x="532" 
d="M382 253h-5q-15 -23 -42.5 -42t-66.5 -24v-96h-44v92q-81 0 -125.5 39.5t-44.5 120.5v169h57v-164q0 -57 29 -84t84 -30v151h44v-150q50 5 82 28t32 61v188h57v-512h-57v253z" />
    <glyph glyph-name="uni04BA" unicode="&#x4ba;" horiz-adv-x="636" 
d="M99 698h60v-287h5q29 11 71.5 18t93.5 7q126 0 185.5 -58.5t59.5 -182.5v-195h-60v195q0 99 -47.5 143.5t-140.5 44.5q-53 0 -95.5 -6.5t-71.5 -18.5v-358h-60v698z" />
    <glyph glyph-name="uni04BB" unicode="&#x4bb;" horiz-adv-x="563" 
d="M93 740h57v-309h3q17 40 53 66.5t98 26.5q82 0 127.5 -50.5t45.5 -144.5v-329h-57v319q0 78 -33.5 116t-97.5 38q-27 0 -52 -7t-44.5 -21t-31 -35.5t-11.5 -49.5v-360h-57v740z" />
    <glyph glyph-name="uni04C0" unicode="&#x4c0;" horiz-adv-x="390" 
d="M63 0v50h102v598h-102v50h264v-50h-102v-598h102v-50h-264z" />
    <glyph glyph-name="uni04C1" unicode="&#x4c1;" horiz-adv-x="945" 
d="M43 53h60l129 246q14 26 28 37.5t31 16.5v4q-29 7 -52 51l-119 237h-60v53h49q24 0 41.5 -11.5t31.5 -40.5l133 -265h128v317h59v-317h128l133 265q14 29 31.5 40.5t41.5 11.5h49v-53h-60l-119 -237q-23 -44 -52 -51v-4q17 -5 31 -16.5t28 -37.5l129 -246h60v-53h-57
q-23 0 -38.5 11t-30.5 40l-146 278h-128v-329h-59v329h-128l-146 -278q-15 -29 -30.5 -40t-38.5 -11h-57v53zM474 774q-52 0 -82 24t-48 59l-17 33l50 22l35 -76q13 -10 29 -14.5t33 -4.5t33 4.5t29 14.5l35 76l50 -22l-17 -33q-18 -35 -48 -59t-82 -24z" />
    <glyph glyph-name="uni04C2" unicode="&#x4c2;" horiz-adv-x="759" 
d="M41 50h59l78 167q11 24 23.5 34.5t28.5 13.5v4q-16 5 -27.5 15t-22.5 32l-73 146h-59v50h48q45 0 68 -47l87 -174h100v221h57v-221h100l87 174q23 47 68 47h48v-50h-59l-73 -146q-11 -22 -22.5 -32t-27.5 -15v-4q16 -3 28.5 -13.5t23.5 -34.5l78 -167h59v-50h-56
q-20 0 -35.5 10.5t-28.5 38.5l-90 193h-100v-242h-57v242h-100l-90 -193q-13 -28 -28.5 -38.5t-35.5 -10.5h-56v50zM378 600q-52 0 -82 24t-48 59l-17 33l50 22l35 -76q13 -10 29 -14.5t33 -4.5t33 4.5t29 14.5l35 76l50 -22l-17 -33q-18 -35 -48 -59t-82 -24z" />
    <glyph glyph-name="uni04CF" unicode="&#x4cf;" horiz-adv-x="243" 
d="M93 740h57v-740h-57v740z" />
    <glyph glyph-name="uni04D0" unicode="&#x4d0;" horiz-adv-x="625" 
d="M536 0l-76 217h-297l-76 -217h-60l247 698h77l248 -698h-63zM313 641h-4l-131 -372h266zM312 774q-52 0 -82 24t-48 59l-17 33l50 22l35 -76q13 -10 29 -14.5t33 -4.5t33 4.5t29 14.5l35 76l50 -22l-17 -33q-18 -35 -48 -59t-82 -24z" />
    <glyph glyph-name="uni04D1" unicode="&#x4d1;" horiz-adv-x="527" 
d="M445 0q-33 0 -48 17t-17 46v18h-5q-17 -43 -56 -68t-99 -25q-81 0 -125 39.5t-44 111.5q0 68 48.5 108t159.5 40h118v60q0 127 -131 127q-51 0 -85 -21.5t-55 -61.5l-36 30q21 45 64.5 74t113.5 29q90 0 138 -45t48 -126v-303h69v-50h-58zM228 37q31 0 58 8t47.5 22.5
t32 35t11.5 46.5v95h-120q-77 0 -111.5 -24.5t-34.5 -67.5v-24q0 -45 32 -68t85 -23zM252 600q-52 0 -82 24t-48 59l-17 33l50 22l35 -76q13 -10 29 -14.5t33 -4.5t33 4.5t29 14.5l35 76l50 -22l-17 -33q-18 -35 -48 -59t-82 -24z" />
    <glyph glyph-name="uni04D2" unicode="&#x4d2;" horiz-adv-x="625" 
d="M536 0l-76 217h-297l-76 -217h-60l247 698h77l248 -698h-63zM313 641h-4l-131 -372h266zM221 800q-21 0 -30.5 10.5t-9.5 26.5v10q0 16 9.5 26.5t30.5 10.5q20 0 29.5 -10.5t9.5 -26.5v-10q0 -16 -9.5 -26.5t-29.5 -10.5zM405 800q-20 0 -29.5 10.5t-9.5 26.5v10
q0 16 9.5 26.5t29.5 10.5q21 0 30.5 -10.5t9.5 -26.5v-10q0 -16 -9.5 -26.5t-30.5 -10.5z" />
    <glyph glyph-name="uni04D3" unicode="&#x4d3;" horiz-adv-x="527" 
d="M445 0q-33 0 -48 17t-17 46v18h-5q-17 -43 -56 -68t-99 -25q-81 0 -125 39.5t-44 111.5q0 68 48.5 108t159.5 40h118v60q0 127 -131 127q-51 0 -85 -21.5t-55 -61.5l-36 30q21 45 64.5 74t113.5 29q90 0 138 -45t48 -126v-303h69v-50h-58zM228 37q31 0 58 8t47.5 22.5
t32 35t11.5 46.5v95h-120q-77 0 -111.5 -24.5t-34.5 -67.5v-24q0 -45 32 -68t85 -23zM160 627q-21 0 -30 10t-9 26v10q0 16 9 26t30 10q20 0 29.5 -10t9.5 -26v-10q0 -16 -9.5 -26t-29.5 -10zM344 627q-20 0 -29.5 10t-9.5 26v10q0 16 9.5 26t29.5 10q21 0 30 -10t9 -26v-10
q0 -16 -9 -26t-30 -10z" />
    <glyph glyph-name="uni04D4" unicode="&#x4d4;" horiz-adv-x="888" 
d="M413 216h-235l-113 -216h-62l367 698h452v-53h-349v-264h332v-53h-332v-275h349v-53h-409v216zM401 645l-198 -376h210v376h-12z" />
    <glyph glyph-name="uni04D5" unicode="&#x4d5;" horiz-adv-x="863" 
d="M255 245q-77 -1 -111.5 -25.5t-34.5 -67.5v-24q0 -45 31.5 -68t85.5 -23q31 0 58 8t47 22.5t32 35t12 46.5v96h-120zM749 289v8q0 40 -11 73.5t-31.5 56.5t-49 36t-62.5 13q-37 0 -67 -13.5t-51.5 -37.5t-33 -57.5t-11.5 -73.5v-5h317zM599 38q111 0 155 102l42 -27
q-24 -57 -74.5 -91t-119.5 -34q-39 0 -71 10.5t-56.5 27.5t-41 39t-23.5 46h-4q-5 -23 -20 -45.5t-39.5 -39.5t-57 -27.5t-72.5 -10.5q-78 0 -123 39.5t-45 109.5t49 111t159 41h118v58q0 64 -33 96t-96 32q-53 0 -86.5 -21t-55.5 -63l-36 30q21 44 64.5 73.5t114.5 29.5
q41 0 70 -11t48.5 -28.5t29.5 -39.5t14 -44h4q7 23 23.5 45t40.5 39.5t55 28t68 10.5q48 0 87 -18.5t66.5 -51.5t42.5 -79.5t15 -102.5v-27h-379v-25q0 -40 11.5 -73.5t33 -57.5t52.5 -37.5t70 -13.5z" />
    <glyph glyph-name="uni04D6" unicode="&#x4d6;" horiz-adv-x="574" 
d="M99 0v698h408v-53h-348v-264h331v-53h-331v-275h348v-53h-408zM301 774q-52 0 -82 24t-48 59l-17 33l50 22l35 -76q13 -10 29 -14.5t33 -4.5t33 4.5t29 14.5l35 76l50 -22l-17 -33q-18 -35 -48 -59t-82 -24z" />
    <glyph glyph-name="uni04D7" unicode="&#x4d7;" horiz-adv-x="543" 
d="M276 -12q-51 0 -92.5 18t-71 52.5t-45 84.5t-15.5 113t15.5 112.5t45 84t70.5 53t92 18.5q49 0 89 -18.5t68 -51.5t43.5 -79.5t15.5 -102.5v-27h-379v-25q0 -40 11.5 -73.5t33 -57.5t52.5 -37.5t70 -13.5q112 0 155 103l42 -28q-24 -57 -75.5 -91t-124.5 -34zM275 476
q-37 0 -67 -13.5t-51.5 -37.5t-33 -57.5t-11.5 -73.5v-5h317v8q0 40 -11 73.5t-31.5 56.5t-49 36t-62.5 13zM276 600q-52 0 -82 24t-48 59l-17 33l50 22l35 -76q13 -10 29 -14.5t33 -4.5t33 4.5t29 14.5l35 76l50 -22l-17 -33q-18 -35 -48 -59t-82 -24z" />
    <glyph glyph-name="uni04D8" unicode="&#x4d8;" horiz-adv-x="697" 
d="M63 363h508v26q0 129 -59 198t-160 69q-75 0 -130 -39.5t-81 -112.5l-50 25q29 83 97 132t164 49q136 0 209 -93.5t73 -267.5t-75 -267.5t-211 -93.5t-210.5 90t-74.5 271v14zM348 42q49 0 90 18t70.5 52.5t46 84t16.5 112.5v4h-446v-4q0 -63 16.5 -112.5t46 -84
t70.5 -52.5t90 -18z" />
    <glyph glyph-name="uni04D9" unicode="&#x4d9;" horiz-adv-x="543" 
d="M430 267v25q0 40 -11 73.5t-32.5 57.5t-52.5 37.5t-71 13.5q-54 0 -93.5 -26t-61.5 -77l-41 28q24 57 75 91t124 34q51 0 93 -18.5t71 -53t45 -84t16 -112.5t-15.5 -113t-45 -84.5t-70.5 -52.5t-92 -18q-50 0 -89.5 18.5t-68 51.5t-43.5 79.5t-15 102.5v27h378zM114 215
q0 -41 11 -74t31.5 -56t48.5 -36t63 -13q37 0 67 13t51 37t32.5 57.5t11.5 74.5v5h-316v-8z" />
    <glyph glyph-name="uni04DC" unicode="&#x4dc;" horiz-adv-x="945" 
d="M43 53h60l129 246q14 26 28 37.5t31 16.5v4q-29 7 -52 51l-119 237h-60v53h49q24 0 41.5 -11.5t31.5 -40.5l133 -265h128v317h59v-317h128l133 265q14 29 31.5 40.5t41.5 11.5h49v-53h-60l-119 -237q-23 -44 -52 -51v-4q17 -5 31 -16.5t28 -37.5l129 -246h60v-53h-57
q-23 0 -38.5 11t-30.5 40l-146 278h-128v-329h-59v329h-128l-146 -278q-15 -29 -30.5 -40t-38.5 -11h-57v53zM383 800q-21 0 -30.5 10.5t-9.5 26.5v10q0 16 9.5 26.5t30.5 10.5q20 0 29.5 -10.5t9.5 -26.5v-10q0 -16 -9.5 -26.5t-29.5 -10.5zM567 800q-20 0 -29.5 10.5
t-9.5 26.5v10q0 16 9.5 26.5t29.5 10.5q21 0 30.5 -10.5t9.5 -26.5v-10q0 -16 -9.5 -26.5t-30.5 -10.5z" />
    <glyph glyph-name="uni04DD" unicode="&#x4dd;" horiz-adv-x="759" 
d="M41 50h59l78 167q11 24 23.5 34.5t28.5 13.5v4q-16 5 -27.5 15t-22.5 32l-73 146h-59v50h48q45 0 68 -47l87 -174h100v221h57v-221h100l87 174q23 47 68 47h48v-50h-59l-73 -146q-11 -22 -22.5 -32t-27.5 -15v-4q16 -3 28.5 -13.5t23.5 -34.5l78 -167h59v-50h-56
q-20 0 -35.5 10.5t-28.5 38.5l-90 193h-100v-242h-57v242h-100l-90 -193q-13 -28 -28.5 -38.5t-35.5 -10.5h-56v50zM286 627q-21 0 -30 10t-9 26v10q0 16 9 26t30 10q20 0 29.5 -10t9.5 -26v-10q0 -16 -9.5 -26t-29.5 -10zM470 627q-20 0 -29.5 10t-9.5 26v10q0 16 9.5 26
t29.5 10q21 0 30 -10t9 -26v-10q0 -16 -9 -26t-30 -10z" />
    <glyph glyph-name="uni04DE" unicode="&#x4de;" horiz-adv-x="586" 
d="M282 -12q-82 0 -140 30t-96 87l44 35q32 -49 78.5 -73.5t113.5 -24.5q81 0 128.5 35.5t47.5 103.5v19q0 59 -42 94.5t-125 35.5h-110v53h105q77 0 116.5 35t39.5 99v18q0 56 -40 88.5t-114 32.5q-68 0 -109 -23.5t-64 -63.5l-46 29q31 52 83 82t136 30q106 0 162.5 -49
t56.5 -130q0 -75 -37 -116.5t-99 -54.5v-4q33 -4 60.5 -16t47.5 -32.5t31.5 -49.5t11.5 -67q0 -46 -16.5 -83.5t-47.5 -64t-75.5 -41t-100.5 -14.5zM197 800q-21 0 -30.5 10.5t-9.5 26.5v10q0 16 9.5 26.5t30.5 10.5q20 0 29.5 -10.5t9.5 -26.5v-10q0 -16 -9.5 -26.5
t-29.5 -10.5zM381 800q-20 0 -29.5 10.5t-9.5 26.5v10q0 16 9.5 26.5t29.5 10.5q21 0 30.5 -10.5t9.5 -26.5v-10q0 -16 -9.5 -26.5t-30.5 -10.5z" />
    <glyph glyph-name="uni04DF" unicode="&#x4df;" horiz-adv-x="498" 
d="M231 -12q-75 0 -120 26.5t-73 74.5l43 33q22 -40 59 -61.5t91 -21.5q66 0 102 26t36 68v16q0 44 -31 67.5t-86 23.5h-106v48h100q51 0 81.5 24t30.5 63v14q0 38 -31 61t-93 23q-56 0 -90.5 -21.5t-56.5 -59.5l-39 31q24 45 68.5 73t119.5 28q91 0 136.5 -36t45.5 -99
q0 -51 -26.5 -80t-74.5 -39v-4q54 -8 83.5 -39t29.5 -84q0 -72 -53 -113.5t-146 -41.5zM144 627q-21 0 -30 10t-9 26v10q0 16 9 26t30 10q20 0 29.5 -10t9.5 -26v-10q0 -16 -9.5 -26t-29.5 -10zM328 627q-20 0 -29.5 10t-9.5 26v10q0 16 9.5 26t29.5 10q21 0 30 -10t9 -26
v-10q0 -16 -9 -26t-30 -10z" />
    <glyph glyph-name="uni04E2" unicode="&#x4e2;" horiz-adv-x="701" 
d="M99 698h58v-500l-6 -116h3l58 105l337 511h53v-698h-58v500l7 116h-3l-59 -105l-336 -511h-54v698zM213 868h272v-49h-272v49z" />
    <glyph glyph-name="uni04E3" unicode="&#x4e3;" horiz-adv-x="584" 
d="M93 512h56v-332l-6 -103h4l53 91l238 344h53v-512h-56v332l6 103h-4l-54 -91l-238 -344h-52v512zM156 694h272v-49h-272v49z" />
    <glyph glyph-name="uni04E4" unicode="&#x4e4;" horiz-adv-x="701" 
d="M99 698h58v-500l-6 -116h3l58 105l337 511h53v-698h-58v500l7 116h-3l-59 -105l-336 -511h-54v698zM257 800q-21 0 -30.5 10.5t-9.5 26.5v10q0 16 9.5 26.5t30.5 10.5q20 0 29.5 -10.5t9.5 -26.5v-10q0 -16 -9.5 -26.5t-29.5 -10.5zM441 800q-20 0 -29.5 10.5t-9.5 26.5
v10q0 16 9.5 26.5t29.5 10.5q21 0 30.5 -10.5t9.5 -26.5v-10q0 -16 -9.5 -26.5t-30.5 -10.5z" />
    <glyph glyph-name="uni04E5" unicode="&#x4e5;" horiz-adv-x="584" 
d="M93 512h56v-332l-6 -103h4l53 91l238 344h53v-512h-56v332l6 103h-4l-54 -91l-238 -344h-52v512zM200 627q-21 0 -30 10t-9 26v10q0 16 9 26t30 10q20 0 29.5 -10t9.5 -26v-10q0 -16 -9.5 -26t-29.5 -10zM384 627q-20 0 -29.5 10t-9.5 26v10q0 16 9.5 26t29.5 10
q21 0 30 -10t9 -26v-10q0 -16 -9 -26t-30 -10z" />
    <glyph glyph-name="uni04E6" unicode="&#x4e6;" horiz-adv-x="697" 
d="M349 -12q-134 0 -210 91.5t-76 269.5t76 269.5t210 91.5q133 0 209 -92t76 -269t-76 -269t-209 -92zM349 42q50 0 90.5 17.5t69.5 51.5t45 83t16 111v88q0 62 -16 111t-45 82.5t-69.5 51.5t-90.5 18t-91 -18t-70 -51.5t-45 -82.5t-16 -111v-88q0 -62 16 -111t45 -83
t70 -51.5t91 -17.5zM257 800q-21 0 -30.5 10.5t-9.5 26.5v10q0 16 9.5 26.5t30.5 10.5q20 0 29.5 -10.5t9.5 -26.5v-10q0 -16 -9.5 -26.5t-29.5 -10.5zM441 800q-20 0 -29.5 10.5t-9.5 26.5v10q0 16 9.5 26.5t29.5 10.5q21 0 30.5 -10.5t9.5 -26.5v-10q0 -16 -9.5 -26.5
t-30.5 -10.5z" />
    <glyph glyph-name="uni04E7" unicode="&#x4e7;" horiz-adv-x="550" 
d="M275 -12q-51 0 -92 18t-70 52.5t-45 84.5t-16 113t16 112.5t45 84t70 53t92 18.5t92 -18.5t70 -53t45 -84t16 -112.5t-16 -113t-45 -84.5t-70 -52.5t-92 -18zM275 39q75 0 118.5 47t43.5 138v64q0 90 -43.5 137.5t-118.5 47.5t-118.5 -47t-43.5 -138v-64
q0 -90 43.5 -137.5t118.5 -47.5zM184 627q-21 0 -30 10t-9 26v10q0 16 9 26t30 10q20 0 29.5 -10t9.5 -26v-10q0 -16 -9.5 -26t-29.5 -10zM368 627q-20 0 -29.5 10t-9.5 26v10q0 16 9.5 26t29.5 10q21 0 30 -10t9 -26v-10q0 -16 -9 -26t-30 -10z" />
    <glyph glyph-name="uni04E8" unicode="&#x4e8;" horiz-adv-x="697" 
d="M349 -12q-134 0 -210 91.5t-76 269.5t76 269.5t210 91.5q133 0 209 -92t76 -269t-76 -269t-209 -92zM349 42q50 0 90.5 17.5t69.5 51.5t45 83t16 111v22h-443v-22q0 -62 16 -111t45 -83t70 -51.5t91 -17.5zM127 380h443v13q0 62 -16 111t-45 82.5t-69.5 51.5t-90.5 18
t-91 -18t-70 -51.5t-45 -82.5t-16 -111v-13z" />
    <glyph glyph-name="uni04E9" unicode="&#x4e9;" horiz-adv-x="552" 
d="M276 -12q-51 0 -92.5 18t-70.5 52.5t-45 84.5t-16 113t16 112.5t45 84t70.5 53t92.5 18.5t92.5 -18.5t70.5 -53t45 -84t16 -112.5t-16 -113t-45 -84.5t-70.5 -52.5t-92.5 -18zM276 39q75 0 119 47.5t44 137.5v14h-325v-14q0 -90 43.5 -137.5t118.5 -47.5zM114 283h325v5
q0 91 -44 138t-119 47t-118.5 -47t-43.5 -138v-5z" />
    <glyph glyph-name="uni04EE" unicode="&#x4ee;" horiz-adv-x="587" 
d="M149 53h98l40 100l-263 545h65l177 -368l46 -103h4l39 105l146 366h62l-255 -636q-15 -37 -35 -49.5t-59 -12.5h-65v53zM168 868h272v-49h-272v49z" />
    <glyph glyph-name="uni04EF" unicode="&#x4ef;" horiz-adv-x="479" 
d="M399 512h58l-237 -656q-12 -32 -29 -44t-56 -12h-58v50h86l49 135l-190 527h60l157 -451h4zM105 694h272v-49h-272v49z" />
    <glyph glyph-name="uni04F0" unicode="&#x4f0;" horiz-adv-x="587" 
d="M149 53h98l40 100l-263 545h65l177 -368l46 -103h4l39 105l146 366h62l-255 -636q-15 -37 -35 -49.5t-59 -12.5h-65v53zM212 800q-21 0 -30.5 10.5t-9.5 26.5v10q0 16 9.5 26.5t30.5 10.5q20 0 29.5 -10.5t9.5 -26.5v-10q0 -16 -9.5 -26.5t-29.5 -10.5zM396 800
q-20 0 -29.5 10.5t-9.5 26.5v10q0 16 9.5 26.5t29.5 10.5q21 0 30.5 -10.5t9.5 -26.5v-10q0 -16 -9.5 -26.5t-30.5 -10.5z" />
    <glyph glyph-name="uni04F1" unicode="&#x4f1;" horiz-adv-x="479" 
d="M399 512h58l-237 -656q-12 -32 -29 -44t-56 -12h-58v50h86l49 135l-190 527h60l157 -451h4zM149 627q-21 0 -30 10t-9 26v10q0 16 9 26t30 10q20 0 29.5 -10t9.5 -26v-10q0 -16 -9.5 -26t-29.5 -10zM333 627q-20 0 -29.5 10t-9.5 26v10q0 16 9.5 26t29.5 10q21 0 30 -10
t9 -26v-10q0 -16 -9 -26t-30 -10z" />
    <glyph glyph-name="uni04F2" unicode="&#x4f2;" horiz-adv-x="587" 
d="M149 53h98l40 100l-263 545h65l177 -368l46 -103h4l39 105l146 366h62l-255 -636q-15 -37 -35 -49.5t-59 -12.5h-65v53zM228 760l-35 18l95 163l50 -24zM388 760l-35 18l95 163l50 -24z" />
    <glyph glyph-name="uni04F3" unicode="&#x4f3;" horiz-adv-x="479" 
d="M399 512h58l-237 -656q-12 -32 -29 -44t-56 -12h-58v50h86l49 135l-190 527h60l157 -451h4zM165 586l-35 18l95 163l50 -24zM325 586l-35 18l95 163l50 -24z" />
    <glyph glyph-name="uni04F4" unicode="&#x4f4;" horiz-adv-x="636" 
d="M477 287h-5q-29 -11 -71.5 -18t-93.5 -7q-127 0 -186 58.5t-59 182.5v195h60v-195q0 -99 47.5 -143.5t139.5 -44.5q107 0 168 25v358h60v-698h-60v287zM208 800q-21 0 -30.5 10.5t-9.5 26.5v10q0 16 9.5 26.5t30.5 10.5q20 0 29.5 -10.5t9.5 -26.5v-10q0 -16 -9.5 -26.5
t-29.5 -10.5zM392 800q-20 0 -29.5 10.5t-9.5 26.5v10q0 16 9.5 26.5t29.5 10.5q21 0 30.5 -10.5t9.5 -26.5v-10q0 -16 -9.5 -26.5t-30.5 -10.5z" />
    <glyph glyph-name="uni04F5" unicode="&#x4f5;" horiz-adv-x="532" 
d="M382 253h-5q-20 -29 -56 -49.5t-98 -20.5q-80 0 -124.5 39t-44.5 121v169h57v-164q0 -60 32 -87t95 -27q64 0 104 23.5t40 66.5v188h57v-512h-57v253zM155 627q-21 0 -30 10t-9 26v10q0 16 9 26t30 10q20 0 29.5 -10t9.5 -26v-10q0 -16 -9.5 -26t-29.5 -10zM339 627
q-20 0 -29.5 10t-9.5 26v10q0 16 9.5 26t29.5 10q21 0 30 -10t9 -26v-10q0 -16 -9 -26t-30 -10z" />
    <glyph glyph-name="uni04F8" unicode="&#x4f8;" horiz-adv-x="854" 
d="M99 698h60v-288h219q91 0 138.5 -54t47.5 -151t-47.5 -151t-138.5 -54h-279v698zM378 53q60 0 91 35.5t31 92.5v48q0 58 -31 93t-91 35h-219v-304h219zM695 698h60v-698h-60v698zM335 800q-21 0 -30.5 10.5t-9.5 26.5v10q0 16 9.5 26.5t30.5 10.5q20 0 29.5 -10.5
t9.5 -26.5v-10q0 -16 -9.5 -26.5t-29.5 -10.5zM519 800q-20 0 -29.5 10.5t-9.5 26.5v10q0 16 9.5 26.5t29.5 10.5q21 0 30.5 -10.5t9.5 -26.5v-10q0 -16 -9.5 -26.5t-30.5 -10.5z" />
    <glyph glyph-name="uni04F9" unicode="&#x4f9;" horiz-adv-x="704" 
d="M93 512h57v-197h142q78 0 121.5 -42.5t43.5 -115.5t-43 -115t-121 -42h-200v512zM286 50q54 0 81.5 24t27.5 66v36q0 42 -27.5 65.5t-81.5 23.5h-136v-215h136zM554 512h57v-512h-57v512zM260 627q-21 0 -30 10t-9 26v10q0 16 9 26t30 10q20 0 29.5 -10t9.5 -26v-10
q0 -16 -9.5 -26t-29.5 -10zM444 627q-20 0 -29.5 10t-9.5 26v10q0 16 9.5 26t29.5 10q21 0 30 -10t9 -26v-10q0 -16 -9 -26t-30 -10z" />
    <glyph glyph-name="uni0E3F" unicode="&#xe3f;" horiz-adv-x="629" 
d="M330 -82h-44v103h-187v656h187v103h44v-103h33q82 0 128 -44.5t46 -121.5q0 -65 -31 -98t-78 -44v-5q28 -4 52.5 -15t43.5 -29.5t30 -46.5t11 -67q0 -41 -13 -74.5t-36 -58.5t-56 -38.5t-73 -13.5h-57v-103zM286 386v237h-128v-237h128zM329 386h35q57 0 84 28t27 74v35
q0 46 -27 73t-84 27h-35v-237zM286 75v261h-128v-261h128zM329 75h44q63 0 96.5 30t33.5 81v38q0 51 -33.5 81.5t-96.5 30.5h-44v-261z" />
    <glyph glyph-name="Wgrave" unicode="&#x1e80;" horiz-adv-x="884" 
d="M200 0l-176 698h64l149 -624h3l165 624h73l163 -624h3l154 624h62l-182 -698h-70l-167 631h-2l-169 -631h-70zM334 916l52 26l95 -164l-38 -18z" />
    <glyph glyph-name="wgrave" unicode="&#x1e81;" horiz-adv-x="752" 
d="M33 512h56l123 -461h2l136 461h53l137 -461h2l122 461h55l-144 -512h-70l-129 431h-2l-128 -431h-69zM269 742l52 26l95 -164l-38 -18z" />
    <glyph glyph-name="Wacute" unicode="&#x1e82;" horiz-adv-x="884" 
d="M200 0l-176 698h64l149 -624h3l165 624h73l163 -624h3l154 624h62l-182 -698h-70l-167 631h-2l-169 -631h-70zM438 760l-37 18l95 164l52 -26z" />
    <glyph glyph-name="wacute" unicode="&#x1e83;" horiz-adv-x="752" 
d="M33 512h56l123 -461h2l136 461h53l137 -461h2l122 461h55l-144 -512h-70l-129 431h-2l-128 -431h-69zM373 586l-37 18l95 164l52 -26z" />
    <glyph glyph-name="Wdieresis" unicode="&#x1e84;" horiz-adv-x="884" 
d="M200 0l-176 698h64l149 -624h3l165 624h73l163 -624h3l154 624h62l-182 -698h-70l-167 631h-2l-169 -631h-70zM349 800q-21 0 -30.5 10.5t-9.5 26.5v10q0 16 9.5 26.5t30.5 10.5q20 0 29.5 -10.5t9.5 -26.5v-10q0 -16 -9.5 -26.5t-29.5 -10.5zM533 800q-20 0 -29.5 10.5
t-9.5 26.5v10q0 16 9.5 26.5t29.5 10.5q21 0 30.5 -10.5t9.5 -26.5v-10q0 -16 -9.5 -26.5t-30.5 -10.5z" />
    <glyph glyph-name="wdieresis" unicode="&#x1e85;" horiz-adv-x="752" 
d="M33 512h56l123 -461h2l136 461h53l137 -461h2l122 461h55l-144 -512h-70l-129 431h-2l-128 -431h-69zM284 627q-21 0 -30 10t-9 26v10q0 16 9 26t30 10q20 0 29.5 -10t9.5 -26v-10q0 -16 -9.5 -26t-29.5 -10zM468 627q-20 0 -29.5 10t-9.5 26v10q0 16 9.5 26t29.5 10
q21 0 30 -10t9 -26v-10q0 -16 -9 -26t-30 -10z" />
    <glyph glyph-name="uni1E9E" unicode="&#x1e9e;" horiz-adv-x="692" 
d="M639 194q0 -100 -57.5 -153t-153.5 -53q-68 0 -115 23.5t-79 68.5l42 35q27 -35 64 -55.5t88 -20.5q68 0 107.5 35.5t39.5 101.5v35q0 65 -40.5 102t-123.5 37h-67v55l189 240h-374v-645h-60v698h495v-59l-185 -235v-4q112 -1 171 -53.5t59 -152.5z" />
    <glyph glyph-name="uni1EA0" unicode="&#x1ea0;" horiz-adv-x="625" 
d="M536 0l-76 217h-297l-76 -217h-60l247 698h77l248 -698h-63zM313 641h-4l-131 -372h266zM316 -155q-20 0 -30 10t-10 27v8q0 17 10 27t30 10t30 -10t10 -27v-8q0 -17 -10 -27t-30 -10z" />
    <glyph glyph-name="uni1EA1" unicode="&#x1ea1;" horiz-adv-x="527" 
d="M445 0q-33 0 -48 17t-17 46v18h-5q-17 -43 -56 -68t-99 -25q-81 0 -125 39.5t-44 111.5q0 68 48.5 108t159.5 40h118v60q0 127 -131 127q-51 0 -85 -21.5t-55 -61.5l-36 30q21 45 64.5 74t113.5 29q90 0 138 -45t48 -126v-303h69v-50h-58zM228 37q31 0 58 8t47.5 22.5
t32 35t11.5 46.5v95h-120q-77 0 -111.5 -24.5t-34.5 -67.5v-24q0 -45 32 -68t85 -23zM237 -155q-20 0 -30 10t-10 27v8q0 17 10 27t30 10t30 -10t10 -27v-8q0 -17 -10 -27t-30 -10z" />
    <glyph glyph-name="uni1EA2" unicode="&#x1ea2;" horiz-adv-x="625" 
d="M536 0l-76 217h-297l-76 -217h-60l247 698h77l248 -698h-63zM313 641h-4l-131 -372h266zM233 928h120q28 0 39.5 -12t11.5 -29q0 -15 -9.5 -35.5t-31.5 -49.5l-34 -48l-35 17l66 113h-127v44z" />
    <glyph glyph-name="uni1EA3" unicode="&#x1ea3;" horiz-adv-x="527" 
d="M445 0q-33 0 -48 17t-17 46v18h-5q-17 -43 -56 -68t-99 -25q-81 0 -125 39.5t-44 111.5q0 68 48.5 108t159.5 40h118v60q0 127 -131 127q-51 0 -85 -21.5t-55 -61.5l-36 30q21 45 64.5 74t113.5 29q90 0 138 -45t48 -126v-303h69v-50h-58zM228 37q31 0 58 8t47.5 22.5
t32 35t11.5 46.5v95h-120q-77 0 -111.5 -24.5t-34.5 -67.5v-24q0 -45 32 -68t85 -23zM171 754h120q28 0 39.5 -11.5t11.5 -28.5q0 -16 -9.5 -36.5t-31.5 -49.5l-34 -48l-35 17l66 113h-127v44z" />
    <glyph glyph-name="uni1EA4" unicode="&#x1ea4;" horiz-adv-x="625" 
d="M536 0l-76 217h-297l-76 -217h-60l247 698h77l248 -698h-63zM313 641h-4l-131 -372h266zM451 872l-35 17l95 164l50 -25zM348 915l117 -134l-30 -22l-122 118l-122 -118l-30 22l117 134h70z" />
    <glyph glyph-name="uni1EA5" unicode="&#x1ea5;" horiz-adv-x="527" 
d="M445 0q-33 0 -48 17t-17 46v18h-5q-17 -43 -56 -68t-99 -25q-81 0 -125 39.5t-44 111.5q0 68 48.5 108t159.5 40h118v60q0 127 -131 127q-51 0 -85 -21.5t-55 -61.5l-36 30q21 45 64.5 74t113.5 29q90 0 138 -45t48 -126v-303h69v-50h-58zM228 37q31 0 58 8t47.5 22.5
t32 35t11.5 46.5v95h-120q-77 0 -111.5 -24.5t-34.5 -67.5v-24q0 -45 32 -68t85 -23zM389 698l-35 18l95 163l50 -25zM286 741l117 -134l-30 -22l-122 118l-122 -118l-30 22l117 134h70z" />
    <glyph glyph-name="uni1EA6" unicode="&#x1ea6;" horiz-adv-x="625" 
d="M536 0l-76 217h-297l-76 -217h-60l247 698h77l248 -698h-63zM313 641h-4l-131 -372h266zM65 1028l50 25l95 -164l-35 -17zM348 915l117 -134l-30 -22l-122 118l-122 -118l-30 22l117 134h70z" />
    <glyph glyph-name="uni1EA7" unicode="&#x1ea7;" horiz-adv-x="527" 
d="M445 0q-33 0 -48 17t-17 46v18h-5q-17 -43 -56 -68t-99 -25q-81 0 -125 39.5t-44 111.5q0 68 48.5 108t159.5 40h118v60q0 127 -131 127q-51 0 -85 -21.5t-55 -61.5l-36 30q21 45 64.5 74t113.5 29q90 0 138 -45t48 -126v-303h69v-50h-58zM228 37q31 0 58 8t47.5 22.5
t32 35t11.5 46.5v95h-120q-77 0 -111.5 -24.5t-34.5 -67.5v-24q0 -45 32 -68t85 -23zM3 854l50 25l95 -163l-35 -18zM286 741l117 -134l-30 -22l-122 118l-122 -118l-30 22l117 134h70z" />
    <glyph glyph-name="uni1EA8" unicode="&#x1ea8;" horiz-adv-x="625" 
d="M536 0l-76 217h-297l-76 -217h-60l247 698h77l248 -698h-63zM313 641h-4l-131 -372h266zM359 1041h120q28 0 39.5 -12t11.5 -29q0 -15 -10 -35.5t-32 -49.5l-33 -48l-34 17l67 115h-129v42zM348 915l117 -134l-30 -22l-122 118l-122 -118l-30 22l117 134h70z" />
    <glyph glyph-name="uni1EA9" unicode="&#x1ea9;" horiz-adv-x="527" 
d="M445 0q-33 0 -48 17t-17 46v18h-5q-17 -43 -56 -68t-99 -25q-81 0 -125 39.5t-44 111.5q0 68 48.5 108t159.5 40h118v60q0 127 -131 127q-51 0 -85 -21.5t-55 -61.5l-36 30q21 45 64.5 74t113.5 29q90 0 138 -45t48 -126v-303h69v-50h-58zM228 37q31 0 58 8t47.5 22.5
t32 35t11.5 46.5v95h-120q-77 0 -111.5 -24.5t-34.5 -67.5v-24q0 -45 32 -68t85 -23zM297 867h120q28 0 39.5 -11.5t11.5 -28.5q0 -16 -10 -36t-32 -50l-33 -48l-34 17l67 115h-129v42zM286 741l117 -134l-30 -22l-122 118l-122 -118l-30 22l117 134h70z" />
    <glyph glyph-name="uni1EAA" unicode="&#x1eaa;" horiz-adv-x="625" 
d="M536 0l-76 217h-297l-76 -217h-60l247 698h77l248 -698h-63zM313 641h-4l-131 -372h266zM241 1043q23 0 41 -8t38 -19q23 -14 39 -19.5t30 -5.5q17 0 31 8t29 22l24 -27q-15 -20 -37 -33.5t-51 -13.5q-23 0 -41 8t-38 19q-23 14 -39 19.5t-30 5.5q-17 0 -31 -8t-29 -22
l-24 27q15 20 37 33.5t51 13.5zM348 915l117 -134l-30 -22l-122 118l-122 -118l-30 22l117 134h70z" />
    <glyph glyph-name="uni1EAB" unicode="&#x1eab;" horiz-adv-x="527" 
d="M445 0q-33 0 -48 17t-17 46v18h-5q-17 -43 -56 -68t-99 -25q-81 0 -125 39.5t-44 111.5q0 68 48.5 108t159.5 40h118v60q0 127 -131 127q-51 0 -85 -21.5t-55 -61.5l-36 30q21 45 64.5 74t113.5 29q90 0 138 -45t48 -126v-303h69v-50h-58zM228 37q31 0 58 8t47.5 22.5
t32 35t11.5 46.5v95h-120q-77 0 -111.5 -24.5t-34.5 -67.5v-24q0 -45 32 -68t85 -23zM179 870q23 0 41 -8.5t38 -19.5q23 -14 39 -19.5t30 -5.5q17 0 31 8t29 22l24 -27q-15 -20 -37 -34t-51 -14q-23 0 -41 8.5t-38 19.5q-23 14 -39 19.5t-30 5.5q-17 0 -31 -8t-29 -22
l-24 27q15 20 37 34t51 14zM286 741l117 -134l-30 -22l-122 118l-122 -118l-30 22l117 134h70z" />
    <glyph glyph-name="uni1EAC" unicode="&#x1eac;" horiz-adv-x="625" 
d="M536 0l-76 217h-297l-76 -217h-60l247 698h77l248 -698h-63zM313 641h-4l-131 -372h266zM348 930l118 -139l-32 -23l-121 120l-121 -120l-32 23l118 139h70zM316 -155q-20 0 -30 10t-10 27v8q0 17 10 27t30 10t30 -10t10 -27v-8q0 -17 -10 -27t-30 -10z" />
    <glyph glyph-name="uni1EAD" unicode="&#x1ead;" horiz-adv-x="527" 
d="M445 0q-33 0 -48 17t-17 46v18h-5q-17 -43 -56 -68t-99 -25q-81 0 -125 39.5t-44 111.5q0 68 48.5 108t159.5 40h118v60q0 127 -131 127q-51 0 -85 -21.5t-55 -61.5l-36 30q21 45 64.5 74t113.5 29q90 0 138 -45t48 -126v-303h69v-50h-58zM228 37q31 0 58 8t47.5 22.5
t32 35t11.5 46.5v95h-120q-77 0 -111.5 -24.5t-34.5 -67.5v-24q0 -45 32 -68t85 -23zM287 756l118 -139l-32 -23l-121 121l-121 -121l-32 23l118 139h70zM237 -155q-20 0 -30 10t-10 27v8q0 17 10 27t30 10t30 -10t10 -27v-8q0 -17 -10 -27t-30 -10z" />
    <glyph glyph-name="uni1EAE" unicode="&#x1eae;" horiz-adv-x="625" 
d="M536 0l-76 217h-297l-76 -217h-60l247 698h77l248 -698h-63zM313 641h-4l-131 -372h266zM313 763q-35 0 -58 10t-39.5 26.5t-27 37.5t-19.5 44l33 16l20 -34q17 -29 36 -43t55 -14t55 14t36 43l20 34l33 -16q-9 -23 -19.5 -44t-27 -37.5t-40 -26.5t-57.5 -10zM312 872
l-36 17l95 164l50 -25z" />
    <glyph glyph-name="uni1EAF" unicode="&#x1eaf;" horiz-adv-x="527" 
d="M445 0q-33 0 -48 17t-17 46v18h-5q-17 -43 -56 -68t-99 -25q-81 0 -125 39.5t-44 111.5q0 68 48.5 108t159.5 40h118v60q0 127 -131 127q-51 0 -85 -21.5t-55 -61.5l-36 30q21 45 64.5 74t113.5 29q90 0 138 -45t48 -126v-303h69v-50h-58zM228 37q31 0 58 8t47.5 22.5
t32 35t11.5 46.5v95h-120q-77 0 -111.5 -24.5t-34.5 -67.5v-24q0 -45 32 -68t85 -23zM251 589q-35 0 -58.5 10t-39.5 26.5t-27 37.5t-20 44l33 16l19 -30q18 -30 37.5 -45.5t55.5 -15.5t55.5 15.5t37.5 45.5l19 30l33 -16q-9 -23 -20 -44t-27 -37.5t-40 -26.5t-58 -10z
M250 698l-36 18l95 163l50 -25z" />
    <glyph glyph-name="uni1EB0" unicode="&#x1eb0;" horiz-adv-x="625" 
d="M536 0l-76 217h-297l-76 -217h-60l247 698h77l248 -698h-63zM313 641h-4l-131 -372h266zM313 763q-35 0 -58 10t-39.5 26.5t-27 37.5t-19.5 44l33 16l20 -34q17 -29 36 -43t55 -14t55 14t36 43l20 34l33 -16q-9 -23 -19.5 -44t-27 -37.5t-40 -26.5t-57.5 -10zM205 1028
l50 25l95 -164l-36 -17z" />
    <glyph glyph-name="uni1EB1" unicode="&#x1eb1;" horiz-adv-x="527" 
d="M445 0q-33 0 -48 17t-17 46v18h-5q-17 -43 -56 -68t-99 -25q-81 0 -125 39.5t-44 111.5q0 68 48.5 108t159.5 40h118v60q0 127 -131 127q-51 0 -85 -21.5t-55 -61.5l-36 30q21 45 64.5 74t113.5 29q90 0 138 -45t48 -126v-303h69v-50h-58zM228 37q31 0 58 8t47.5 22.5
t32 35t11.5 46.5v95h-120q-77 0 -111.5 -24.5t-34.5 -67.5v-24q0 -45 32 -68t85 -23zM251 589q-35 0 -58.5 10t-39.5 26.5t-27 37.5t-20 44l33 16l19 -30q18 -30 37.5 -45.5t55.5 -15.5t55.5 15.5t37.5 45.5l19 30l33 -16q-9 -23 -20 -44t-27 -37.5t-40 -26.5t-58 -10z
M143 854l50 25l95 -163l-36 -18z" />
    <glyph glyph-name="uni1EB2" unicode="&#x1eb2;" horiz-adv-x="625" 
d="M536 0l-76 217h-297l-76 -217h-60l247 698h77l248 -698h-63zM313 641h-4l-131 -372h266zM230 1041h111q28 0 39.5 -12t11.5 -29q0 -15 -10 -35.5t-32 -49.5l-33 -48l-34 17l67 115h-120v42zM313 763q-35 0 -58 10t-39.5 26.5t-27 37.5t-19.5 44l33 16l20 -34
q17 -29 36 -43t55 -14t55 14t36 43l20 34l33 -16q-9 -23 -19.5 -44t-27 -37.5t-40 -26.5t-57.5 -10z" />
    <glyph glyph-name="uni1EB3" unicode="&#x1eb3;" horiz-adv-x="527" 
d="M445 0q-33 0 -48 17t-17 46v18h-5q-17 -43 -56 -68t-99 -25q-81 0 -125 39.5t-44 111.5q0 68 48.5 108t159.5 40h118v60q0 127 -131 127q-51 0 -85 -21.5t-55 -61.5l-36 30q21 45 64.5 74t113.5 29q90 0 138 -45t48 -126v-303h69v-50h-58zM228 37q31 0 58 8t47.5 22.5
t32 35t11.5 46.5v95h-120q-77 0 -111.5 -24.5t-34.5 -67.5v-24q0 -45 32 -68t85 -23zM251 589q-35 0 -58.5 10t-39.5 26.5t-27 37.5t-20 44l33 16l19 -30q18 -30 37.5 -45.5t55.5 -15.5t55.5 15.5t37.5 45.5l19 30l33 -16q-9 -23 -20 -44t-27 -37.5t-40 -26.5t-58 -10z
M168 867h111q28 0 39.5 -11.5t11.5 -28.5q0 -16 -10 -36t-32 -50l-33 -48l-34 17l67 115h-120v42z" />
    <glyph glyph-name="uni1EB4" unicode="&#x1eb4;" horiz-adv-x="625" 
d="M536 0l-76 217h-297l-76 -217h-60l247 698h77l248 -698h-63zM313 641h-4l-131 -372h266zM385 942q-23 0 -41 8.5t-38 19.5q-23 14 -39 19.5t-30 5.5q-17 0 -31 -8t-29 -22l-24 27q15 20 37 34t51 14q23 0 41 -8.5t38 -19.5q23 -14 39 -19.5t30 -5.5q17 0 31 8t29 22
l24 -27q-15 -20 -37 -34t-51 -14zM313 763q-35 0 -58 10t-39.5 26.5t-27 37.5t-19.5 44l33 16l20 -34q17 -29 36 -43t55 -14t55 14t36 43l20 34l33 -16q-9 -23 -19.5 -44t-27 -37.5t-40 -26.5t-57.5 -10z" />
    </font>
</defs>
</svg>
